<?xml version="1.0" standalone="no"?>
<!DOCTYPE svg PUBLIC "-//W3C//DTD SVG 1.1//EN" "http://www.w3.org/Graphics/SVG/1.1/DTD/svg11.dtd" >
<svg>
<metadata>
Created by FontForge 20090914 at Fri Feb 24 09:10:06 2017
 By www-data
Copyright (c) 2009-2011 by Accademia di Belle Arti di Urbino and students of MA course of Visual design. Some rights reserved.
</metadata>
<defs>
<font id="TitilliumWeb-Italic" horiz-adv-x="560" >
  <font-face 
    font-family="Titillium Web"
    font-weight="400"
    font-style="italic"
    font-stretch="normal"
    units-per-em="1000"
    panose-1="0 0 5 0 0 0 0 0 0 0"
    ascent="800"
    descent="-200"
    x-height="500"
    cap-height="692"
    bbox="-154 -283 1115 1083"
    underline-thickness="30"
    underline-position="-70"
    slope="-13"
    unicode-range="U+0020-U+F6C3"
  />
<missing-glyph horiz-adv-x="223" 
 />
    <glyph glyph-name=".notdef" horiz-adv-x="223" 
 />
    <glyph glyph-name="space" unicode=" " horiz-adv-x="220" 
 />
    <glyph glyph-name="exclam" unicode="!" horiz-adv-x="189" 
d="M112 230l106 470h77l-116 -470h-67zM59 0l25 111h76l-25 -111h-76z" />
    <glyph glyph-name="quotedbl" unicode="&#x22;" horiz-adv-x="313" 
d="M303 466h-82l52 228h87z" />
    <glyph glyph-name="numbersign" unicode="#" 
d="M574 180h-110l-44 -180h-68l44 180h-155l-44 -180h-68l44 180h-110l16 64h110l44 178h-110l16 64h110l46 180h68l-46 -180h155l45 180h68l-45 -180h110l-16 -64h-110l-44 -178h110zM412 244l44 178h-155l-44 -178h155z" />
    <glyph glyph-name="dollar" unicode="$" 
d="M524 219c0 -70.667 -21.501 -126.498 -64.501 -167.498s-100.5 -61.5 -172.5 -61.5c-9.33301 0 -22 0.666992 -38 2l-44 -112h-53l45 116c-27.333 3.33301 -57 8.66602 -89 15.999l-13 3l12 58c38 -6 76.333 -11 115 -15l102 259c-45.333 16 -78 34.333 -98 55
s-30 50.667 -30 90c0 65.333 21 116.666 63 153.999s98 56 168 56c16 0 28 -0.333008 36 -1l44 111h54l-47 -117c32.667 -5.33301 59.334 -11 80.001 -17l11 -3l-12 -55c-34 5.33301 -68.333 9.66602 -103 12.999l-93 -237c47.333 -17.333 80.333 -36.166 99 -56.499
s28 -50.5 28 -90.5zM447.999 212.002c0 23.333 -5.33301 40.833 -16 52.5s-31 23.5 -61 35.5l-97 -245h16c50 0 88.833 13.667 116.5 41s41.5 66 41.5 116zM269.999 468.002c0 -21.333 5.66699 -37.833 17 -49.5s32.333 -23.5 63 -35.5l88 224h-14
c-48 0 -85.667 -11.833 -113 -35.5s-41 -58.167 -41 -103.5z" />
    <glyph glyph-name="percent" unicode="%" 
d="M295 650c-32 0 -55 -25.999 -69 -77.999c-6 -24.667 -9 -43.334 -9 -56.001c0 -28.667 11.333 -43 34 -43c18 0 32.5 7.33301 43.5 22s19.833 34.5 26.5 59.5s10 44.167 10 57.5c0 25.333 -12 38 -36 38zM155 6.00098l360 703l50 -15l-359 -703zM164 564.001
c22.667 92 70.667 138.001 144 138.001c55.333 0 83 -27 83 -81c0 -16.667 -2.66699 -36 -8 -58c-12 -46.667 -30.5 -81.834 -55.5 -105.501s-54.667 -35.5 -89 -35.5s-58.5 12 -72.5 36c-6.66699 12 -10 27.167 -10 45.5s2.66699 38.5 8 60.5zM484 280.002
c56 0 84 -26.999 84 -80.999c0 -16.667 -2.66699 -36 -8 -58c-12 -46.667 -30.5 -81.834 -55.5 -105.501s-54.833 -35.5 -89.5 -35.5s-59 12 -73 36c-6.66699 12 -10 27.167 -10 45.5s2.66699 38.5 8 60.5c22.667 92 70.667 138 144 138zM507 189.003
c0 26 -12 39.002 -36 39.002c-17.333 0 -31.5 -6.83301 -42.5 -20.5s-19.667 -32.834 -26 -57.501s-9.5 -43.334 -9.5 -56.001c0 -28.667 11.333 -43 34 -43c18 0 32.5 7.33301 43.5 22s19.833 34.5 26.5 59.5s10 43.833 10 56.5z" />
    <glyph glyph-name="ampersand" unicode="&#x26;" horiz-adv-x="635" 
d="M443 702c95.333 0 143 -41 143 -123c0 -50.667 -15.833 -93.167 -47.5 -127.5s-81.5 -64.5 -149.5 -90.5l111 -152c24.667 39.333 44.334 84.333 59.001 135h72c-20 -68.667 -49.667 -131 -89 -187l93 -118l-52 -46l-88 113c-64.667 -77.333 -141.667 -116 -231 -116
c-66.667 0 -114.834 13.5 -144.501 40.5s-44.5 70 -44.5 129s16.167 108.5 48.5 148.5s84.833 73.667 157.5 101c-18 34 -27 67 -27 99c0 61.333 17 109 51 143s80 51 138 51zM275 56c34 0 67 8.83301 99 26.5s59.333 42.167 82 73.5l-146 204c-58 -22 -98.667 -49 -122 -81
s-35 -72.667 -35 -122c0 -67.333 40.667 -101 122 -101zM359 601.5c-18.667 -24.333 -28 -55.668 -28 -94.001s9.66699 -71.833 29 -100.5c54.667 22.667 93.167 46.834 115.5 72.501s33.5 57.5 33.5 95.5c0 42 -23 63 -69 63c-35.333 0 -62.333 -12.167 -81 -36.5z" />
    <glyph glyph-name="quotesingle" unicode="'" horiz-adv-x="162" 
d="M220 466h-66l52 228h71z" />
    <glyph glyph-name="parenleft" unicode="(" horiz-adv-x="227" 
d="M182 296c-16 -65.333 -23.999 -122.668 -23.999 -172.001c0 -85.333 4 -158.666 12 -219.999l3 -28h-71c-14 58 -21 127.167 -21 207.5s7.83301 153.5 23.5 219.5s34.5 124.333 56.5 175c46 105.333 87 184 123 236l23 34h71c-52.667 -82 -100.334 -176 -143.001 -282
c-19.333 -48 -37 -104.667 -53 -170z" />
    <glyph glyph-name="parenright" unicode=")" horiz-adv-x="227" 
d="M190 334c16 65.333 23.999 122.668 23.999 172.001c0 85.333 -4 158.666 -12 219.999l-3 28h71c14 -58 21 -127.167 21 -207.5s-7.83301 -153.5 -23.5 -219.5s-34.5 -124.333 -56.5 -175c-46 -105.333 -87 -184 -123 -236l-23 -34h-71c52.667 82 100.334 176 143.001 282
c19.333 48 37 104.667 53 170z" />
    <glyph glyph-name="asterisk" unicode="*" horiz-adv-x="413" 
d="M492 511h-131l40 -125l-48 -15l-42 126l-107 -79l-30 40l108 79l-106 77l30 42l107 -78l40 126l50 -16l-41 -127h130v-50z" />
    <glyph glyph-name="plus" unicode="+" 
d="M113 217v68h189v195h69v-195h191v-68h-191v-197h-69v197h-189z" />
    <glyph glyph-name="comma" unicode="," horiz-adv-x="183" 
d="M49 -129h-61l98 240h83z" />
    <glyph glyph-name="hyphen" unicode="-" horiz-adv-x="337" 
d="M98 233l17 69h247l-17 -69h-247z" />
    <glyph glyph-name="period" unicode="." horiz-adv-x="168" 
d="M46 0l26 111h76l-26 -111h-76z" />
    <glyph glyph-name="slash" unicode="/" horiz-adv-x="419" 
d="M112 -10l-70 25l427 692l70 -26z" />
    <glyph glyph-name="zero" unicode="0" 
d="M410 671c133.333 0 200 -65.334 200 -196.001c0 -84.667 -12.167 -163.5 -36.5 -236.5s-60.5 -132.667 -108.5 -179s-103.833 -69.5 -167.5 -69.5s-112.167 16.333 -145.5 49s-50 80.334 -50 143.001c0 82 11.667 159.667 35 233s59 134.333 107 183s103.333 73 166 73z
M409 603.999c-36.667 0 -70.167 -13.667 -100.5 -41s-54.5 -62.333 -72.5 -105c-37.333 -87.333 -56 -176 -56 -266s40 -135 120 -135c48 0 90.167 22.333 126.5 67s63 97.5 80 158.5s25.5 122.5 25.5 184.5c0 91.333 -41 137 -123 137z" />
    <glyph glyph-name="one" unicode="1" 
d="M231 526l240 135h66l-151 -661h-76l130 568l-189 -104z" />
    <glyph glyph-name="two" unicode="2" 
d="M522 512c0 33.333 -10.168 57 -30.501 71s-52.166 21 -95.499 21c-48 0 -98.667 -5.33301 -152 -16l-29 -5l8 59c66.667 19.333 129.667 29 189 29c125.333 0 188 -48.333 188 -145c0 -53.333 -18 -102 -54 -146c-30 -36.667 -72.667 -77 -128 -121l-241 -192h329
l-16 -67h-423l15 63l256 215c64 53.333 110.667 97.333 140 132s44 68.667 44 102z" />
    <glyph glyph-name="three" unicode="3" 
d="M415 671c118.667 0 178.001 -45.333 178.001 -136c0 -86 -45 -147.333 -135 -184c26.667 -12.667 46.5 -28.834 59.5 -48.501s19.5 -47.834 19.5 -84.501c0 -69.333 -25.333 -124.666 -76 -165.999s-115.334 -62 -194.001 -62c-28.667 0 -59.167 2.83301 -91.5 8.5
s-57.5 11.5 -75.5 17.5l-28 8l17 57c72 -16 133.667 -24 185 -24s95 14.333 131 43s54 66.667 54 114c0 62.667 -38.667 94.334 -116 95.001h-129l15 61l130 2c35.333 0.666992 70.166 15 104.499 43s51.5 59.5 51.5 94.5s-9.16699 59.5 -27.5 73.5s-44.166 21 -77.499 21
c-54.667 0 -111 -4.66699 -169 -14l-27 -5l7 56c64 20 128.667 30 194 30z" />
    <glyph glyph-name="four" unicode="4" 
d="M359 -2l29 126h-311l14 57l314 479h85l-317 -471h230l50 216h76l-50 -216h80l-16 -65h-79l-29 -126h-76z" />
    <glyph glyph-name="five" unicode="5" 
d="M385 414c114 0 170.997 -48.668 170.997 -146.001c0 -78.667 -26.333 -144.5 -79 -197.5s-117.667 -79.5 -195 -79.5c-30 0 -62.667 2.83301 -98 8.5s-63.333 11.167 -84 16.5l-30 9l19 61c74.667 -18.667 138.834 -28 192.501 -28s99.834 19.333 138.501 58
s58 85.334 58 140.001c0 60.667 -38.333 91 -115 91c-20.667 0 -44 -3.5 -70 -10.5s-46.667 -13.833 -62 -20.5l-23 -11l-60 12l105 343h377l-15 -67h-314l-74 -222c60.667 28.667 113.334 43 158.001 43z" />
    <glyph glyph-name="six" unicode="6" 
d="M610 588c-53.333 10.667 -101.169 15.998 -143.502 15.998s-77.166 -6.83301 -104.499 -20.5s-50.333 -32.167 -69 -55.5c-35.333 -45.333 -61.666 -97.666 -78.999 -156.999c61.333 28.667 121.333 43 180 43s102.5 -14 131.5 -42s43.5 -67.333 43.5 -118
c0 -79.333 -23.5 -143.166 -70.5 -191.499s-112.167 -72.5 -195.5 -72.5c-60.667 0 -107.667 19.333 -141 58s-50 95 -50 169c0 82 18.667 161.667 56 239c42 88.667 99 150.667 171 186c40 19.333 83.667 29 131 29c46 0 92.667 -5 140 -15l23 -5zM370.997 346.998
c-24.667 0 -51.167 -3.33105 -79.5 -9.99805s-50.5 -13.334 -66.5 -20.001l-24 -10c-6.66699 -24 -10 -57.333 -10 -100s9.5 -78.334 28.5 -107.001s47.833 -43 86.5 -43c59.333 0 105 17 137 51s48 78 48 132c0 36.667 -9.5 63.667 -28.5 81s-49.5 26 -91.5 26z" />
    <glyph glyph-name="seven" unicode="7" 
d="M216 592l16 68h398l-27 -114l-387 -559l-70 23l383 546l8 36h-321z" />
    <glyph glyph-name="eight" unicode="8" 
d="M440 671c66.667 0 116.502 -11.833 149.502 -35.5s49.5 -56.667 49.5 -99s-13.667 -80.833 -41 -115.5s-65.666 -60 -114.999 -76c34 -14 57.167 -31.5 69.5 -52.5s18.5 -42.833 18.5 -65.5s-2.83301 -43.5 -8.5 -62.5s-15.834 -39.167 -30.501 -60.5
s-33 -40.333 -55 -57s-50.833 -30.5 -86.5 -41.5s-75.834 -16.5 -120.501 -16.5c-136 0 -204 47.333 -204 142s54.667 166 164 214c-28.667 16 -47.834 32.333 -57.501 49s-14.5 37.667 -14.5 63c0 56.667 24 106.5 72 149.5s118 64.5 210 64.5zM287.002 56
c66 0 116.5 16.668 151.5 50.001s52.5 66.166 52.5 98.499s-7.16699 55 -21.5 68s-38.5 24.833 -72.5 35.5h-100c-41.333 -12 -76.333 -31.167 -105 -57.5s-43 -61.5 -43 -105.5c0 -59.333 46 -89 138 -89zM423.002 604.001c-62.667 0 -109.5 -14 -140.5 -42
s-46.5 -61 -46.5 -99c0 -20.667 5.66699 -38 17 -52s31.333 -26.667 60 -38h100c34.667 10 67.167 27.167 97.5 51.5s45.5 53.833 45.5 88.5c0 60.667 -44.333 91 -133 91z" />
    <glyph glyph-name="nine" unicode="9" 
d="M427 671c112 0 168.002 -67.668 168.002 -203.001c0 -32 -3.33301 -67.333 -10 -106c-18 -126 -58.167 -219.5 -120.5 -280.5s-138.5 -91.5 -228.5 -91.5c-46.667 0 -91.667 5.33301 -135 16l-23 5l26 67c48 -11.333 99.5 -17 154.5 -17s103.167 18.667 144.5 56
s71.666 93.333 90.999 168c-79.333 -24 -141 -36 -185 -36c-110.667 0 -166 48.333 -166 145c0 14.667 1.33301 30.334 4 47.001c11.333 64.667 42.166 119.167 92.499 163.5s112.833 66.5 187.5 66.5zM220.002 405.999c0 -58.667 37.667 -88 113 -88c38 0 87.667 8 149 24
l30 8c10 40 15 75.667 15 107c0 95.333 -39 143 -117 143c-46 0 -86.5 -14 -121.5 -42s-56.5 -65.667 -64.5 -113c-2.66699 -14 -4 -27 -4 -39z" />
    <glyph glyph-name="colon" unicode=":" horiz-adv-x="171" 
d="M123 330l26 111h76l-26 -111h-76zM47 0l26 111h76l-26 -111h-76z" />
    <glyph glyph-name="semicolon" unicode=";" horiz-adv-x="201" 
d="M-2 -129l98 240h83l-120 -240h-61zM142 330l26 111h76l-26 -111h-76z" />
    <glyph glyph-name="less" unicode="&#x3c;" 
d="M523 409l-339 -157l339 -160v-79l-417 205v66l417 203v-78z" />
    <glyph glyph-name="equal" unicode="=" 
d="M122 309v69h432v-69h-432zM122 124v69h432v-69h-432z" />
    <glyph glyph-name="greater" unicode="&#x3e;" 
d="M490 252l-339 157v78l417 -203v-66l-417 -205v79z" />
    <glyph glyph-name="question" unicode="?" horiz-adv-x="414" 
d="M504 571c0 -47.333 -10.667 -85.5 -32 -114.5s-65.333 -69.167 -132 -120.5c-46 -35.333 -72 -69 -78 -101l-8 -39h-71c0.666992 22 3 42.667 7 62c7.33301 40.667 41 84 101 130c53.333 42 88.833 74.167 106.5 96.5s26.5 49.5 26.5 81.5c0 45.333 -33.667 68 -101 68
c-36 0 -76.333 -4.66699 -121 -14l-23 -4l6 61c58.667 16.667 110 25 154 25c110 0 165 -43.667 165 -131zM141 1l25 116h77l-26 -116h-76z" />
    <glyph glyph-name="at" unicode="@" horiz-adv-x="933" 
d="M639 721c63.333 0 117.836 -7.49902 163.503 -22.499s81.5 -35.167 107.5 -60.5c48 -46.667 72 -112 72 -196c0 -42.667 -8.16699 -98.334 -24.5 -167.001s-36.666 -125.834 -60.999 -171.501s-49.5 -76 -75.5 -91s-58.333 -22.5 -97 -22.5c-57.333 0 -90 18.667 -98 56
c-74.667 -37.333 -138.334 -56 -191.001 -56c-26.667 0 -48.834 5 -66.501 15s-30.5 22.333 -38.5 37c-13.333 22.667 -20 54.667 -20 96c0 21.333 3 47.333 9 78c36 196 120.667 294 254 294c34 0 99 -8.33301 195 -25c-54 -220 -81 -348.333 -81 -385
c0 -15.333 4.16699 -25.666 12.5 -30.999s21.833 -8 40.5 -8c33.333 0 61.666 16.667 84.999 50s46.333 98.666 69 195.999c12.667 51.333 19 92.166 19 122.499s-3.83301 59.333 -11.5 87s-21.834 51.5 -42.501 71.5c-46 44.667 -123.667 67 -233 67
c-124.667 0 -222.167 -30.667 -292.5 -92s-122.166 -160.666 -155.499 -297.999c-12.667 -54 -19 -102.333 -19 -145c0 -170 100 -255 300 -255l136 9l-13 -66c-64 -6 -117.333 -9 -160 -9s-85.5 6.33301 -128.5 19s-77.5 30.334 -103.5 53.001
c-55.333 47.333 -88 105.666 -98 174.999c-3.33301 26 -5 47.833 -5 65.5s0.666992 38 2 61s6.66602 53.833 15.999 92.5c38.667 164.667 100 281.834 184 351.501s200.667 104.5 350 104.5zM453.003 57.001c44 0 97.333 17.333 160 52c4 42.667 27 150 69 322
c-40.667 9.33301 -78 14 -112 14c-47.333 0 -84.5 -19.5 -111.5 -58.5s-48.5 -96.167 -64.5 -171.5c-5.33301 -31.333 -8 -57.833 -8 -79.5s5.5 -40.167 16.5 -55.5s27.833 -23 50.5 -23z" />
    <glyph glyph-name="A" unicode="A" horiz-adv-x="554" 
d="M24 0l345 692h149l14 -692h-76l-6 177h-259l-89 -177h-78zM414 624l-191 -380h228l-7 380h-30z" />
    <glyph glyph-name="B" unicode="B" horiz-adv-x="577" 
d="M460 692c55.333 0 96.834 -10.6689 124.501 -32.002s41.5 -56.166 41.5 -104.499s-11.833 -89.166 -35.5 -122.499s-54.834 -58.333 -93.501 -75c56 -22 84 -61.667 84 -119c0 -72.667 -23 -130.667 -69 -174s-111.333 -65 -196 -65h-238l159 692h223zM386.001 319.998
h-158l-58 -253h162c52.667 0 94 15.333 124 46s45 72 45 124c0 55.333 -38.333 83 -115 83zM447.001 624.998l-149 0.000976562l-55 -239h154c44.667 0 81 15.167 109 45.5s42 68.166 42 113.499c0 29.333 -7.83301 50 -23.5 62s-41.5 18 -77.5 18z" />
    <glyph glyph-name="C" unicode="C" horiz-adv-x="504" 
d="M305 -10c-128.667 0 -193.002 66 -193.002 198c0 118.667 27.333 230.667 82 336c26.667 52 63.167 94.667 109.5 128s98.833 50 157.5 50c44 0 91.333 -6 142 -18l24 -5l-17 -60c-51.333 10 -100 15 -146 15s-86.333 -13.833 -121 -41.5s-62.667 -63.167 -84 -106.5
c-44.667 -92 -67 -190 -67 -294c0 -45.333 9.83301 -79 29.5 -101s50.834 -33 93.501 -33c50.667 0 97.334 4 140.001 12l23 5l-5 -63c-59.333 -14.667 -115.333 -22 -168 -22z" />
    <glyph glyph-name="D" unicode="D" horiz-adv-x="607" 
d="M317 0h-238.998l160 692h222c63.333 0 111.166 -16.333 143.499 -49s48.5 -85 48.5 -157c0 -92.667 -17.333 -180 -52 -262c-18 -42.667 -39.667 -80.5 -65 -113.5s-56.833 -59.667 -94.5 -80s-78.834 -30.5 -123.501 -30.5zM556.502 351.5
c10.333 47 15.501 93.332 15.501 138.999s-10 79.334 -30 101.001s-52.333 32.5 -97 32.5h-147l-127 -556h157c39.333 0 75.166 14 107.499 42s58 63.5 77 106.5s33.667 88 44 135z" />
    <glyph glyph-name="E" unicode="E" horiz-adv-x="505" 
d="M78 0l159 692h386l-16 -68h-309l-55 -238h254l-16 -68h-253l-58 -250h309l-15 -68h-386z" />
    <glyph glyph-name="F" unicode="F" horiz-adv-x="482" 
d="M78 0l160 692h377l-16 -68h-301l-62 -273h256l-16 -67h-256l-66 -284h-76z" />
    <glyph glyph-name="G" unicode="G" horiz-adv-x="572" 
d="M322 -10c-139.333 0 -208.999 65.334 -208.999 196.001c0 131.333 28.333 248 85 350c28 50 65.5 90.167 112.5 120.5s99.833 45.5 158.5 45.5c56.667 0 113.667 -8 171 -24l28 -7l-19 -58c-66.667 14 -130 21 -190 21c-36 0 -69 -9.5 -99 -28.5s-55 -44 -75 -75
s-37 -66.5 -51 -106.5c-27.333 -74.667 -41 -154.334 -41 -239.001s45.667 -127 137 -127c29.333 0 63.666 4 102.999 12l18 3l52 220h-105l15 66h182l-80 -342c-58.667 -18 -123 -27 -193 -27z" />
    <glyph glyph-name="H" unicode="H" horiz-adv-x="624" 
d="M469 0l73 316h-315l-73 -316h-76l160 692h76l-71 -309h315l71 309h77l-160 -692h-77z" />
    <glyph glyph-name="I" unicode="I" horiz-adv-x="232" 
d="M78 0l160 692h76l-160 -692h-76z" />
    <glyph glyph-name="J" unicode="J" horiz-adv-x="265" 
d="M350 692l-131.998 -573.999c-13.333 -57.333 -26.333 -98 -39 -122s-31.334 -41 -56.001 -51s-63.334 -15 -116.001 -15l12 68c41.333 0 69 7.16699 83 21.5s27.333 49.166 40 104.499l132 568h76z" />
    <glyph glyph-name="K" unicode="K" horiz-adv-x="521" 
d="M422 0l-98 307l-100 -3l-70 -304h-76l160 692h76l-74 -320l91 3l245 317h86l-269 -349l110 -343h-81z" />
    <glyph glyph-name="L" unicode="L" horiz-adv-x="433" 
d="M427 0h-349l160 692h76l-144 -624h272z" />
    <glyph glyph-name="M" unicode="M" horiz-adv-x="780" 
d="M78 0l160 692h129l44 -586l320 586h131l-160 -692h-76l145 624h-11l-326 -599h-80l-46 599h-10l-144 -624h-76z" />
    <glyph glyph-name="N" unicode="N" horiz-adv-x="631" 
d="M78 0l160 692h136l104 -613h19l141 613h75l-160 -692h-131l-108 617h-20l-143 -617h-73z" />
    <glyph glyph-name="O" unicode="O" horiz-adv-x="628" 
d="M225 90.5c21.333 -21.667 56.1689 -32.5 104.502 -32.5s88.833 13.333 121.5 40c45.333 37.333 80.166 93.333 104.499 168s36.5 149.334 36.5 224.001c0 50 -11.167 86.5 -33.5 109.5s-56.333 34.5 -102 34.5s-83.834 -12.333 -114.501 -37
c-46 -38 -82.333 -95.667 -109 -173s-40 -146.833 -40 -208.5s10.667 -103.334 32 -125.001zM629.503 239c-28.333 -80.667 -68.5 -142.332 -120.5 -184.999s-113.833 -64 -185.5 -64s-124.5 16.167 -158.5 48.5s-51 88.166 -51 167.499s13.833 158.333 41.5 237
s67.167 141.5 118.5 188.5s112.333 70.5 183 70.5c143.333 0 215 -69 215 -207c0 -90 -14.167 -175.333 -42.5 -256z" />
    <glyph glyph-name="P" unicode="P" horiz-adv-x="547" 
d="M359 232h-150.999l-54 -232h-76l160 692h218c59.333 0 102.666 -13.5 129.999 -40.5s41 -68.167 41 -123.5c0 -88.667 -23.5 -160.167 -70.5 -214.5s-112.833 -81.5 -197.5 -81.5zM371.001 300c56.667 0 100.167 21.333 130.5 64s45.5 97 45.5 163
c0 32.667 -7.83301 57 -23.5 73s-41.167 24 -76.5 24h-149l-74 -324h147z" />
    <glyph glyph-name="Q" unicode="Q" horiz-adv-x="628" 
d="M326 -10c-73.333 0 -127.002 16.1689 -161.002 48.502s-51 88.166 -51 167.499s13.833 158.333 41.5 237s67.167 141.5 118.5 188.5s112.333 70.5 183 70.5c143.333 0 215 -69 215 -207c0 -90 -14.167 -175.333 -42.5 -256s-69.5 -143.334 -123.5 -188.001
c-13.333 -11.333 -28.666 -21.333 -45.999 -30l48 -142l-73 -24l-45 142c-23.333 -4.66699 -44.666 -7 -63.999 -7zM224.998 90.502c21.333 -21.667 56.1689 -32.5 104.502 -32.5s88.833 13.333 121.5 40c45.333 37.333 80.166 93.333 104.499 168
s36.5 149.334 36.5 224.001c0 50 -11.167 86.5 -33.5 109.5s-56.333 34.5 -102 34.5s-83.834 -12.333 -114.501 -37c-46 -38 -82.333 -95.667 -109 -173s-40 -146.833 -40 -208.5s10.667 -103.334 32 -125.001z" />
    <glyph glyph-name="R" unicode="R" horiz-adv-x="564" 
d="M449 692c60.667 0 105.833 -12.999 135.5 -38.999s44.5 -71.833 44.5 -137.5s-17.833 -119.834 -53.5 -162.501s-77.167 -70.667 -124.5 -84l76 -269h-77l-71 259h-164l-61 -259h-76l160 692h211zM548.999 523.001c0 37.333 -8.33203 63.667 -24.999 79
s-44.334 23 -83.001 23h-142l-69 -299h147c52 0 93.667 18.333 125 55s47 84 47 142z" />
    <glyph glyph-name="S" unicode="S" horiz-adv-x="499" 
d="M577 617c-70.667 12 -130.332 18 -178.999 18s-87.167 -12.5 -115.5 -37.5s-42.5 -61.167 -42.5 -108.5c0 -26.667 8.16699 -46 24.5 -58s50.333 -27.167 102 -45.5s87.667 -38.166 108 -59.499s30.5 -53.666 30.5 -96.999c0 -74.667 -22.333 -133.167 -67 -175.5
s-105 -63.5 -181 -63.5c-56.667 0 -114 6.66699 -172 20l-29 6l13 60c77.333 -12 141.666 -18 192.999 -18s91.5 14.167 120.5 42.5s43.5 68.833 43.5 121.5c0 27.333 -7.33301 47.5 -22 60.5s-47 28.167 -97 45.5s-86.667 36.666 -110 57.999s-35 53.666 -35 96.999
c0 68 21.833 121.5 65.5 160.5s102.5 58.5 176.5 58.5c54.667 0 108 -7 160 -21l26 -7z" />
    <glyph glyph-name="T" unicode="T" horiz-adv-x="469" 
d="M154 624l16 68h447l-16 -68h-186l-144 -624h-76l144 624h-185z" />
    <glyph glyph-name="U" unicode="U" horiz-adv-x="594" 
d="M189 144c0 -57.333 42.666 -86.001 127.999 -86.001c52.667 0 92.167 12.333 118.5 37s45.5 63.334 57.5 116.001l111 481h77l-111 -481c-17.333 -76 -46.166 -131.833 -86.499 -167.5s-94.833 -53.5 -163.5 -53.5c-138 0 -207 48 -207 144c0 32.667 3.66699 63 11 91
l108 467h77l-110 -475c-6.66699 -26.667 -10 -51 -10 -73z" />
    <glyph glyph-name="V" unicode="V" horiz-adv-x="545" 
d="M601 692h77l-330 -692h-158l-9 692h77l3 -624h45z" />
    <glyph glyph-name="W" unicode="W" horiz-adv-x="829" 
d="M187 692h76l-31 -621h26l269 611h84l-19 -611h26l262 621h77l-298 -692h-133l19 570l-248 -570h-137z" />
    <glyph glyph-name="X" unicode="X" horiz-adv-x="513" 
d="M261 692l90 -288l224 288h84l-276 -349l112 -343h-79l-92 287l-227 -287h-85l280 347l-111 345h80z" />
    <glyph glyph-name="Y" unicode="Y" horiz-adv-x="493" 
d="M641 692l-293 -396l-69 -296h-73l70 302l-106 390h78l81 -323l229 323h83z" />
    <glyph glyph-name="Z" unicode="Z" horiz-adv-x="495" 
d="M184 624l16 68h416l-24 -102l-448 -498l-6 -24h332l-16 -68h-416l22 99l448 498l6 27h-330z" />
    <glyph glyph-name="bracketleft" unicode="[" horiz-adv-x="276" 
d="M228 747h195l-15 -65h-119l-173 -739h119l-17 -65h-193z" />
    <glyph glyph-name="backslash" unicode="\" horiz-adv-x="426" 
d="M398 8l-78 -8l-132 693l79 8z" />
    <glyph glyph-name="bracketright" unicode="]" horiz-adv-x="276" 
d="M193 -121h-195l15 65h119l173 739h-119l17 65h193z" />
    <glyph glyph-name="asciicircum" unicode="^" 
d="M480 319l-144 267l-140 -267h-80l186 341h67l191 -341h-80z" />
    <glyph glyph-name="underscore" unicode="_" horiz-adv-x="577" 
d="M46 -79h448l-17 -73h-447z" />
    <glyph glyph-name="grave" unicode="`" horiz-adv-x="518" 
d="M316 741l185 -93l-33 -52l-188 86z" />
    <glyph glyph-name="a" unicode="a" horiz-adv-x="500" 
d="M217 -10c-85.333 0 -128.002 49.666 -128.002 148.999c0 55.333 8.83301 110.5 26.5 165.5s46.5 103 86.5 144s86.333 61.5 139 61.5c40.667 0 96.334 -6 167.001 -18l38 -7l-76 -325c-9.33301 -37.333 -17.333 -81.333 -24 -132l-4 -26l-73 -3
c9.33301 57.333 15.333 93 18 107c-3.33301 -6 -13.166 -17.5 -29.499 -34.5s-30.833 -30.667 -43.5 -41s-28 -19.666 -46 -27.999s-35 -12.5 -51 -12.5zM458.998 430.999c-46.667 9.33301 -86.833 14 -120.5 14s-64.5 -17.167 -92.5 -51.5s-48.333 -74.333 -61 -120
s-19 -86.5 -19 -122.5s5.66699 -61 17 -75s28.333 -21 51 -21s47.5 10.833 74.5 32.5s49.5 43.5 67.5 65.5l26 33z" />
    <glyph glyph-name="b" unicode="b" horiz-adv-x="499" 
d="M392 510c50 0 84.665 -13.333 103.998 -40s29 -64.334 29 -113.001c0 -63.333 -12.667 -126.333 -38 -189c-29.333 -72 -69.666 -123 -120.999 -153c-29.333 -16.667 -58.666 -25 -87.999 -25c-56 0 -114.667 6 -176 18l-33 7l162 703h74l-65 -284
c32.667 32.667 68 55.334 106 68.001c16 5.33301 31.333 8 46 8zM154.998 68c46.667 -8.66699 85.332 -12.999 115.999 -12.999s58.334 11.667 83.001 35s43.334 52 56.001 86c25.333 69.333 38 123.666 38 162.999s-5.16699 66.833 -15.5 82.5s-31.166 23.5 -62.499 23.5
c-18.667 0 -40.334 -7.16699 -65.001 -21.5s-44.334 -28.833 -59.001 -43.5l-23 -21z" />
    <glyph glyph-name="c" unicode="c" horiz-adv-x="405" 
d="M355 510c31.333 0 66.999 -4.66699 106.999 -14l18 -5l-19 -58c-43.333 8 -79.333 12 -108 12c-40 0 -74.333 -14.667 -103 -44c-54 -54 -81 -135.667 -81 -245c0 -33.333 8 -58.5 24 -75.5s42.333 -25.5 79 -25.5c26 0 56.667 3.66699 92 11l20 4l-5 -59
c-46 -14 -92.167 -21 -138.5 -21s-82.666 13.167 -108.999 39.5s-39.5 63.833 -39.5 112.5c0 142.667 38.667 247.667 116 315c40.667 35.333 89.667 53 147 53z" />
    <glyph glyph-name="d" unicode="d" horiz-adv-x="500" 
d="M215 -10c-84 0 -126 48.667 -126 146c0 58.667 9.33301 116 28 172s47.667 103.667 87 143s84.333 59 135 59c34 0 71.667 -4.66699 113 -14l20 -4l53 226h75l-167 -718h-72l19 89c-6 -8.66699 -15.833 -19.5 -29.5 -32.5s-26.5 -23.833 -38.5 -32.5
c-32.667 -22.667 -65 -34 -97 -34zM459 430c-44 10 -83.833 15 -119.5 15s-67.167 -17.333 -94.5 -52s-47.333 -75 -60 -121s-19 -91 -19 -135c0 -54.667 24 -82 72 -82c20 0 43.333 9.83301 70 29.5s48.667 39.5 66 59.5l25 29z" />
    <glyph glyph-name="e" unicode="e" horiz-adv-x="462" 
d="M192 79.5c17.333 -15.667 38.666 -23.5 63.999 -23.5c47.333 0 96 5.33301 146 16l25 6l-6 -59c-59.333 -19.333 -116.333 -29 -171 -29c-106 0 -159 50.667 -159 152c0 92.667 21 175.334 63 248.001c21.333 36 49.833 65 85.5 87s75.834 33 120.501 33
c98.667 0 148 -40.667 148 -122c0 -59.333 -22.333 -100.833 -67 -124.5s-115.667 -35.5 -213 -35.5h-51c-7.33301 -26 -11 -53.333 -11 -82s8.66699 -50.834 26 -66.501zM242 287c68 0 117 7.16699 147 21.5s45 40.5 45 78.5c0 40 -25.667 60 -77 60
c-82 0 -138.667 -53.333 -170 -160h55z" />
    <glyph glyph-name="f" unicode="f" horiz-adv-x="309" 
d="M380 728c22.667 0 46.667 -3.33301 72 -10l12 -4l-14 -58c-26.667 4.66699 -51.667 7 -75 7s-41.5 -9.33301 -54.5 -28s-25.167 -49.667 -36.5 -93l-10 -42h134l-16 -65h-132l-101 -435l-61 -222h-65l152 656h-57l16 66h55l11 43c16 68 36.5 115.833 61.5 143.5
s61.167 41.5 108.5 41.5z" />
    <glyph glyph-name="g" unicode="g" horiz-adv-x="468" 
d="M197 -235c-55.333 0 -99.002 11.501 -131.002 34.501s-48 55.167 -48 96.5c0 56.667 44 107.667 132 153c-10.667 10.667 -16 23.834 -16 39.501s4.66699 31.5 14 47.5s18.666 28.667 27.999 38l13 15c-46 21.333 -69 59.666 -69 114.999s18.333 103.5 55 144.5
s85.334 61.5 146.001 61.5c30.667 0 58.334 -4 83.001 -12l13 -4l148 6l-15 -64h-89c11.333 -18.667 17 -41.667 17 -69c0 -50 -18.833 -95.333 -56.5 -136s-89.167 -61 -154.5 -61l-33 3c-20.667 -26.667 -31 -47 -31 -61s6.33301 -23.5 19 -28.5
s41.334 -10.333 86.001 -16s79 -17.334 103 -35.001s36 -45.167 36 -82.5c0 -51.333 -22.833 -95 -68.5 -131s-106.167 -54 -181.5 -54zM118.998 -26.999c-20 -20 -30 -41.334 -30 -64.001s9.33301 -41.667 28 -57s49.167 -23 91.5 -23s80.5 10.333 114.5 31
s51 48.667 51 84c0 20 -7.16699 34.333 -21.5 43s-40.833 15.334 -79.5 20.001s-66.667 10 -84 16c-26.667 -13.333 -50 -30 -70 -50zM273.998 232c42 0 74.667 14.167 98 42.5s35 57.166 35 86.499s-7 51 -21 65s-38.5 21 -73.5 21s-64 -14.167 -87 -42.5
s-34.5 -59.166 -34.5 -92.499c0 -53.333 27.667 -80 83 -80z" />
    <glyph glyph-name="h" unicode="h" horiz-adv-x="499" 
d="M398 510c38.667 0 68.002 -11.332 88.002 -33.999s30 -51.334 30 -86.001s-7 -80.667 -21 -138l-58 -252h-74l58 249c12 54.667 18 94.667 18 120c0 50 -22.333 75 -67 75c-32.667 0 -72.667 -24.333 -120 -73c-10.667 -11.333 -19.334 -21 -26.001 -29l-9 -11l-76 -331
h-75l166 718h75l-71 -306c6 7.33301 14 16.5 24 27.5s29.167 25.5 57.5 43.5s55.166 27 80.499 27z" />
    <glyph glyph-name="i" unicode="i" horiz-adv-x="206" 
d="M66 0l115 500h75l-116 -500h-74zM204 604l22 90h75l-21 -90h-76z" />
    <glyph glyph-name="j" unicode="j" horiz-adv-x="206" 
d="M66 0l115.002 500.001h75l-116 -500c-16.667 -74 -35.334 -122.833 -56.001 -146.5s-69.667 -53.167 -147 -88.5l-24 60c59.333 30.667 96.666 54.667 111.999 72s29 51.666 41 102.999zM205.002 602.001l21 90h75l-20 -90h-76z" />
    <glyph glyph-name="k" unicode="k" horiz-adv-x="445" 
d="M141 0h-75l166 718h75l-97 -418l64 3l181 197h87l-212 -232l95 -268h-79l-84 239l-67 -2z" />
    <glyph glyph-name="l" unicode="l" horiz-adv-x="215" 
d="M70 0l166 718h74l-165 -718h-75z" />
    <glyph glyph-name="m" unicode="m" horiz-adv-x="775" 
d="M438 369c0 50 -22.667 75 -68 75c-19.333 0 -41.833 -9.33301 -67.5 -28s-46.5 -37.334 -62.5 -56.001l-23 -28l-77 -332h-74l115 500h73l-18 -87c15.333 20 33.333 37.667 54 53c40.667 29.333 77 44 109 44c37.333 0 64.333 -10.333 81 -31
c15.333 -18.667 24.666 -38 27.999 -58c6 6.66699 14.5 15 25.5 25s31.167 23.167 60.5 39.5s56.333 24.5 81 24.5c38.667 0 67.834 -11.333 87.501 -34s29.5 -50.667 29.5 -84s-6.66699 -80 -20 -140l-58 -252h-75l58 249c12.667 50.667 19 90.334 19 119.001
c0 50.667 -22 76 -66 76c-18.667 0 -39.5 -7.5 -62.5 -22.5s-41.5 -30.167 -55.5 -45.5l-21 -22c-2 -31.333 -7.66699 -65.333 -17 -102l-58 -252h-75l58 249c12.667 50.667 19 90.667 19 120z" />
    <glyph glyph-name="n" unicode="n" horiz-adv-x="498" 
d="M397 510c38.667 0 68.001 -11.332 88.001 -33.999s30 -52 30 -88s-6.66699 -80.667 -20 -134l-59 -254h-74l58 249c12.667 50.667 19 90.667 19 120c0 50 -22.667 75 -68 75c-20 0 -42.833 -9.33301 -68.5 -28s-46.5 -37.334 -62.5 -56.001l-23 -28l-77 -332h-74l115 500
h73l-18 -87c6 7.33301 13.833 16.333 23.5 27s28.667 25 57 43s55.166 27 80.499 27z" />
    <glyph glyph-name="o" unicode="o" horiz-adv-x="494" 
d="M343 510c115.333 0 172.998 -56.667 172.998 -170c0 -62 -9.83301 -119.333 -29.5 -172s-49.167 -95.5 -88.5 -128.5s-84.666 -49.5 -135.999 -49.5c-114 0 -171 54.667 -171 164c0 96 23.833 179.333 71.5 250s107.834 106 180.501 106zM261.998 55
c53.333 0 96.5 28.167 129.5 84.5s49.5 123.5 49.5 201.5c0 32 -8.16699 57.333 -24.5 76s-40.833 28 -73.5 28c-52 0 -94.5 -29.167 -127.5 -87.5s-49.5 -126.5 -49.5 -204.5c0 -65.333 32 -98 96 -98z" />
    <glyph glyph-name="p" unicode="p" horiz-adv-x="499" 
d="M396 510c86.667 0 130.001 -49.001 130.001 -147.001c0 -88 -21.333 -170.333 -64 -247c-20 -37.333 -46.333 -67.666 -79 -90.999s-68.334 -35 -107.001 -35s-76.667 4.66699 -114 14l-20 5l-53 -231h-74l166 722h73l-19 -89c6 7.33301 14 16.5 24 27.5
s29.167 25.667 57.5 44s54.833 27.5 79.5 27.5zM375.001 444.999c-18.667 0 -41.332 -9.83203 -67.999 -29.499s-48.334 -39.5 -65.001 -59.5l-26 -29l-60 -257c43.333 -10 83 -15 119 -15s67.833 17.667 95.5 53s47.667 75.666 60 120.999s18.5 89 18.5 131
c0 56.667 -24.667 85 -74 85z" />
    <glyph glyph-name="q" unicode="q" horiz-adv-x="498" 
d="M217 -10c-42.667 0 -74.832 12.833 -96.499 38.5s-32.5 64.5 -32.5 116.5s9.33301 105.833 28 161.5s47.667 103.5 87 143.5s84.333 60 135 60c48 0 105.333 -6 172 -18l35 -7l-162 -701h-74l70 305c-6 -8 -15.667 -18.667 -29 -32s-26 -24.333 -38 -33
c-32.667 -22.667 -64.334 -34 -95.001 -34zM458.002 430c-42.667 10 -81.833 15.001 -117.5 15.001s-67.334 -17 -95.001 -51s-48 -73.833 -61 -119.5s-19.5 -90.5 -19.5 -134.5c0 -56.667 25 -85 75 -85c18.667 0 41.334 9.66699 68.001 29s48.667 38.666 66 57.999l25 30z
" />
    <glyph glyph-name="r" unicode="r" horiz-adv-x="316" 
d="M66 0l116 500h74l-18 -74c62 44.667 122.333 73 181 85l-20 -77c-36 -9.33301 -84.333 -29.333 -145 -60l-30 -15l-83 -359h-75z" />
    <glyph glyph-name="s" unicode="s" horiz-adv-x="429" 
d="M470 431c-63.333 9.33301 -114.167 14 -152.5 14s-67.833 -9.5 -88.5 -28.5s-31 -41.833 -31 -68.5c0 -16 6 -28 18 -36s39.833 -17.667 83.5 -29s75.834 -24.166 96.501 -38.499s31 -38.5 31 -72.5c0 -58.667 -20.333 -103.667 -61 -135s-93 -47 -157 -47
c-42.667 0 -87.667 6 -135 18l-23 5l14 58c61.333 -10.667 112.166 -16 152.499 -16s72.5 8.66699 96.5 26s36 42.666 36 75.999c0 18.667 -6.33301 31.834 -19 39.501s-40.167 16.667 -82.5 27s-73.833 22.833 -94.5 37.5s-31 37.667 -31 69
c0 53.333 18.667 96.666 56 129.999s84.333 50 141 50c50 0 97.333 -5.33301 142 -16l23 -5z" />
    <glyph glyph-name="t" unicode="t" horiz-adv-x="318" 
d="M191 101c0 -30.667 16.667 -46 50 -46l77 6l-5 -57c-34.667 -9.33301 -67.667 -14 -99 -14s-56 8.33301 -74 25s-27 39 -27 67s5.33301 63.333 16 106l58 247h-66l17 65h65l35 148h75l-36 -148h140l-16 -65h-140l-58 -251c-8 -32 -12 -59.667 -12 -83z" />
    <glyph glyph-name="u" unicode="u" horiz-adv-x="498" 
d="M216 -10c-38.667 0 -68.001 11.332 -88.001 33.999s-30 52 -30 88s6.66699 80.667 20 134l59 254h74l-58 -249c-12.667 -50.667 -19 -90.667 -19 -120c0 -50 22.667 -75 68 -75c20 0 42.833 9.33301 68.5 28s46.167 37.334 61.5 56.001l24 28l77 332h74l-115 -500h-73
l18 87c-6 -7.33301 -13.833 -16.333 -23.5 -27s-28.667 -25 -57 -43s-55.166 -27 -80.499 -27z" />
    <glyph glyph-name="v" unicode="v" horiz-adv-x="454" 
d="M139 500h74l8 -436h31l217 436h77l-254 -500h-140z" />
    <glyph glyph-name="w" unicode="w" horiz-adv-x="731" 
d="M144 500h75l-9 -435h19l205 425h88l4 -425h19l196 435h76l-227 -500h-133l-3 393l-187 -393h-130z" />
    <glyph glyph-name="x" unicode="x" horiz-adv-x="419" 
d="M137 500h77l67 -197l156 197h80l-209 -256l89 -244h-78l-65 193l-154 -193h-81l206 250z" />
    <glyph glyph-name="y" unicode="y" horiz-adv-x="454" 
d="M139 500h74l8 -436h30l218 436h77l-365 -721h-76l115 221h-68z" />
    <glyph glyph-name="z" unicode="z" horiz-adv-x="418" 
d="M138 435l16 65h341l-14 -64l-341 -371h255l-15 -65h-342l12 64l340 371h-252z" />
    <glyph glyph-name="braceleft" unicode="{" horiz-adv-x="313" 
d="M230 222c0 -12 -8 -45.668 -24 -101.001s-24 -92.333 -24 -111c0 -46 29.667 -69 89 -69l-19 -68c-96 2 -144 40.333 -144 115c0 20.667 7.83301 59 23.5 115s23.5 91.667 23.5 107c0 32 -24 57 -72 75l14 59c43.333 11.333 72.5 25 87.5 41s26.167 40.667 33.5 74
c2 8.66699 5 23.667 9 45c10 55.333 16.667 87 20 95c16.667 53.333 41.167 91.666 73.5 114.999s78.833 36.333 139.5 39l-12 -68c-42.667 -2.66699 -74.167 -13.167 -94.5 -31.5s-34.833 -46.166 -43.5 -83.499c-0.666992 -4 -4.16699 -23.167 -10.5 -57.5l-11.5 -62.5
c-9.33301 -41.333 -22.833 -71.666 -40.5 -90.999s-44.5 -35 -80.5 -47c42 -19.333 63 -49.333 63 -90z" />
    <glyph glyph-name="bar" unicode="|" horiz-adv-x="312" 
d="M176 -222v940h74v-940h-74z" />
    <glyph glyph-name="braceright" unicode="}" horiz-adv-x="312" 
d="M226 401c0 12.667 8 46.668 24 102.001s24 92 24 110c0 46 -29.667 69 -89 69l19 68c96 -2 144 -40.333 144 -115c0 -20.667 -7.83301 -59 -23.5 -115s-23.5 -92 -23.5 -108c0 -31.333 24 -56 72 -74l-14 -59c-43.333 -11.333 -72.5 -25 -87.5 -41
s-26.167 -40.667 -33.5 -74c-2 -8.66699 -5 -24 -9 -46c-10 -54.667 -16.667 -86 -20 -94c-16.667 -53.333 -41.167 -91.666 -73.5 -114.999s-78.833 -36.333 -139.5 -39l12 68c42.667 2.66699 74.167 13.167 94.5 31.5s34.833 46.166 43.5 83.499
c0.666992 4 4.16699 23.167 10.5 57.5l11.5 62.5c9.33301 41.333 22.833 71.666 40.5 90.999s44.5 35 80.5 47c-42 19.333 -63 49.333 -63 90z" />
    <glyph glyph-name="asciitilde" unicode="~" 
d="M439 195c-18 0 -52.1689 10.333 -102.502 31s-81.666 31 -93.999 31s-27.333 -3.83301 -45 -11.5s-32.167 -15.5 -43.5 -23.5l-17 -12l-10 62c41.333 35.333 80 53 116 53c19.333 0 53.833 -10.167 103.5 -30.5s80.834 -30.5 93.501 -30.5c24 0 53 11.333 87 34l17 12
l10 -61c-42 -36 -80.333 -54 -115 -54z" />
    <glyph glyph-name="uni00A0" unicode="&#xa0;" horiz-adv-x="220" 
 />
    <glyph glyph-name="exclamdown" unicode="&#xa1;" horiz-adv-x="178" 
d="M187 270l-106 -470h-77l116 470h67zM240 500l-25 -111h-76l25 111h76z" />
    <glyph glyph-name="cent" unicode="&#xa2;" 
d="M207 55.5c-20 12.333 -33.5 28.334 -40.5 48.001s-10.5 35.5 -10.5 47.5s0.166992 24.333 0.5 37s3.83301 32.667 10.5 60c18 69.333 45.667 122 83 158s82.333 55 135 57l28 119h63l-29 -120l92 -10l-20 -66c-54 4.66699 -93 7 -117 7c-83.333 0 -137 -48.333 -161 -145
c-6.66699 -29.333 -10 -54 -10 -74s8.5 -36.167 25.5 -48.5s43.167 -18.5 78.5 -18.5l124 6l-14 -65c-38 -4.66699 -70.333 -7.33398 -97 -8.00098l-28 -120h-63l27 116c-31.333 0.666992 -57 7.16699 -77 19.5z" />
    <glyph glyph-name="sterling" unicode="&#xa3;" 
d="M591 604c-46.667 5.33301 -82.002 8.00098 -106.002 8.00098s-41.667 -2.66699 -53 -8s-20.333 -11.333 -27 -18s-13 -17.667 -19 -33c-7.33301 -18 -16.666 -47.667 -27.999 -89l-10 -43h194l-15 -66h-194l-66 -290h138l76 17l-1 -64l-78 -18h-322l15 65h96l65 290h-75
l16 66h75l12 51c17.333 73.333 38.833 126.166 64.5 158.499s67.167 48.5 124.5 48.5c28.667 0 66.334 -4.33301 113.001 -13l21 -4z" />
    <glyph glyph-name="currency" unicode="&#xa4;" 
d="M338 71c-36 0 -69.333 10 -100 30l-70 -71l-52 53l70 70c-19.333 30 -29 63 -29 99s9.66699 69 29 99l-70 70l52 53l70 -71c30.667 19.333 64 29 100 29s69 -9.66699 99 -29l70 71l53 -53l-71 -71c19.333 -30 29 -62.833 29 -98.5s-9.66699 -68.5 -29 -98.5l71 -70
l-53 -53l-70 71c-30 -20 -63 -30 -99 -30zM338 142c30.667 0 56.667 10.667 78 32s32 47.333 32 78s-10.667 56.667 -32 78s-47.333 32 -78 32s-56.667 -10.667 -78 -32s-32 -47.333 -32 -78s10.667 -56.667 32 -78s47.333 -32 78 -32z" />
    <glyph glyph-name="yen" unicode="&#xa5;" 
d="M141 310l16 67h125l-114 284h82l113 -279l231 279h99l-239 -284h122l-15 -67h-160l-14 -17l-15 -66h170l-16 -67h-170l-37 -160h-76l37 160h-174l16 67h173l16 67l-4 16h-166z" />
    <glyph glyph-name="brokenbar" unicode="&#xa6;" horiz-adv-x="318" 
d="M179 718h74v-374h-74v374zM179 156h74v-378h-74v378z" />
    <glyph glyph-name="section" unicode="&#xa7;" horiz-adv-x="470" 
d="M528 567c-66 9.33301 -117.666 14.0039 -154.999 14.0039s-67.833 -10.167 -91.5 -30.5s-35.5 -47.833 -35.5 -82.5c0 -12.667 2.16699 -23 6.5 -31s12.5 -14.667 24.5 -20c18.667 -8 45.667 -15.333 81 -22c83.333 -16 125 -53.333 125 -112
c0 -49.333 -26.333 -104 -79 -164c11.333 -14.667 17 -31.334 17 -50.001s-1.66699 -35.834 -5 -51.501s-10.166 -33.667 -20.499 -54s-23.5 -38.5 -39.5 -54.5s-38 -29.5 -66 -40.5s-55.333 -16.5 -82 -16.5c-44.667 0 -94 4 -148 12l-27 4l22 66
c67.333 -9.33301 119.833 -14 157.5 -14s69.167 12.167 94.5 36.5s38 48.666 38 72.999s-6.83301 40.5 -20.5 48.5s-44.334 17 -92.001 27s-81.167 24.167 -100.5 42.5s-29 41.166 -29 68.499s6.66699 54 20 80c21.333 40 43.666 68 66.999 84c-13.333 16 -20 41.333 -20 76
c0 49.333 20.167 94 60.5 134s95.5 60 165.5 60c40.667 0 82.667 -4 126 -12l24 -5zM180.001 242.004c0 -18.667 6.33301 -32.832 19 -42.499s35.334 -17.5 68.001 -23.5c42 -9.33301 71 -18.333 87 -27c6 4.66699 16.167 20.667 30.5 48s21.5 49.666 21.5 66.999
s-7 31 -21 41s-40.333 18.667 -79 26s-62.334 14.333 -71.001 21c-36.667 -46 -55 -82.667 -55 -110z" />
    <glyph glyph-name="dieresis" unicode="&#xa8;" horiz-adv-x="680" 
d="M242 620l21 93h62l-22 -93h-61zM425 620l20 93h62l-22 -93h-60z" />
    <glyph glyph-name="copyright" unicode="&#xa9;" horiz-adv-x="644" 
d="M234 240c-50 52.667 -75 117.5 -75 194.5s25 141.667 75 194s113 78.5 189 78.5s138.833 -26.333 188.5 -79s74.5 -117.5 74.5 -194.5s-24.833 -141.667 -74.5 -194s-112.5 -78.5 -188.5 -78.5s-139 26.333 -189 79zM203 434c0 -64 20.832 -118.167 62.499 -162.5
s93.834 -66.5 156.501 -66.5s115 22.167 157 66.5s63 98.5 63 162.5s-21 118.333 -63 163s-94.167 67 -156.5 67s-114.5 -22.333 -156.5 -67s-63 -99 -63 -163zM426.999 591c25.333 0 50.666 -3.33301 75.999 -10l-3 -53c-26 4 -50.5 6 -73.5 6s-38.333 -7.5 -46 -22.5
s-11.5 -40.333 -11.5 -76s4.33301 -61.667 13 -78s24.334 -24.5 47.001 -24.5l71 7l3 -52c-24.667 -8 -50.667 -12 -78 -12c-42.667 0 -72.667 12.5 -90 37.5s-26 65 -26 120s8.66699 95 26 120s48 37.5 92 37.5z" />
    <glyph glyph-name="ordfeminine" unicode="&#xaa;" horiz-adv-x="344" 
d="M348 577c0 17.333 -13.332 25.9961 -39.999 25.9961l-116 -7l8 48c49.333 10 91.833 15 127.5 15s60.5 -7.33301 74.5 -22c9.33301 -9.33301 14 -21.166 14 -35.499s-1.33301 -28.166 -4 -41.499l-32 -138c4 -8 12.333 -13.333 25 -16l-13 -49c-25.333 0 -43 2 -53 6
s-18 10.667 -24 20c-40.667 -17.333 -76.334 -26 -107.001 -26s-51.667 8.33301 -63 25c-7.33301 10.667 -11 21.834 -11 33.501s1.33301 22.834 4 33.501c7.33301 28 19.833 48.833 37.5 62.5s43.5 21.5 77.5 23.5l87 6l6 22c1.33301 5.33301 2 10 2 14zM202.001 435.996
c0 -16.667 9.66699 -25 29 -25c18.667 0 42 4.33301 70 13l13 4l16 67l-75 -5c-28.667 -2 -45.667 -15.333 -51 -40c-1.33301 -5.33301 -2 -10 -2 -14z" />
    <glyph glyph-name="guillemotleft" unicode="&#xab;" horiz-adv-x="446" 
d="M497 409l-22 -77l-131 -87l88 -96l-20 -69l-142 149l14 38zM307 409l-22 -77l-131 -87l88 -96l-20 -69l-142 149l14 38z" />
    <glyph glyph-name="logicalnot" unicode="&#xac;" 
d="M123 342h428v-225h-70v157h-358v68z" />
    <glyph glyph-name="registered" unicode="&#xae;" horiz-adv-x="644" 
d="M234 240c-50 52.667 -75.001 117.5 -75.001 194.5s25 141.667 75 194s113 78.5 189 78.5s138.833 -26.333 188.5 -79s74.5 -117.5 74.5 -194.5s-24.667 -141.667 -74 -194s-112.166 -78.5 -188.499 -78.5s-139.5 26.333 -189.5 79zM265.999 597
c-42 -44.667 -63 -98.832 -63 -162.499s21 -117.834 63 -162.501s94.167 -67 156.5 -67s114.5 22.167 156.5 66.5s63 98.5 63 162.5s-21 118.333 -63 163s-94.167 67 -156.5 67s-114.5 -22.333 -156.5 -67zM369.999 389.002v-106.999h-57v303h110
c37.333 0 65.5 -7.33301 84.5 -22s28.5 -36.834 28.5 -66.501s-3.66699 -51.667 -11 -66s-20.333 -25.5 -39 -33.5l55 -115h-62l-49 107h-60zM369.999 538.003v-102h59c34 0 51 17 51 51s-20.667 51 -62 51h-48z" />
    <glyph glyph-name="macron" unicode="&#xaf;" horiz-adv-x="439" 
d="M229 639l14 59h275l-15 -59h-274z" />
    <glyph glyph-name="degree" unicode="&#xb0;" 
d="M306 458.5c-26 25.667 -39 59.667 -39 102s13 76.5 39 102.5s60.167 39 102.5 39s76.5 -13 102.5 -39s39 -60.167 39 -102.5s-13 -76.333 -39 -102s-60.167 -38.5 -102.5 -38.5s-76.5 12.833 -102.5 38.5zM317 561c0 -28 8.33301 -50.5 25 -67.5
s38.834 -25.5 66.501 -25.5s50.167 8.5 67.5 25.5s26 39.333 26 67s-8.66699 50.167 -26 67.5s-39.833 26 -67.5 26s-49.834 -8.5 -66.501 -25.5s-25 -39.5 -25 -67.5z" />
    <glyph glyph-name="plusminus" unicode="&#xb1;" 
d="M103 293v68h188v126h70v-126h191v-68h-191v-127h-70v127h-188zM103 106h449v-68h-449v68z" />
    <glyph glyph-name="twosuperior" unicode="&#xb2;" horiz-adv-x="280" 
d="M327 800c54.667 0 81.999 -19.335 81.999 -58.002c0 -51.333 -31.667 -100 -95 -146l-76 -60h127l-14 -58h-210l14 56l110 86c41.333 32.667 65 60.334 71 83.001c3.33301 12.667 1.33301 21.834 -6 27.501s-18.666 8.5 -33.999 8.5l-87 -10l12 59c42 8 77.333 12 106 12
z" />
    <glyph glyph-name="threesuperior" unicode="&#xb3;" horiz-adv-x="280" 
d="M413 742c0 -41.333 -20.667 -75.001 -62 -101.001c15.333 -5.33301 24.666 -11.5 27.999 -18.5s5 -14.833 5 -23.5s-1.33301 -20 -4 -34c-16.667 -64.667 -60.667 -97 -132 -97c-29.333 0 -60.666 2.66699 -93.999 8l-16 2l18 56c37.333 -4.66699 71.333 -7 102 -7
s49.334 13.667 56.001 41c1.33301 6 2 11 2 15c0 18 -12.333 27 -37 27h-66l13 54h65c9.33301 0 19.166 4.33301 29.499 13s17 18.834 20 30.501s1.5 20.167 -4.5 25.5s-17 8 -33 8l-93 -7l10 56c41.333 6.66699 76.333 10 105 10c58.667 0 88 -19.333 88 -58z" />
    <glyph glyph-name="acute" unicode="&#xb4;" horiz-adv-x="546" 
d="M279 596l-7 58l228 94l7 -66z" />
    <glyph glyph-name="mu" unicode="&#xb5;" 
d="M207 131c0 -50 22.666 -75.001 67.999 -75.001c20 0 42.833 9.33301 68.5 28s46.5 37.334 62.5 56.001l23 28l77 332h74l-115 -500h-73l18 87c-6 -7.33301 -13.833 -16.333 -23.5 -27s-28.667 -25 -57 -43s-56.666 -27 -84.999 -27s-52.5 8 -72.5 24l-55 -236h-74
l167 722h74l-52 -222h1l-18 -78c-5.33301 -25.333 -8 -48.333 -8 -69z" />
    <glyph glyph-name="paragraph" unicode="&#xb6;" horiz-adv-x="557" 
d="M145 473c0 56.667 21.499 108.666 64.499 155.999s96.167 71 159.5 71h310l-14 -64h-69l-151 -636h-63l151 636h-109l-152 -636h-64l81 332c-49.333 0.666992 -85.666 14.334 -108.999 41.001s-35 60 -35 100z" />
    <glyph glyph-name="periodcentered" unicode="&#xb7;" horiz-adv-x="170" 
d="M103 245l26 117h77l-26 -117h-77z" />
    <glyph glyph-name="cedilla" unicode="&#xb8;" horiz-adv-x="791" 
d="M418 -45c56.667 0 84.998 -18.334 84.998 -55.001c0 -7.33301 -1 -15.333 -3 -24c-12.667 -58 -48.667 -87 -108 -87c-28.667 0 -52 1.66699 -70 5l-10 2l13 51c24.667 -2 45.334 -3 62.001 -3c27.333 0 44.333 12 51 36c3.33301 12.667 1.83301 21.334 -4.5 26.001
s-16.166 7 -29.499 7h-39l21 92h40l-13 -50h5z" />
    <glyph glyph-name="onesuperior" unicode="&#xb9;" horiz-adv-x="280" 
d="M202 720l119 70h60l-77 -312h-64l60 242l-80 -47z" />
    <glyph glyph-name="ordmasculine" unicode="&#xba;" horiz-adv-x="341" 
d="M321 659c29.333 0 53.666 -6.16699 72.999 -18.5s30 -31.166 32 -56.499c1.33301 -6.66699 2 -16.167 2 -28.5s-2.66699 -28.5 -8 -48.5c-12 -53.333 -31.5 -92 -58.5 -116s-60.833 -36 -101.5 -36c-76 0 -114 32.667 -114 98c0 17.333 2.66699 36.666 8 57.999
c12.667 52.667 32.334 90.5 59.001 113.5s62.667 34.5 108 34.5zM264 415c24 0 42.833 7 56.5 21s23.667 34.167 30 60.5s9.5 46.5 9.5 60.5c0 28.667 -17 43 -51 43c-24 0 -42.667 -6.5 -56 -19.5s-23.333 -32.667 -30 -59s-10 -45.833 -10 -58.5c0 -32 17 -48 51 -48z" />
    <glyph glyph-name="guillemotright" unicode="&#xbb;" horiz-adv-x="480" 
d="M286 80l22 77l131 87l-88 96l20 69l142 -149l-14 -38zM63 80l22 77l131 87l-88 96l20 69l142 -149l-14 -38z" />
    <glyph glyph-name="onequarter" unicode="&#xbc;" horiz-adv-x="594" 
d="M178 720l119 70h60l-77 -312h-64l60 242l-80 -47zM178 -10l-70 25l427 692l70 -26zM484 0l11 48h-141l13 55l122 209h72l-124 -205h73l28 88h58l-23 -88h27l-14 -59h-27l-12 -48h-63z" />
    <glyph glyph-name="onehalf" unicode="&#xbd;" horiz-adv-x="617" 
d="M178 720l119 70h60l-77 -312h-64l60 242l-80 -47zM178 -10l-70 25l427 692l70 -26zM566 322c54.667 0 81.999 -19.335 81.999 -58.002c0 -51.333 -31.667 -100 -95 -146l-76 -60h127l-14 -58h-210l14 56l110 86c41.333 32.667 65 60.334 71 83.001
c3.33301 12.667 1.33301 21.834 -6 27.501s-18.666 8.5 -33.999 8.5l-87 -10l12 59c42 8 77.333 12 106 12z" />
    <glyph glyph-name="threequarters" unicode="&#xbe;" horiz-adv-x="609" 
d="M409 742c0 -41.333 -20.667 -75.001 -62 -101.001c15.333 -5.33301 24.666 -11.5 27.999 -18.5s5 -14.833 5 -23.5s-1.33301 -20 -4 -34c-16.667 -64.667 -60.667 -97 -132 -97c-29.333 0 -60.666 2.66699 -93.999 8l-16 2l18 56c37.333 -4.66699 71.333 -7 102 -7
s49.334 13.667 56.001 41c1.33301 6 2 11 2 15c0 18 -12.333 27 -37 27h-66l13 54h65c9.33301 0 19.166 4.33301 29.499 13s17 18.834 20 30.501s1.5 20.167 -4.5 25.5s-17 8 -33 8l-93 -7l10 56c41.333 6.66699 76.333 10 105 10c58.667 0 88 -19.333 88 -58zM194 -10.001
l-70 25l427 692l70 -26zM501 -0.000976562l11 48h-141l13 55l122 209h72l-124 -205h73l28 88h58l-23 -88h27l-14 -59h-27l-12 -48h-63z" />
    <glyph glyph-name="questiondown" unicode="&#xbf;" horiz-adv-x="407" 
d="M23 -70c0 47.333 10.667 85.5 32 114.5s65.333 69.167 132 120.5c46 35.333 72 69 78 101l8 39h71c-0.666992 -22 -3 -42.667 -7 -62c-7.33301 -40.667 -41 -84 -101 -130c-53.333 -42 -88.833 -74.167 -106.5 -96.5s-26.5 -49.5 -26.5 -81.5
c0 -45.333 33.667 -68 101 -68c36 0 76.667 4.33301 122 13l22 5l-6 -61c-58.667 -16.667 -110 -25 -154 -25c-110 0 -165 43.667 -165 131zM386 500l-25 -116h-77l26 116h76z" />
    <glyph glyph-name="Agrave" unicode="&#xc0;" horiz-adv-x="554" 
d="M363 930l185 -94l-34 -56l-188 86zM24 0l345 692h149l14 -692h-76l-6 177h-259l-89 -177h-78zM414 624l-191 -380h228l-7 380h-30z" />
    <glyph glyph-name="Aacute" unicode="&#xc1;" horiz-adv-x="554" 
d="M388 785l-9 57l228 94l9 -65zM24 0l345 692h149l14 -692h-76l-6 177h-259l-89 -177h-78zM414 624l-191 -380h228l-7 380h-30z" />
    <glyph glyph-name="Acircumflex" unicode="&#xc2;" horiz-adv-x="554" 
d="M303 793l164 138h41l96 -138h-69l-54 81l-96 -81h-82zM24 0l345 692h149l14 -692h-76l-6 177h-259l-89 -177h-78zM414 624l-191 -380h228l-7 380h-30z" />
    <glyph glyph-name="Atilde" unicode="&#xc3;" horiz-adv-x="554" 
d="M530 804c-15.333 0 -40.168 9.33301 -74.501 28s-55.5 28 -63.5 28c-15.333 0 -39.666 -12 -72.999 -36l-17 -13l-2 54c44.667 40 79.667 60 105 60c18 0 43.833 -9.16699 77.5 -27.5s54.167 -27.5 61.5 -27.5c12.667 0 35 11.333 67 34l16 12l3 -53
c-42 -39.333 -75.333 -59 -100 -59zM23.998 0l345 692h149l14 -692h-76l-6 177h-259l-89 -177h-78zM413.998 624l-191 -380h228l-7 380h-30z" />
    <glyph glyph-name="Adieresis" unicode="&#xc4;" horiz-adv-x="554" 
d="M341 814l21 93h62l-23 -93h-60zM528 814l22 93h62l-23 -93h-61zM24 0l345 692h149l14 -692h-76l-6 177h-259l-89 -177h-78zM414 624l-191 -380h228l-7 380h-30z" />
    <glyph glyph-name="Aring" unicode="&#xc5;" horiz-adv-x="554" 
d="M358 669c-8 10.667 -12.002 22.333 -12.002 35s1.33301 24.667 4 36c8.66699 33.333 24.334 58.333 47.001 75s49.834 25 81.501 25s54.834 -8.33301 69.501 -25c10 -10.667 15 -23 15 -37s-1.33301 -26.667 -4 -38c-8.66699 -30.667 -22.334 -54 -41.001 -70l14 -670
h-76l-6 177h-259l-89 -177h-78zM413.998 623.999l-191 -380h228l-7 380h-30zM399.998 739.999c-1.33301 -4.66699 -1.99805 -10.001 -1.99805 -16.001s2.66699 -12.667 8 -20s15.666 -11.333 30.999 -12h10c33.333 1.33301 53.666 17.333 60.999 48
c0.666992 4.66699 1 10.334 1 17.001s-3.33301 13.5 -10 20.5s-17.667 10.5 -33 10.5c-36 0 -58 -16 -66 -48z" />
    <glyph glyph-name="AE" unicode="&#xc6;" horiz-adv-x="780" 
d="M348 0l41 177h-201l-90 -177h-73l345 696h530l-15 -72l-317 2l-57 -240h260l-15 -69h-261l-58 -245h315l-15 -72h-389zM408 624l-187 -377h185l90 377h-88z" />
    <glyph glyph-name="Ccedilla" unicode="&#xc7;" horiz-adv-x="504" 
d="M296 -45c56.667 0 84.9961 -18.334 84.9961 -55.001c0 -7.33301 -1 -15.333 -3 -24c-12.667 -58 -48.667 -87 -108 -87c-28.667 0 -52 1.66699 -70 5l-10 2l13 51c24.667 -2 45.334 -3 62.001 -3c27.333 0 44.333 12 51 36c3.33301 12.667 1.83301 21.334 -4.5 26.001
s-16.166 7 -29.499 7h-39l18 80c-99.333 14 -149 79 -149 195c0 118.667 27.333 230.667 82 336c26.667 52 63.167 94.667 109.5 128s98.833 50 157.5 50c44 0 91.333 -6 142 -18l24 -5l-17 -60c-51.333 10 -100 15 -146 15s-86.333 -13.833 -121 -41.5
s-62.667 -63.167 -84 -106.5c-44.667 -92 -67 -190 -67 -294c0 -45.333 9.83301 -79 29.5 -101s50.834 -33 93.501 -33c50.667 0 97.334 4 140.001 12l23 5l-5 -63c-59.333 -14.667 -115.333 -22 -168 -22h-5l-9 -35h5z" />
    <glyph glyph-name="Egrave" unicode="&#xc8;" horiz-adv-x="505" 
d="M369 930l185 -94l-34 -56l-188 86zM78 0l159 692h386l-16 -68h-309l-55 -238h254l-16 -68h-253l-58 -250h309l-15 -68h-386z" />
    <glyph glyph-name="Eacute" unicode="&#xc9;" horiz-adv-x="505" 
d="M377 785l-9 57l228 94l9 -65zM78 0l159 692h386l-16 -68h-309l-55 -238h254l-16 -68h-253l-58 -250h309l-15 -68h-386z" />
    <glyph glyph-name="Ecircumflex" unicode="&#xca;" horiz-adv-x="505" 
d="M342 791l164 138h41l96 -138h-69l-54 81l-96 -81h-82zM78 0l159 692h386l-16 -68h-309l-55 -238h254l-16 -68h-253l-58 -250h309l-15 -68h-386z" />
    <glyph glyph-name="Edieresis" unicode="&#xcb;" horiz-adv-x="505" 
d="M332 814l21 93h62l-23 -93h-60zM519 814l22 93h62l-23 -93h-61zM78 0l159 692h386l-16 -68h-309l-55 -238h254l-16 -68h-253l-58 -250h309l-15 -68h-386z" />
    <glyph glyph-name="Igrave" unicode="&#xcc;" horiz-adv-x="232" 
d="M186 930l185 -94l-34 -56l-188 86zM78 0l160 692h76l-160 -692h-76z" />
    <glyph glyph-name="Iacute" unicode="&#xcd;" horiz-adv-x="232" 
d="M239 785l-9 57l228 94l9 -65zM78 0l160 692h76l-160 -692h-76z" />
    <glyph glyph-name="Icircumflex" unicode="&#xce;" horiz-adv-x="232" 
d="M143 791l164 138h41l96 -138h-69l-54 81l-96 -81h-82zM78 0l160 692h76l-160 -692h-76z" />
    <glyph glyph-name="Idieresis" unicode="&#xcf;" horiz-adv-x="232" 
d="M173 819l21 93h62l-23 -93h-60zM360 819l22 93h62l-23 -93h-61zM78 0l160 692h76l-160 -692h-76z" />
    <glyph glyph-name="Eth" unicode="&#xd0;" horiz-adv-x="611" 
d="M321 0h-238.998l71 309h-66l15 77h69l71 306h222c63.333 0 111.166 -16.333 143.499 -49s48.5 -85 48.5 -157c0 -92.667 -17.333 -180 -52 -262c-18 -42.667 -39.667 -80.5 -65 -113.5s-56.833 -59.667 -94.5 -80s-78.834 -30.5 -123.501 -30.5zM560.502 351.5
c10.333 47 15.501 93.332 15.501 138.999s-10 79.334 -30 101.001s-52.333 32.5 -97 32.5h-147l-55 -238h142l-17 -77h-142l-55 -241h157c39.333 0 75.166 14 107.499 42s58 63.5 77 106.5s33.667 88 44 135z" />
    <glyph glyph-name="Ntilde" unicode="&#xd1;" horiz-adv-x="631" 
d="M569 802c-15.333 0 -40.334 9.33301 -75.001 28s-56 28 -64 28c-14.667 0 -38.667 -12 -72 -36l-17 -13l-2 54c44.667 40 79.667 60 105 60c18 0 43.833 -9.16699 77.5 -27.5s53.834 -27.5 60.501 -27.5c13.333 0 36 11.333 68 34l16 12l3 -53
c-42 -39.333 -75.333 -59 -100 -59zM77.999 0l160 692h136l104 -613h19l141 613h75l-160 -692h-131l-108 617h-20l-143 -617h-73z" />
    <glyph glyph-name="Ograve" unicode="&#xd2;" horiz-adv-x="628" 
d="M413 930l185 -94l-34 -56l-188 86zM225 90.5c21.333 -21.667 56.1689 -32.5 104.502 -32.5s88.833 13.333 121.5 40c45.333 37.333 80.166 93.333 104.499 168s36.5 149.334 36.5 224.001c0 50 -11.167 86.5 -33.5 109.5s-56.333 34.5 -102 34.5
s-83.834 -12.333 -114.501 -37c-46 -38 -82.333 -95.667 -109 -173s-40 -146.833 -40 -208.5s10.667 -103.334 32 -125.001zM629.503 239c-28.333 -80.667 -68.5 -142.332 -120.5 -184.999s-113.833 -64 -185.5 -64s-124.5 16.167 -158.5 48.5s-51 88.166 -51 167.499
s13.833 158.333 41.5 237s67.167 141.5 118.5 188.5s112.333 70.5 183 70.5c143.333 0 215 -69 215 -207c0 -90 -14.167 -175.333 -42.5 -256z" />
    <glyph glyph-name="Oacute" unicode="&#xd3;" horiz-adv-x="628" 
d="M225 90.5c21.333 -21.667 56.1689 -32.5 104.502 -32.5s88.833 13.333 121.5 40c45.333 37.333 80.166 93.333 104.499 168s36.5 149.334 36.5 224.001c0 50 -11.167 86.5 -33.5 109.5s-56.333 34.5 -102 34.5s-83.834 -12.333 -114.501 -37
c-46 -38 -82.333 -95.667 -109 -173s-40 -146.833 -40 -208.5s10.667 -103.334 32 -125.001zM629.503 239c-28.333 -80.667 -68.5 -142.332 -120.5 -184.999s-113.833 -64 -185.5 -64s-124.5 16.167 -158.5 48.5s-51 88.166 -51 167.499s13.833 158.333 41.5 237
s67.167 141.5 118.5 188.5s112.333 70.5 183 70.5c143.333 0 215 -69 215 -207c0 -90 -14.167 -175.333 -42.5 -256zM425.003 785.002l-9 57l228 94l9 -65z" />
    <glyph glyph-name="Ocircumflex" unicode="&#xd4;" horiz-adv-x="628" 
d="M225 90.5c21.333 -21.667 56.1689 -32.5 104.502 -32.5s88.833 13.333 121.5 40c45.333 37.333 80.166 93.333 104.499 168s36.5 149.334 36.5 224.001c0 50 -11.167 86.5 -33.5 109.5s-56.333 34.5 -102 34.5s-83.834 -12.333 -114.501 -37
c-46 -38 -82.333 -95.667 -109 -173s-40 -146.833 -40 -208.5s10.667 -103.334 32 -125.001zM629.503 239c-28.333 -80.667 -68.5 -142.332 -120.5 -184.999s-113.833 -64 -185.5 -64s-124.5 16.167 -158.5 48.5s-51 88.166 -51 167.499s13.833 158.333 41.5 237
s67.167 141.5 118.5 188.5s112.333 70.5 183 70.5c143.333 0 215 -69 215 -207c0 -90 -14.167 -175.333 -42.5 -256zM347.003 793.002l164 138h41l96 -138h-69l-54 81l-96 -81h-82z" />
    <glyph glyph-name="Otilde" unicode="&#xd5;" horiz-adv-x="628" 
d="M581 802c-15.333 0 -40.334 9.33301 -75.001 28s-56 28 -64 28c-14.667 0 -38.667 -12 -72 -36l-17 -13l-2 54c44.667 40 79.667 60 105 60c18 0 43.833 -9.16699 77.5 -27.5s53.834 -27.5 60.501 -27.5c13.333 0 36 11.333 68 34l16 12l3 -53
c-42 -39.333 -75.333 -59 -100 -59zM224.999 90.5c21.333 -21.667 56.1689 -32.5 104.502 -32.5s88.833 13.333 121.5 40c45.333 37.333 80.166 93.333 104.499 168s36.5 149.334 36.5 224.001c0 50 -11.167 86.5 -33.5 109.5s-56.333 34.5 -102 34.5
s-83.834 -12.333 -114.501 -37c-46 -38 -82.333 -95.667 -109 -173s-40 -146.833 -40 -208.5s10.667 -103.334 32 -125.001zM629.502 239c-28.333 -80.667 -68.5 -142.332 -120.5 -184.999s-113.833 -64 -185.5 -64s-124.5 16.167 -158.5 48.5s-51 88.166 -51 167.499
s13.833 158.333 41.5 237s67.167 141.5 118.5 188.5s112.333 70.5 183 70.5c143.333 0 215 -69 215 -207c0 -90 -14.167 -175.333 -42.5 -256z" />
    <glyph glyph-name="Odieresis" unicode="&#xd6;" horiz-adv-x="628" 
d="M371 812l21 93h69l-22 -93h-68zM560 812l21 93h68l-21 -93h-68zM225 90.5c21.333 -21.667 56.1689 -32.5 104.502 -32.5s88.833 13.333 121.5 40c45.333 37.333 80.166 93.333 104.499 168s36.5 149.334 36.5 224.001c0 50 -11.167 86.5 -33.5 109.5
s-56.333 34.5 -102 34.5s-83.834 -12.333 -114.501 -37c-46 -38 -82.333 -95.667 -109 -173s-40 -146.833 -40 -208.5s10.667 -103.334 32 -125.001zM629.503 239c-28.333 -80.667 -68.5 -142.332 -120.5 -184.999s-113.833 -64 -185.5 -64s-124.5 16.167 -158.5 48.5
s-51 88.166 -51 167.499s13.833 158.333 41.5 237s67.167 141.5 118.5 188.5s112.333 70.5 183 70.5c143.333 0 215 -69 215 -207c0 -90 -14.167 -175.333 -42.5 -256z" />
    <glyph glyph-name="multiply" unicode="&#xd7;" 
d="M177 459l160 -162l161 163l48 -48l-162 -161l162 -161l-48 -48l-161 162l-160 -162l-49 48l163 161l-162 160z" />
    <glyph glyph-name="Oslash" unicode="&#xd8;" horiz-adv-x="628" 
d="M159 44c-30 32 -44.999 86.833 -44.999 164.5s13.833 155.834 41.5 234.501s67.167 141.5 118.5 188.5s112.333 70.5 183 70.5c53.333 0 96.666 -9.33301 129.999 -28l84 123l47 -21l-91 -134c30 -35.333 45 -84.333 45 -147c0 -90 -14.167 -175.333 -42.5 -256
s-68.5 -142.334 -120.5 -185.001s-113 -64 -183 -64c-52.667 0 -95 8 -127 24l-88 -128l-42 25zM544.001 611c-21.333 15.333 -52.667 23 -94 23s-77.333 -12.333 -108 -37c-46 -38 -82.333 -95.667 -109 -173s-40 -151.333 -40 -222c0 -38 4.66699 -66.667 14 -86zM242 77
c21.333 -12.667 53.333 -19.001 96 -19.001s80.334 13.333 113.001 40c45.333 37.333 80.166 93.333 104.499 168s36.5 149.334 36.5 224.001c0 34 -4.66699 60.667 -14 80l-163 -241z" />
    <glyph glyph-name="Ugrave" unicode="&#xd9;" horiz-adv-x="594" 
d="M393 930l185 -94l-34 -56l-188 86zM189 144c0 -57.333 42.666 -86.001 127.999 -86.001c52.667 0 92.167 12.333 118.5 37s45.5 63.334 57.5 116.001l111 481h77l-111 -481c-17.333 -76 -46.166 -131.833 -86.499 -167.5s-94.833 -53.5 -163.5 -53.5
c-138 0 -207 48 -207 144c0 32.667 3.66699 63 11 91l108 467h77l-110 -475c-6.66699 -26.667 -10 -51 -10 -73z" />
    <glyph glyph-name="Uacute" unicode="&#xda;" horiz-adv-x="594" 
d="M189 144c0 -57.333 42.666 -86.001 127.999 -86.001c52.667 0 92.167 12.333 118.5 37s45.5 63.334 57.5 116.001l111 481h77l-111 -481c-17.333 -76 -46.166 -131.833 -86.499 -167.5s-94.833 -53.5 -163.5 -53.5c-138 0 -207 48 -207 144c0 32.667 3.66699 63 11 91
l108 467h77l-110 -475c-6.66699 -26.667 -10 -51 -10 -73zM385.999 784.999l-9 57l228 94l9 -65z" />
    <glyph glyph-name="Ucircumflex" unicode="&#xdb;" horiz-adv-x="594" 
d="M189 144c0 -57.333 42.666 -86.001 127.999 -86.001c52.667 0 92.167 12.333 118.5 37s45.5 63.334 57.5 116.001l111 481h77l-111 -481c-17.333 -76 -46.166 -131.833 -86.499 -167.5s-94.833 -53.5 -163.5 -53.5c-138 0 -207 48 -207 144c0 32.667 3.66699 63 11 91
l108 467h77l-110 -475c-6.66699 -26.667 -10 -51 -10 -73zM321.999 792.999l164 138h41l96 -138h-69l-54 81l-96 -81h-82z" />
    <glyph glyph-name="Udieresis" unicode="&#xdc;" horiz-adv-x="594" 
d="M345 812l21 93h69l-22 -93h-68zM534 812l20 93h69l-22 -93h-67zM189 144c0 -57.333 42.666 -86.001 127.999 -86.001c52.667 0 92.167 12.333 118.5 37s45.5 63.334 57.5 116.001l111 481h77l-111 -481c-17.333 -76 -46.166 -131.833 -86.499 -167.5
s-94.833 -53.5 -163.5 -53.5c-138 0 -207 48 -207 144c0 32.667 3.66699 63 11 91l108 467h77l-110 -475c-6.66699 -26.667 -10 -51 -10 -73z" />
    <glyph glyph-name="Yacute" unicode="&#xdd;" horiz-adv-x="493" 
d="M345 785l-9 57l228 94l9 -65zM641 692l-293 -396l-69 -296h-73l70 302l-106 390h78l81 -323l229 323h83z" />
    <glyph glyph-name="Thorn" unicode="&#xde;" horiz-adv-x="549" 
d="M354 194c84.667 0 141 55 169 165c5.33301 20 8 39.333 8 58s-4 35.667 -12 51c-14 28 -45.333 42.333 -94 43l-155 1l-75 -318h159zM442 585c68 0 114.668 -21 140.001 -63c16 -27.333 24 -55.333 24 -84s-2.66699 -55 -8 -79c-16 -73.333 -46.333 -131.5 -91 -174.5
s-100.334 -64.5 -167.001 -64.5h-3h-159l-28 -120h-74l164 696h74l-27 -111h155z" />
    <glyph glyph-name="germandbls" unicode="&#xdf;" horiz-adv-x="539" 
d="M411 728c109.333 0 164 -39.9961 164 -119.996c0 -70.667 -32 -121.334 -96 -152.001c-32 -14.667 -53.833 -26.5 -65.5 -35.5s-17.5 -19.833 -17.5 -32.5s3.83301 -23.167 11.5 -31.5s27 -22 58 -41s52.5 -36 64.5 -51s18 -38.5 18 -70.5
c0 -62.667 -19.333 -112.334 -58 -149.001s-92.334 -55 -161.001 -55c-36 0 -71.667 4.66699 -107 14l-19 5l14 59c44 -8.66699 80 -13 108 -13c46.667 0 82.834 12 108.501 36s38.5 55.667 38.5 95c0 18.667 -4.66699 33.5 -14 44.5s-29.166 25.667 -59.499 44
s-50.833 34.666 -61.5 48.999s-16 33.666 -16 57.999s7.33301 44.833 22 61.5s38.667 33.5 72 50.5s55.666 33 66.999 48s17 34.167 17 57.5c0 42.667 -31.333 64 -94 64c-42.667 0 -74.834 -10.833 -96.501 -32.5s-38.5 -58.5 -50.5 -110.5l-122 -520h-71l125 529
c17.333 73.333 42.833 124.833 76.5 154.5s81.834 44.5 144.501 44.5z" />
    <glyph glyph-name="agrave" unicode="&#xe0;" horiz-adv-x="500" 
d="M217 -10c-85.333 0 -128.002 49.666 -128.002 148.999c0 55.333 8.83301 110.5 26.5 165.5s46.5 103 86.5 144s86.333 61.5 139 61.5c40.667 0 96.334 -6 167.001 -18l38 -7l-76 -325c-9.33301 -37.333 -17.333 -81.333 -24 -132l-4 -26l-73 -3
c9.33301 57.333 15.333 93 18 107c-3.33301 -6 -13.166 -17.5 -29.499 -34.5s-30.833 -30.667 -43.5 -41s-28 -19.666 -46 -27.999s-35 -12.5 -51 -12.5zM458.998 430.999c-46.667 9.33301 -86.833 14 -120.5 14s-64.5 -17.167 -92.5 -51.5s-48.333 -74.333 -61 -120
s-19 -86.5 -19 -122.5s5.66699 -61 17 -75s28.333 -21 51 -21s47.5 10.833 74.5 32.5s49.5 43.5 67.5 65.5l26 33zM337.999 740.999l185 -93l-33 -52l-188 86z" />
    <glyph glyph-name="aacute" unicode="&#xe1;" horiz-adv-x="500" 
d="M217 -10c-85.333 0 -128.002 49.666 -128.002 148.999c0 55.333 8.83301 110.5 26.5 165.5s46.5 103 86.5 144s86.333 61.5 139 61.5c40.667 0 96.334 -6 167.001 -18l38 -7l-76 -325c-9.33301 -37.333 -17.333 -81.333 -24 -132l-4 -26l-73 -3
c9.33301 57.333 15.333 93 18 107c-3.33301 -6 -13.166 -17.5 -29.499 -34.5s-30.833 -30.667 -43.5 -41s-28 -19.666 -46 -27.999s-35 -12.5 -51 -12.5zM458.998 430.999c-46.667 9.33301 -86.833 14 -120.5 14s-64.5 -17.167 -92.5 -51.5s-48.333 -74.333 -61 -120
s-19 -86.5 -19 -122.5s5.66699 -61 17 -75s28.333 -21 51 -21s47.5 10.833 74.5 32.5s49.5 43.5 67.5 65.5l26 33zM339.999 595.999l-7 58l228 94l7 -66z" />
    <glyph glyph-name="acircumflex" unicode="&#xe2;" horiz-adv-x="500" 
d="M241 587l155 151h53l86 -151h-75l-48 86l-89 -86h-82zM217 -10c-85.333 0 -128.002 49.666 -128.002 148.999c0 55.333 8.83301 110.5 26.5 165.5s46.5 103 86.5 144s86.333 61.5 139 61.5c40.667 0 96.334 -6 167.001 -18l38 -7l-76 -325
c-9.33301 -37.333 -17.333 -81.333 -24 -132l-4 -26l-73 -3c9.33301 57.333 15.333 93 18 107c-3.33301 -6 -13.166 -17.5 -29.499 -34.5s-30.833 -30.667 -43.5 -41s-28 -19.666 -46 -27.999s-35 -12.5 -51 -12.5zM458.998 430.999c-46.667 9.33301 -86.833 14 -120.5 14
s-64.5 -17.167 -92.5 -51.5s-48.333 -74.333 -61 -120s-19 -86.5 -19 -122.5s5.66699 -61 17 -75s28.333 -21 51 -21s47.5 10.833 74.5 32.5s49.5 43.5 67.5 65.5l26 33z" />
    <glyph glyph-name="atilde" unicode="&#xe3;" horiz-adv-x="500" 
d="M217 -10c-85.333 0 -128.002 49.666 -128.002 148.999c0 55.333 8.83301 110.5 26.5 165.5s46.5 103 86.5 144s86.333 61.5 139 61.5c40.667 0 96.334 -6 167.001 -18l38 -7l-76 -325c-9.33301 -37.333 -17.333 -81.333 -24 -132l-4 -26l-73 -3
c9.33301 57.333 15.333 93 18 107c-3.33301 -6 -13.166 -17.5 -29.499 -34.5s-30.833 -30.667 -43.5 -41s-28 -19.666 -46 -27.999s-35 -12.5 -51 -12.5zM458.998 430.999c-46.667 9.33301 -86.833 14 -120.5 14s-64.5 -17.167 -92.5 -51.5s-48.333 -74.333 -61 -120
s-19 -86.5 -19 -122.5s5.66699 -61 17 -75s28.333 -21 51 -21s47.5 10.833 74.5 32.5s49.5 43.5 67.5 65.5l26 33zM485.999 613.999c-14 0 -36.668 8 -68.001 24s-50.666 24 -57.999 24c-14 0 -36.333 -10.667 -67 -32l-15 -11l-3 56c41.333 35.333 74.333 53 99 53
c16 0 39.167 -8 69.5 -24s48.833 -24 55.5 -24c12.667 0 33 10 61 30l15 11l5 -56c-38 -34 -69.333 -51 -94 -51z" />
    <glyph glyph-name="adieresis" unicode="&#xe4;" horiz-adv-x="500" 
d="M266 620l21 93h69l-22 -93h-68zM456 620l20 93h69l-22 -93h-67zM217 -10c-85.333 0 -128.002 49.666 -128.002 148.999c0 55.333 8.83301 110.5 26.5 165.5s46.5 103 86.5 144s86.333 61.5 139 61.5c40.667 0 96.334 -6 167.001 -18l38 -7l-76 -325
c-9.33301 -37.333 -17.333 -81.333 -24 -132l-4 -26l-73 -3c9.33301 57.333 15.333 93 18 107c-3.33301 -6 -13.166 -17.5 -29.499 -34.5s-30.833 -30.667 -43.5 -41s-28 -19.666 -46 -27.999s-35 -12.5 -51 -12.5zM458.998 430.999c-46.667 9.33301 -86.833 14 -120.5 14
s-64.5 -17.167 -92.5 -51.5s-48.333 -74.333 -61 -120s-19 -86.5 -19 -122.5s5.66699 -61 17 -75s28.333 -21 51 -21s47.5 10.833 74.5 32.5s49.5 43.5 67.5 65.5l26 33z" />
    <glyph glyph-name="aring" unicode="&#xe5;" horiz-adv-x="500" 
d="M217 -10c-85.333 0 -128.002 49.666 -128.002 148.999c0 55.333 8.83301 110.5 26.5 165.5s46.5 103 86.5 144s86.333 61.5 139 61.5c40.667 0 96.334 -6 167.001 -18l38 -7l-76 -325c-9.33301 -37.333 -17.333 -81.333 -24 -132l-4 -26l-73 -3
c9.33301 57.333 15.333 93 18 107c-3.33301 -6 -13.166 -17.5 -29.499 -34.5s-30.833 -30.667 -43.5 -41s-28 -19.666 -46 -27.999s-35 -12.5 -51 -12.5zM458.998 430.999c-46.667 9.33301 -86.833 14 -120.5 14s-64.5 -17.167 -92.5 -51.5s-48.333 -74.333 -61 -120
s-19 -86.5 -19 -122.5s5.66699 -61 17 -75s28.333 -21 51 -21s47.5 10.833 74.5 32.5s49.5 43.5 67.5 65.5l26 33zM377.999 731.999c20.667 18.667 44.5 28.001 71.5 28.001s45.833 -6.83301 56.5 -20.5s16 -29.834 16 -48.501c0 -5.33301 -0.333008 -10.666 -1 -15.999
c-2.66699 -32.667 -15.167 -59.334 -37.5 -80.001s-48.333 -31 -78 -31s-50.167 9.33301 -61.5 28c-6.66699 11.333 -10 23.333 -10 36c0 43.333 14.667 78 44 104zM403.499 696c-11 -8.66699 -17.666 -17.333 -19.999 -26s-3.5 -16 -3.5 -22s2.83301 -13.333 8.5 -22
s15.167 -13 28.5 -13s25.666 4.66699 36.999 14c15.333 13.333 23 29 23 47c0 7.33301 -2.83301 15 -8.5 23s-15.167 12 -28.5 12s-25.5 -4.33301 -36.5 -13z" />
    <glyph glyph-name="ae" unicode="&#xe6;" horiz-adv-x="749" 
d="M441 145c0 -56.667 30.001 -84.998 90.001 -84.998c48 0 96.333 2 145 6l28 3l-13 -63c-67.333 -10.667 -130 -16 -188 -16s-98.333 18 -121 54c-29.333 -12.667 -65.833 -24.834 -109.5 -36.501s-79.167 -17.5 -106.5 -17.5c-42 0 -71.333 15.333 -88 46
c-10.667 19.333 -16 38.333 -16 57s1.66699 35.667 5 51c8.66699 46 27.667 80 57 102s67.5 36.833 114.5 44.5s98.167 12.5 153.5 14.5c10 29.333 15 53.666 15 72.999c0 39.333 -20 59 -60 59c-48 0 -98.333 -2.66699 -151 -8l-29 -3l12 69c76 10 133.333 15 172 15
c73.333 0 114.666 -24.667 123.999 -74c40.667 49.333 96 74 166 74c94 0 142 -45 144 -135c0 -35.333 -4.66699 -69.666 -14 -102.999l-15 -55l-305 2c-6.66699 -28.667 -10 -53.334 -10 -74.001zM139.001 118.002c0 -40.667 17 -60.998 51 -60.998
c41.333 0 100 12.667 176 38c-2 9.33301 -3 24.666 -3 45.999s5.66699 55.666 17 102.999c-48 -4 -94 -8.66699 -138 -14c-54.667 -8.66699 -88 -36.667 -100 -84c-2 -10 -3 -19.333 -3 -28zM701.001 278.004c7.33301 28 11 48.5 11 61.5v24.5c-2 52 -31.333 78 -88 78
c-41.333 0 -75 -13 -101 -39s-45.667 -67 -59 -123z" />
    <glyph glyph-name="ccedilla" unicode="&#xe7;" horiz-adv-x="406" 
d="M244 -45c56.667 0 84.998 -18.334 84.998 -55.001c0 -7.33301 -1 -15.333 -3 -24c-12.667 -58 -48.667 -87 -108 -87c-28.667 0 -52 1.66699 -70 5l-10 2l13 51c24.667 -2 45.334 -3 62.001 -3c27.333 0 44.333 12 51 36c3.33301 12.667 1.83301 21.334 -4.5 26.001
s-16.166 7 -29.499 7h-39l18 80c-78 12 -117 61.667 -117 149c0 142.667 38.667 247.667 116 315c40.667 35.333 89.667 53 147 53c31.333 0 67 -4.66699 107 -14l18 -5l-19 -58c-43.333 8 -79.333 12 -108 12c-40 0 -74.333 -14.667 -103 -44
c-54 -54 -81 -135.667 -81 -245c0 -33.333 8 -58.5 24 -75.5s42.333 -25.5 79 -25.5c26 0 56.667 3.66699 92 11l20 4l-5 -59c-46 -14 -89.667 -21 -131 -21l-9 -35h5z" />
    <glyph glyph-name="egrave" unicode="&#xe8;" horiz-adv-x="462" 
d="M192 79.5c17.333 -15.667 38.666 -23.5 63.999 -23.5c47.333 0 96 5.33301 146 16l25 6l-6 -59c-59.333 -19.333 -116.333 -29 -171 -29c-106 0 -159 50.667 -159 152c0 92.667 21 175.334 63 248.001c21.333 36 49.833 65 85.5 87s75.834 33 120.501 33
c98.667 0 148 -40.667 148 -122c0 -59.333 -22.333 -100.833 -67 -124.5s-115.667 -35.5 -213 -35.5h-51c-7.33301 -26 -11 -53.333 -11 -82s8.66699 -50.834 26 -66.501zM242 287c68 0 117 7.16699 147 21.5s45 40.5 45 78.5c0 40 -25.667 60 -77 60
c-82 0 -138.667 -53.333 -170 -160h55zM258 741l185 -93l-33 -52l-188 86z" />
    <glyph glyph-name="eacute" unicode="&#xe9;" horiz-adv-x="462" 
d="M192 79.5c17.333 -15.667 38.666 -23.5 63.999 -23.5c47.333 0 96 5.33301 146 16l25 6l-6 -59c-59.333 -19.333 -116.333 -29 -171 -29c-106 0 -159 50.667 -159 152c0 92.667 21 175.334 63 248.001c21.333 36 49.833 65 85.5 87s75.834 33 120.501 33
c98.667 0 148 -40.667 148 -122c0 -59.333 -22.333 -100.833 -67 -124.5s-115.667 -35.5 -213 -35.5h-51c-7.33301 -26 -11 -53.333 -11 -82s8.66699 -50.834 26 -66.501zM242 287c68 0 117 7.16699 147 21.5s45 40.5 45 78.5c0 40 -25.667 60 -77 60
c-82 0 -138.667 -53.333 -170 -160h55zM300 596l-7 58l228 94l7 -66z" />
    <glyph glyph-name="ecircumflex" unicode="&#xea;" horiz-adv-x="462" 
d="M220 587l155 151h53l86 -151h-75l-48 86l-89 -86h-82zM192 79.5c17.333 -15.667 38.666 -23.5 63.999 -23.5c47.333 0 96 5.33301 146 16l25 6l-6 -59c-59.333 -19.333 -116.333 -29 -171 -29c-106 0 -159 50.667 -159 152c0 92.667 21 175.334 63 248.001
c21.333 36 49.833 65 85.5 87s75.834 33 120.501 33c98.667 0 148 -40.667 148 -122c0 -59.333 -22.333 -100.833 -67 -124.5s-115.667 -35.5 -213 -35.5h-51c-7.33301 -26 -11 -53.333 -11 -82s8.66699 -50.834 26 -66.501zM242 287c68 0 117 7.16699 147 21.5
s45 40.5 45 78.5c0 40 -25.667 60 -77 60c-82 0 -138.667 -53.333 -170 -160h55z" />
    <glyph glyph-name="edieresis" unicode="&#xeb;" horiz-adv-x="462" 
d="M253 620l21 93h69l-22 -93h-68zM443 620l20 93h69l-22 -93h-67zM192 79.5c17.333 -15.667 38.666 -23.5 63.999 -23.5c47.333 0 96 5.33301 146 16l25 6l-6 -59c-59.333 -19.333 -116.333 -29 -171 -29c-106 0 -159 50.667 -159 152c0 92.667 21 175.334 63 248.001
c21.333 36 49.833 65 85.5 87s75.834 33 120.501 33c98.667 0 148 -40.667 148 -122c0 -59.333 -22.333 -100.833 -67 -124.5s-115.667 -35.5 -213 -35.5h-51c-7.33301 -26 -11 -53.333 -11 -82s8.66699 -50.834 26 -66.501zM242 287c68 0 117 7.16699 147 21.5
s45 40.5 45 78.5c0 40 -25.667 60 -77 60c-82 0 -138.667 -53.333 -170 -160h55z" />
    <glyph glyph-name="igrave" unicode="&#xec;" horiz-adv-x="206" 
d="M66 0l115 500h75l-116 -500h-74zM112 741l185 -93l-33 -52l-188 86z" />
    <glyph glyph-name="iacute" unicode="&#xed;" horiz-adv-x="206" 
d="M66 0l115 500h75l-116 -500h-74zM194 596l-7 58l228 94l7 -66z" />
    <glyph glyph-name="icircumflex" unicode="&#xee;" horiz-adv-x="206" 
d="M84 587l155 151h53l87 -151h-76l-48 86l-89 -86h-82zM66 0l115 500h75l-116 -500h-74z" />
    <glyph glyph-name="idieresis" unicode="&#xef;" horiz-adv-x="206" 
d="M103 620l22 93h69l-22 -93h-69zM293 620l20 93h69l-22 -93h-67zM66 0l115 500h75l-116 -500h-74z" />
    <glyph glyph-name="eth" unicode="&#xf0;" horiz-adv-x="517" 
d="M564 446c0 -27.333 -3.66504 -57 -10.998 -89c-30.667 -128 -70.334 -221 -119.001 -279s-110.667 -87 -186 -87c-62 0 -107 17 -135 51c-22 27.333 -33 59.666 -33 96.999c0 9.33301 0.666992 19.333 2 30c6.66699 78 34.167 141.167 82.5 189.5
s106.166 72.5 173.499 72.5c21.333 0 44.166 -2.83301 68.499 -8.5s43.5 -11.5 57.5 -17.5l21 -9c2 13.333 3 26 3 38c0 66.667 -31.667 120 -95 160l-114 -74l-28 46l87 56c-32 12.667 -62.667 23.334 -92 32.001l29 67c58.667 -12.667 106.334 -28.667 143.001 -48l105 68
l27 -46l-82 -53c64 -48.667 96 -114 96 -196zM470.002 324c-48 24 -95.001 36 -141.001 36s-84.667 -17.833 -116 -53.5s-48.666 -80.5 -51.999 -134.5c-0.666992 -6.66699 -1 -13 -1 -19c0 -58.667 35 -88 105 -88c92.667 0 161 86.333 205 259z" />
    <glyph glyph-name="ntilde" unicode="&#xf1;" horiz-adv-x="498" 
d="M371 444c-12.667 0 -26.667 -4.00098 -42 -12.001c-36.667 -19.333 -70.667 -48.666 -102 -87.999l-10 -12l-77 -332h-74l115 500h73l-18 -87l22 25c14 16 34.333 32 61 48s52.667 24 78 24c38.667 0 68 -11.333 88 -34s30 -52 30 -88s-6.66699 -80.667 -20 -134
l-59 -254h-74l58 249c12.667 50.667 19 90.667 19 120c0 50 -22.667 75 -68 75zM464 613.999c-14 0 -36.668 8 -68.001 24s-50.666 24 -57.999 24c-14 0 -36.333 -10.667 -67 -32l-15 -11l-3 56c41.333 35.333 74.333 53 99 53c16 0 39.167 -8 69.5 -24s48.833 -24 55.5 -24
c12.667 0 33 10 61 30l15 11l5 -56c-38 -34 -69.333 -51 -94 -51z" />
    <glyph glyph-name="ograve" unicode="&#xf2;" horiz-adv-x="494" 
d="M343 510c115.333 0 172.998 -56.667 172.998 -170c0 -62 -9.83301 -119.333 -29.5 -172s-49.167 -95.5 -88.5 -128.5s-84.666 -49.5 -135.999 -49.5c-114 0 -171 54.667 -171 164c0 96 23.833 179.333 71.5 250s107.834 106 180.501 106zM261.998 55
c53.333 0 96.5 28.167 129.5 84.5s49.5 123.5 49.5 201.5c0 32 -8.16699 57.333 -24.5 76s-40.833 28 -73.5 28c-52 0 -94.5 -29.167 -127.5 -87.5s-49.5 -126.5 -49.5 -204.5c0 -65.333 32 -98 96 -98zM285.998 741l185 -93l-33 -52l-188 86z" />
    <glyph glyph-name="oacute" unicode="&#xf3;" horiz-adv-x="494" 
d="M343 510c115.333 0 172.998 -56.667 172.998 -170c0 -62 -9.83301 -119.333 -29.5 -172s-49.167 -95.5 -88.5 -128.5s-84.666 -49.5 -135.999 -49.5c-114 0 -171 54.667 -171 164c0 96 23.833 179.333 71.5 250s107.834 106 180.501 106zM261.998 55
c53.333 0 96.5 28.167 129.5 84.5s49.5 123.5 49.5 201.5c0 32 -8.16699 57.333 -24.5 76s-40.833 28 -73.5 28c-52 0 -94.5 -29.167 -127.5 -87.5s-49.5 -126.5 -49.5 -204.5c0 -65.333 32 -98 96 -98zM301.998 596l-7 58l228 94l7 -66z" />
    <glyph glyph-name="ocircumflex" unicode="&#xf4;" horiz-adv-x="494" 
d="M235 587l155 151h53l87 -151h-76l-48 86l-89 -86h-82zM343 510c115.333 0 172.998 -56.667 172.998 -170c0 -62 -9.83301 -119.333 -29.5 -172s-49.167 -95.5 -88.5 -128.5s-84.666 -49.5 -135.999 -49.5c-114 0 -171 54.667 -171 164c0 96 23.833 179.333 71.5 250
s107.834 106 180.501 106zM261.998 55c53.333 0 96.5 28.167 129.5 84.5s49.5 123.5 49.5 201.5c0 32 -8.16699 57.333 -24.5 76s-40.833 28 -73.5 28c-52 0 -94.5 -29.167 -127.5 -87.5s-49.5 -126.5 -49.5 -204.5c0 -65.333 32 -98 96 -98z" />
    <glyph glyph-name="otilde" unicode="&#xf5;" horiz-adv-x="494" 
d="M343 510c115.333 0 172.998 -56.667 172.998 -170c0 -62 -9.83301 -119.333 -29.5 -172s-49.167 -95.5 -88.5 -128.5s-84.666 -49.5 -135.999 -49.5c-114 0 -171 54.667 -171 164c0 96 23.833 179.333 71.5 250s107.834 106 180.501 106zM261.998 55
c53.333 0 96.5 28.167 129.5 84.5s49.5 123.5 49.5 201.5c0 32 -8.16699 57.333 -24.5 76s-40.833 28 -73.5 28c-52 0 -94.5 -29.167 -127.5 -87.5s-49.5 -126.5 -49.5 -204.5c0 -65.333 32 -98 96 -98zM448.998 614c-14 0 -36.668 8 -68.001 24s-51 24 -59 24
c-13.333 0 -35.333 -10.667 -66 -32l-15 -11l-3 56c41.333 35.333 74.333 53 99 53c16 0 39.167 -8 69.5 -24s48.833 -24 55.5 -24c12.667 0 33.334 10 62.001 30l14 11l5 -56c-38 -34 -69.333 -51 -94 -51z" />
    <glyph glyph-name="odieresis" unicode="&#xf6;" horiz-adv-x="494" 
d="M343 510c115.333 0 172.998 -56.667 172.998 -170c0 -62 -9.83301 -119.333 -29.5 -172s-49.167 -95.5 -88.5 -128.5s-84.666 -49.5 -135.999 -49.5c-114 0 -171 54.667 -171 164c0 96 23.833 179.333 71.5 250s107.834 106 180.501 106zM261.998 55
c53.333 0 96.5 28.167 129.5 84.5s49.5 123.5 49.5 201.5c0 32 -8.16699 57.333 -24.5 76s-40.833 28 -73.5 28c-52 0 -94.5 -29.167 -127.5 -87.5s-49.5 -126.5 -49.5 -204.5c0 -65.333 32 -98 96 -98zM261.998 620l21 93h62l-22 -93h-61zM444.998 620l20 93h62l-22 -93
h-60z" />
    <glyph glyph-name="divide" unicode="&#xf7;" 
d="M178 281v73h57v48h206v-48h56v-73h-319zM300 30v101h75v-101h-75z" />
    <glyph glyph-name="oslash" unicode="&#xf8;" horiz-adv-x="494" 
d="M344 512c32.667 0 60.998 -5 84.998 -15l67 108l45 -20l-72 -113c32 -28.667 48 -73 48 -133s-9.83301 -116.333 -29.5 -169s-49.167 -95.5 -88.5 -128.5s-84.666 -49.5 -135.999 -49.5c-33.333 0 -62.333 4.66699 -87 14l-72 -117l-44 19l77 122
c-30 26.667 -45 68.667 -45 126c0 96 23.833 179.333 71.5 250s107.834 106 180.501 106zM262.998 57c53.333 0 96.501 28.167 129.501 84.5s49.5 123.5 49.5 201.5c0 24.667 -5 45.667 -15 63l-106 -167l-107 -173c13.333 -6 29.666 -9 48.999 -9zM343.999 447
c-52 0 -94.5 -29.167 -127.5 -87.5s-49.5 -126.5 -49.5 -204.5c0 -24 4.33301 -43.333 13 -58l103 162l109 178c-12.667 6.66699 -28.667 10 -48 10z" />
    <glyph glyph-name="ugrave" unicode="&#xf9;" horiz-adv-x="498" 
d="M288 741l185 -93l-33 -52l-188 86zM216 -10c-38.667 0 -68.001 11.332 -88.001 33.999s-30 52 -30 88s6.66699 80.667 20 134l59 254h74l-58 -249c-12.667 -50.667 -19 -90.667 -19 -120c0 -50 22.667 -75 68 -75c20 0 42.833 9.33301 68.5 28s46.167 37.334 61.5 56.001
l24 28l77 332h74l-115 -500h-73l18 87c-6 -7.33301 -13.833 -16.333 -23.5 -27s-28.667 -25 -57 -43s-55.166 -27 -80.499 -27z" />
    <glyph glyph-name="uacute" unicode="&#xfa;" horiz-adv-x="498" 
d="M216 -10c-38.667 0 -68.001 11.332 -88.001 33.999s-30 52 -30 88s6.66699 80.667 20 134l59 254h74l-58 -249c-12.667 -50.667 -19 -90.667 -19 -120c0 -50 22.667 -75 68 -75c20 0 42.833 9.33301 68.5 28s46.167 37.334 61.5 56.001l24 28l77 332h74l-115 -500h-73
l18 87c-6 -7.33301 -13.833 -16.333 -23.5 -27s-28.667 -25 -57 -43s-55.166 -27 -80.499 -27zM312.999 595.999l-7 58l228 94l7 -66z" />
    <glyph glyph-name="ucircumflex" unicode="&#xfb;" horiz-adv-x="498" 
d="M220 587l155 151h53l86 -151h-75l-48 86l-89 -86h-82zM216 -10c-38.667 0 -68.001 11.332 -88.001 33.999s-30 52 -30 88s6.66699 80.667 20 134l59 254h74l-58 -249c-12.667 -50.667 -19 -90.667 -19 -120c0 -50 22.667 -75 68 -75c20 0 42.833 9.33301 68.5 28
s46.167 37.334 61.5 56.001l24 28l77 332h74l-115 -500h-73l18 87c-6 -7.33301 -13.833 -16.333 -23.5 -27s-28.667 -25 -57 -43s-55.166 -27 -80.499 -27z" />
    <glyph glyph-name="udieresis" unicode="&#xfc;" horiz-adv-x="498" 
d="M248 620l22 93h69l-22 -93h-69zM438 620l20 93h69l-22 -93h-67zM216 -10c-38.667 0 -68.001 11.332 -88.001 33.999s-30 52 -30 88s6.66699 80.667 20 134l59 254h74l-58 -249c-12.667 -50.667 -19 -90.667 -19 -120c0 -50 22.667 -75 68 -75
c20 0 42.833 9.33301 68.5 28s46.167 37.334 61.5 56.001l24 28l77 332h74l-115 -500h-73l18 87c-6 -7.33301 -13.833 -16.333 -23.5 -27s-28.667 -25 -57 -43s-55.166 -27 -80.499 -27z" />
    <glyph glyph-name="yacute" unicode="&#xfd;" horiz-adv-x="454" 
d="M139 500h74l8 -436h30l218 436h77l-365 -721h-76l115 221h-68zM289 596l-7 58l228 94l7 -66z" />
    <glyph glyph-name="thorn" unicode="&#xfe;" horiz-adv-x="483" 
d="M384 510c33.333 0 60.501 -8.16699 81.501 -24.5s34 -36.333 39 -60s7.5 -42.334 7.5 -56.001s-0.333008 -28.667 -1 -45s-5 -38.5 -13 -66.5c-25.333 -94.667 -58.5 -163 -99.5 -205s-96.5 -63 -166.5 -63c-27.333 0 -50.333 1.33301 -69 4s-28 4.33398 -28 5.00098
l-52 -219h-70l221 936h71l-63 -266c51.333 40 98.666 60 141.999 60zM437.001 335c0 69.333 -24.999 104 -74.999 104c-18.667 0 -39.5 -5.33301 -62.5 -16s-41.5 -21 -55.5 -31l-20 -15l-73 -308l94 -10c47.333 0 84.666 16.167 111.999 48.5s50.333 82.833 69 151.5
c7.33301 24 11 49.333 11 76z" />
    <glyph glyph-name="ydieresis" unicode="&#xff;" horiz-adv-x="454" 
d="M228 620l21 93h69l-22 -93h-68zM418 620l20 93h69l-22 -93h-67zM139 500h74l8 -436h30l218 436h77l-365 -721h-76l115 221h-68z" />
    <glyph glyph-name="Amacron" unicode="&#x100;" horiz-adv-x="554" 
d="M315 829l13 60h294l-14 -60h-293zM24 0l345 692h149l14 -692h-76l-6 177h-259l-89 -177h-78zM414 624l-191 -380h228l-7 380h-30z" />
    <glyph glyph-name="amacron" unicode="&#x101;" horiz-adv-x="500" 
d="M217 -10c-85.333 0 -128.002 49.666 -128.002 148.999c0 55.333 8.83301 110.5 26.5 165.5s46.5 103 86.5 144s86.333 61.5 139 61.5c40.667 0 96.334 -6 167.001 -18l38 -7l-76 -325c-9.33301 -37.333 -17.333 -81.333 -24 -132l-4 -26l-73 -3
c9.33301 57.333 15.333 93 18 107c-3.33301 -6 -13.166 -17.5 -29.499 -34.5s-30.833 -30.667 -43.5 -41s-28 -19.666 -46 -27.999s-35 -12.5 -51 -12.5zM458.998 430.999c-46.667 9.33301 -86.833 14 -120.5 14s-64.5 -17.167 -92.5 -51.5s-48.333 -74.333 -61 -120
s-19 -86.5 -19 -122.5s5.66699 -61 17 -75s28.333 -21 51 -21s47.5 10.833 74.5 32.5s49.5 43.5 67.5 65.5l26 33zM284.999 638.999l14 59h275l-15 -59h-274z" />
    <glyph glyph-name="Abreve" unicode="&#x102;" horiz-adv-x="554" 
d="M459 795c-76.667 0 -114.999 32.333 -114.999 97c0 9.33301 1 19.333 3 30h66c-1.33301 -6.66699 -2 -15.167 -2 -25.5s4.5 -19.833 13.5 -28.5s24.333 -13 46 -13s41 6.16699 58 18.5s28.5 28.5 34.5 48.5h66c-24.667 -84.667 -81.334 -127 -170.001 -127zM24.001 0
l345 692h149l14 -692h-76l-6 177h-259l-89 -177h-78zM414.001 624l-191 -380h228l-7 380h-30z" />
    <glyph glyph-name="abreve" unicode="&#x103;" horiz-adv-x="500" 
d="M217 -10c-85.333 0 -128.002 49.666 -128.002 148.999c0 55.333 8.83301 110.5 26.5 165.5s46.5 103 86.5 144s86.333 61.5 139 61.5c40.667 0 96.334 -6 167.001 -18l38 -7l-76 -325c-9.33301 -37.333 -17.333 -81.333 -24 -132l-4 -26l-73 -3
c9.33301 57.333 15.333 93 18 107c-3.33301 -6 -13.166 -17.5 -29.499 -34.5s-30.833 -30.667 -43.5 -41s-28 -19.666 -46 -27.999s-35 -12.5 -51 -12.5zM458.998 430.999c-46.667 9.33301 -86.833 14 -120.5 14s-64.5 -17.167 -92.5 -51.5s-48.333 -74.333 -61 -120
s-19 -86.5 -19 -122.5s5.66699 -61 17 -75s28.333 -21 51 -21s47.5 10.833 74.5 32.5s49.5 43.5 67.5 65.5l26 33zM367.999 730.999c-2 -8 -3.00098 -16.832 -3.00098 -26.499s4.33301 -20.334 13 -32.001s25.667 -17.5 51 -17.5c50.667 0 83.334 25.333 98.001 76h65
c-26.667 -92 -87 -138 -181 -138c-43.333 0 -74.333 12.333 -93 37c-12.667 17.333 -19 39 -19 65c0 11.333 1.33301 23.333 4 36h65z" />
    <glyph glyph-name="Aogonek" unicode="&#x104;" horiz-adv-x="554" 
d="M532 0h-5c-20 -16.667 -39.5 -36.5 -58.5 -59.5s-28.5 -42.167 -28.5 -57.5c0 -13.333 8 -20 24 -20l48 5l-7 -63c-30 -6 -55.667 -9 -77 -9c-46.667 0 -70 21 -70 63c0 22 10.167 46.167 30.5 72.5s42.833 49.5 67.5 69.5l-6 176h-259l-89 -177h-78l345 692h149l14 -688
v-4zM414 624l-191 -380h228l-7 380h-30z" />
    <glyph glyph-name="aogonek" unicode="&#x105;" horiz-adv-x="500" 
d="M335 -204c-46.667 0 -70.001 20.998 -70.001 62.998c0 22.667 11.333 48.167 34 76.5s46.334 52.5 71.001 72.5c1.33301 5.33301 4.16602 21.333 8.49902 48s7.16602 43.334 8.49902 50.001c-3.33301 -6 -13.166 -17.5 -29.499 -34.5s-30.833 -30.667 -43.5 -41
s-28 -19.666 -46 -27.999s-35 -12.5 -51 -12.5c-85.333 0 -128 49.667 -128 149c0 55.333 8.83301 110.5 26.5 165.5s46.5 103 86.5 144s86.333 61.5 139 61.5c40.667 0 96.334 -6 167.001 -18l38 -7l-76 -325c-9.33301 -37.333 -17.333 -81.333 -24 -132l-4 -26h-6
c-19.333 -16 -39 -36 -59 -60s-30 -43.667 -30 -59c0 -13.333 8 -20 24 -20l48 5l-7 -63c-30 -6 -55.667 -9 -77 -9zM458.999 430.998c-46.667 9.33301 -86.833 14 -120.5 14s-64.5 -17.167 -92.5 -51.5s-48.333 -74.333 -61 -120s-19 -86.5 -19 -122.5s5.66699 -61 17 -75
s28.333 -21 51 -21s47.5 10.833 74.5 32.5s49.5 43.5 67.5 65.5l26 33z" />
    <glyph glyph-name="Cacute" unicode="&#x106;" horiz-adv-x="504" 
d="M305 -10c-128.667 0 -193.002 66 -193.002 198c0 118.667 27.333 230.667 82 336c26.667 52 63.167 94.667 109.5 128s98.833 50 157.5 50c44 0 91.333 -6 142 -18l24 -5l-17 -60c-51.333 10 -100 15 -146 15s-86.333 -13.833 -121 -41.5s-62.667 -63.167 -84 -106.5
c-44.667 -92 -67 -190 -67 -294c0 -45.333 9.83301 -79 29.5 -101s50.834 -33 93.501 -33c50.667 0 97.334 4 140.001 12l23 5l-5 -63c-59.333 -14.667 -115.333 -22 -168 -22zM410.998 785l-9 57l228 94l9 -65z" />
    <glyph glyph-name="cacute" unicode="&#x107;" horiz-adv-x="405" 
d="M355 510c31.333 0 66.999 -4.66699 106.999 -14l18 -5l-19 -58c-43.333 8 -79.333 12 -108 12c-40 0 -74.333 -14.667 -103 -44c-54 -54 -81 -135.667 -81 -245c0 -33.333 8 -58.5 24 -75.5s42.333 -25.5 79 -25.5c26 0 56.667 3.66699 92 11l20 4l-5 -59
c-46 -14 -92.167 -21 -138.5 -21s-82.666 13.167 -108.999 39.5s-39.5 63.833 -39.5 112.5c0 142.667 38.667 247.667 116 315c40.667 35.333 89.667 53 147 53zM293.999 596l-7 58l228 94l7 -66z" />
    <glyph glyph-name="Ccircumflex" unicode="&#x108;" horiz-adv-x="504" 
d="M305 -10c-128.667 0 -193.002 66 -193.002 198c0 118.667 27.333 230.667 82 336c26.667 52 63.167 94.667 109.5 128s98.833 50 157.5 50c44 0 91.333 -6 142 -18l24 -5l-17 -60c-51.333 10 -100 15 -146 15s-86.333 -13.833 -121 -41.5s-62.667 -63.167 -84 -106.5
c-44.667 -92 -67 -190 -67 -294c0 -45.333 9.83301 -79 29.5 -101s50.834 -33 93.501 -33c50.667 0 97.334 4 140.001 12l23 5l-5 -63c-59.333 -14.667 -115.333 -22 -168 -22zM334.998 793l164 138h41l96 -138h-69l-54 81l-96 -81h-82z" />
    <glyph glyph-name="ccircumflex" unicode="&#x109;" horiz-adv-x="405" 
d="M355 510c31.333 0 66.999 -4.66699 106.999 -14l18 -5l-19 -58c-43.333 8 -79.333 12 -108 12c-40 0 -74.333 -14.667 -103 -44c-54 -54 -81 -135.667 -81 -245c0 -33.333 8 -58.5 24 -75.5s42.333 -25.5 79 -25.5c26 0 56.667 3.66699 92 11l20 4l-5 -59
c-46 -14 -92.167 -21 -138.5 -21s-82.666 13.167 -108.999 39.5s-39.5 63.833 -39.5 112.5c0 142.667 38.667 247.667 116 315c40.667 35.333 89.667 53 147 53zM225.999 587l155 151h40l87 -151h-69l-48 86l-89 -86h-76z" />
    <glyph glyph-name="Cdotaccent" unicode="&#x10a;" horiz-adv-x="504" 
d="M305 -10c-128.667 0 -193.002 66 -193.002 198c0 118.667 27.333 230.667 82 336c26.667 52 63.167 94.667 109.5 128s98.833 50 157.5 50c44 0 91.333 -6 142 -18l24 -5l-17 -60c-51.333 10 -100 15 -146 15s-86.333 -13.833 -121 -41.5s-62.667 -63.167 -84 -106.5
c-44.667 -92 -67 -190 -67 -294c0 -45.333 9.83301 -79 29.5 -101s50.834 -33 93.501 -33c50.667 0 97.334 4 140.001 12l23 5l-5 -63c-59.333 -14.667 -115.333 -22 -168 -22zM449.998 793l20 90h64l-21 -90h-63z" />
    <glyph glyph-name="cdotaccent" unicode="&#x10b;" horiz-adv-x="405" 
d="M355 510c31.333 0 66.999 -4.66699 106.999 -14l18 -5l-19 -58c-43.333 8 -79.333 12 -108 12c-40 0 -74.333 -14.667 -103 -44c-54 -54 -81 -135.667 -81 -245c0 -33.333 8 -58.5 24 -75.5s42.333 -25.5 79 -25.5c26 0 56.667 3.66699 92 11l20 4l-5 -59
c-46 -14 -92.167 -21 -138.5 -21s-82.666 13.167 -108.999 39.5s-39.5 63.833 -39.5 112.5c0 142.667 38.667 247.667 116 315c40.667 35.333 89.667 53 147 53zM333.999 605l21 89h64l-21 -89h-64z" />
    <glyph glyph-name="Ccaron" unicode="&#x10c;" horiz-adv-x="504" 
d="M305 -10c-128.667 0 -193.002 66 -193.002 198c0 118.667 27.333 230.667 82 336c26.667 52 63.167 94.667 109.5 128s98.833 50 157.5 50c44 0 91.333 -6 142 -18l24 -5l-17 -60c-51.333 10 -100 15 -146 15s-86.333 -13.833 -121 -41.5s-62.667 -63.167 -84 -106.5
c-44.667 -92 -67 -190 -67 -294c0 -45.333 9.83301 -79 29.5 -101s50.834 -33 93.501 -33c50.667 0 97.334 4 140.001 12l23 5l-5 -63c-59.333 -14.667 -115.333 -22 -168 -22zM665.998 929l-157 -137h-47l-98 137h74l58 -82l93 82h77z" />
    <glyph glyph-name="ccaron" unicode="&#x10d;" horiz-adv-x="405" 
d="M392 587h-42l-85 151h69l51 -89l90 89h75zM355 510c31.333 0 66.999 -4.66699 106.999 -14l18 -5l-19 -58c-43.333 8 -79.333 12 -108 12c-40 0 -74.333 -14.667 -103 -44c-54 -54 -81 -135.667 -81 -245c0 -33.333 8 -58.5 24 -75.5s42.333 -25.5 79 -25.5
c26 0 56.667 3.66699 92 11l20 4l-5 -59c-46 -14 -92.167 -21 -138.5 -21s-82.666 13.167 -108.999 39.5s-39.5 63.833 -39.5 112.5c0 142.667 38.667 247.667 116 315c40.667 35.333 89.667 53 147 53z" />
    <glyph glyph-name="Dcaron" unicode="&#x10e;" horiz-adv-x="607" 
d="M317 0h-238.998l160 692h222c63.333 0 111.166 -16.333 143.499 -49s48.5 -85 48.5 -157c0 -92.667 -17.333 -180 -52 -262c-18 -42.667 -39.667 -80.5 -65 -113.5s-56.833 -59.667 -94.5 -80s-78.834 -30.5 -123.501 -30.5zM542.002 591.5
c-20 21.667 -52.332 32.499 -96.999 32.499h-147l-127 -556h157c39.333 0 75.166 14 107.499 42s58 63.5 77 106.5s33.667 88 44 135s15.5 93.333 15.5 139s-10 79.334 -30 101.001zM627.003 928.999l-157 -137h-47l-98 137h74l58 -82l93 82h77z" />
    <glyph glyph-name="dcaron" unicode="&#x10f;" horiz-adv-x="551" 
d="M721 692l-54 -232h-69l55 232h68zM215 -10c-84 0 -126 48.667 -126 146c0 58.667 9.33301 116 28 172s47.667 103.667 87 143s84.333 59 135 59c34 0 71.667 -4.66699 113 -14l20 -4l53 226h75l-167 -718h-72l19 89c-6 -8.66699 -15.833 -19.5 -29.5 -32.5
s-26.5 -23.833 -38.5 -32.5c-32.667 -22.667 -65 -34 -97 -34zM459 430c-44 10 -83.833 15 -119.5 15s-67.167 -17.333 -94.5 -52s-47.333 -75 -60 -121s-19 -91 -19 -135c0 -54.667 24 -82 72 -82c20 0 43.333 9.83301 70 29.5s48.667 39.5 66 59.5l25 29z" />
    <glyph glyph-name="Dcroat" unicode="&#x110;" horiz-adv-x="611" 
d="M321 0h-238.998l71 309h-67l16 77h69l71 306h222c63.333 0 111.166 -16.333 143.499 -49s48.5 -85 48.5 -157c0 -92.667 -17.333 -180 -52 -262c-18 -42.667 -39.667 -80.5 -65 -113.5s-56.833 -59.667 -94.5 -80s-78.834 -30.5 -123.501 -30.5zM560.502 351.5
c10.333 47 15.501 93.332 15.501 138.999s-10 79.334 -30 101.001s-52.333 32.5 -97 32.5h-147l-55 -238h142l-18 -77h-141l-55 -241h157c39.333 0 75.166 14 107.499 42s58 63.5 77 106.5s33.667 88 44 135z" />
    <glyph glyph-name="dcroat" unicode="&#x111;" horiz-adv-x="500" 
d="M215 -10c-84 0 -126 48.667 -126 146c0 58.667 9.33301 116 28 172s47.667 103.667 87 143s84.333 59 135 59c34 0 71.667 -4.66699 113 -14l20 -4l22 97h-144l16 69h145l14 60h75l-14 -60h55l-16 -69h-55l-137 -589h-72l19 89c-6 -8.66699 -15.833 -19.5 -29.5 -32.5
s-26.5 -23.833 -38.5 -32.5c-32.667 -22.667 -65 -34 -97 -34zM459 430c-44 10 -83.833 15 -119.5 15s-67.167 -17.333 -94.5 -52s-47.333 -75 -60 -121s-19 -91 -19 -135c0 -54.667 24 -82 72 -82c20 0 43.333 9.83301 70 29.5s48.667 39.5 66 59.5l25 29z" />
    <glyph glyph-name="Emacron" unicode="&#x112;" horiz-adv-x="505" 
d="M305 823l13 60h294l-14 -60h-293zM78 0l159 692h386l-16 -68h-309l-55 -238h254l-16 -68h-253l-58 -250h309l-15 -68h-386z" />
    <glyph glyph-name="emacron" unicode="&#x113;" horiz-adv-x="462" 
d="M192 79.5c17.333 -15.667 38.666 -23.5 63.999 -23.5c47.333 0 96 5.33301 146 16l25 6l-6 -59c-59.333 -19.333 -116.333 -29 -171 -29c-106 0 -159 50.667 -159 152c0 92.667 21 175.334 63 248.001c21.333 36 49.833 65 85.5 87s75.834 33 120.501 33
c98.667 0 148 -40.667 148 -122c0 -59.333 -22.333 -100.833 -67 -124.5s-115.667 -35.5 -213 -35.5h-51c-7.33301 -26 -11 -53.333 -11 -82s8.66699 -50.834 26 -66.501zM242 287c68 0 117 7.16699 147 21.5s45 40.5 45 78.5c0 40 -25.667 60 -77 60
c-82 0 -138.667 -53.333 -170 -160h55zM255 639l14 59h275l-15 -59h-274z" />
    <glyph glyph-name="Ebreve" unicode="&#x114;" horiz-adv-x="505" 
d="M444 796c-76.667 0 -114.999 32.333 -114.999 97c0 9.33301 1 19.333 3 30h66c-1.33301 -6.66699 -2 -15.167 -2 -25.5s4.5 -19.833 13.5 -28.5s24.333 -13 46 -13s41 6.16699 58 18.5s28.5 28.5 34.5 48.5h66c-24.667 -84.667 -81.334 -127 -170.001 -127zM78.001 0
l159 692h386l-16 -68h-309l-55 -238h254l-16 -68h-253l-58 -250h309l-15 -68h-386z" />
    <glyph glyph-name="ebreve" unicode="&#x115;" horiz-adv-x="462" 
d="M192 79.5c17.333 -15.667 38.666 -23.5 63.999 -23.5c47.333 0 96 5.33301 146 16l25 6l-6 -59c-59.333 -19.333 -116.333 -29 -171 -29c-106 0 -159 50.667 -159 152c0 92.667 21 175.334 63 248.001c21.333 36 49.833 65 85.5 87s75.834 33 120.501 33
c98.667 0 148 -40.667 148 -122c0 -59.333 -22.333 -100.833 -67 -124.5s-115.667 -35.5 -213 -35.5h-51c-7.33301 -26 -11 -53.333 -11 -82s8.66699 -50.834 26 -66.501zM242 287c68 0 117 7.16699 147 21.5s45 40.5 45 78.5c0 40 -25.667 60 -77 60
c-82 0 -138.667 -53.333 -170 -160h55zM335 731c-2 -8 -3.00098 -16.832 -3.00098 -26.499s4.33301 -20.334 13 -32.001s25.667 -17.5 51 -17.5c50.667 0 83.334 25.333 98.001 76h65c-26.667 -92 -87 -138 -181 -138c-43.333 0 -74 12.333 -92 37
c-13.333 17.333 -20 39 -20 65c0 11.333 1.33301 23.333 4 36h65z" />
    <glyph glyph-name="Edotaccent" unicode="&#x116;" horiz-adv-x="505" 
d="M418 830l20 90h64l-21 -90h-63zM78 0l159 692h386l-16 -68h-309l-55 -238h254l-16 -68h-253l-58 -250h309l-15 -68h-386z" />
    <glyph glyph-name="edotaccent" unicode="&#x117;" horiz-adv-x="462" 
d="M192 79.5c17.333 -15.667 38.666 -23.5 63.999 -23.5c47.333 0 96 5.33301 146 16l25 6l-6 -59c-59.333 -19.333 -116.333 -29 -171 -29c-106 0 -159 50.667 -159 152c0 92.667 21 175.334 63 248.001c21.333 36 49.833 65 85.5 87s75.834 33 120.501 33
c98.667 0 148 -40.667 148 -122c0 -59.333 -22.333 -100.833 -67 -124.5s-115.667 -35.5 -213 -35.5h-51c-7.33301 -26 -11 -53.333 -11 -82s8.66699 -50.834 26 -66.501zM242 287c68 0 117 7.16699 147 21.5s45 40.5 45 78.5c0 40 -25.667 60 -77 60
c-82 0 -138.667 -53.333 -170 -160h55zM338 605l21 89h64l-21 -89h-64z" />
    <glyph glyph-name="Eogonek" unicode="&#x118;" horiz-adv-x="505" 
d="M356 -117c0 -13.333 7.99902 -20 23.999 -20l48 5l-7 -63c-30 -6 -55.667 -9 -77 -9c-46.667 0 -70 21 -70 63c0 21.333 9.83301 45 29.5 71s41.834 49.333 66.501 70h-292l159 692h386l-16 -68h-309l-55 -238h254l-16 -68h-253l-58 -250h309l-15 -68h-21
c-20 -16.667 -39.5 -36.5 -58.5 -59.5s-28.5 -42.167 -28.5 -57.5z" />
    <glyph glyph-name="eogonek" unicode="&#x119;" horiz-adv-x="462" 
d="M314 -184c-46.667 0 -70 21.001 -70 63.001c0 32.667 23 71.334 69 116.001c-25.333 -3.33301 -49 -5 -71 -5c-48.667 0 -86 12.667 -112 38s-39 61.833 -39 109.5s5.33301 92.667 16 135s26.5 81.5 47.5 117.5s49.333 65 85 87s75.834 33 120.501 33
c98.667 0 148 -40.667 148 -122c0 -59.333 -22.333 -100.833 -67 -124.5s-115.667 -35.5 -213 -35.5h-51c-7.33301 -26 -11 -53.333 -11 -82s8.66699 -50.834 26 -66.501s38.666 -23.5 63.999 -23.5c47.333 0 96 5.33301 146 16l25 6l-6 -59
c-4.66699 -2 -9.66699 -3.66699 -15 -5c-19.333 -16 -37.5 -34.833 -54.5 -56.5s-25.5 -39.834 -25.5 -54.501c0 -13.333 8 -20 24 -20l48 5l-7 -63c-30 -6 -55.667 -9 -77 -9zM242 287.001c68 0 117 7.16699 147 21.5s45 40.5 45 78.5c0 40 -25.667 60 -77 60
c-82 0 -138.667 -53.333 -170 -160h55z" />
    <glyph glyph-name="Ecaron" unicode="&#x11a;" horiz-adv-x="505" 
d="M622 936l-157 -137h-47l-98 137h74l58 -82l93 82h77zM78 0l159 692h386l-16 -68h-309l-55 -238h254l-16 -68h-253l-58 -250h309l-15 -68h-386z" />
    <glyph glyph-name="ecaron" unicode="&#x11b;" horiz-adv-x="462" 
d="M192 79.5c17.333 -15.667 38.666 -23.5 63.999 -23.5c47.333 0 96 5.33301 146 16l25 6l-6 -59c-59.333 -19.333 -116.333 -29 -171 -29c-106 0 -159 50.667 -159 152c0 92.667 21 175.334 63 248.001c21.333 36 49.833 65 85.5 87s75.834 33 120.501 33
c98.667 0 148 -40.667 148 -122c0 -59.333 -22.333 -100.833 -67 -124.5s-115.667 -35.5 -213 -35.5h-51c-7.33301 -26 -11 -53.333 -11 -82s8.66699 -50.834 26 -66.501zM242 287c68 0 117 7.16699 147 21.5s45 40.5 45 78.5c0 40 -25.667 60 -77 60
c-82 0 -138.667 -53.333 -170 -160h55zM401 587h-42l-85 151h69l51 -89l90 89h75z" />
    <glyph glyph-name="Gcircumflex" unicode="&#x11c;" horiz-adv-x="572" 
d="M339 779l155 151h53l87 -151h-76l-48 86l-89 -86h-82zM322 -10c-139.333 0 -208.999 65.334 -208.999 196.001c0 131.333 28.333 248 85 350c28 50 65.5 90.167 112.5 120.5s99.833 45.5 158.5 45.5c56.667 0 113.667 -8 171 -24l28 -7l-19 -58
c-66.667 14 -130 21 -190 21c-36 0 -69 -9.5 -99 -28.5s-55 -44 -75 -75s-37 -66.5 -51 -106.5c-27.333 -74.667 -41 -154.334 -41 -239.001s45.667 -127 137 -127c29.333 0 63.666 4 102.999 12l18 3l52 220h-105l15 66h182l-80 -342c-58.667 -18 -123 -27 -193 -27z" />
    <glyph glyph-name="gcircumflex" unicode="&#x11d;" horiz-adv-x="468" 
d="M197 -235c-55.333 0 -99.002 11.501 -131.002 34.501s-48 55.167 -48 96.5c0 56.667 44 107.667 132 153c-10.667 10.667 -16 23.834 -16 39.501s4.66699 31.5 14 47.5s18.666 28.667 27.999 38l13 15c-46 21.333 -69 59.666 -69 114.999s18.333 103.5 55 144.5
s85.334 61.5 146.001 61.5c30.667 0 58.334 -4 83.001 -12l13 -4l148 6l-15 -64h-89c11.333 -18.667 17 -41.667 17 -69c0 -50 -18.833 -95.333 -56.5 -136s-89.167 -61 -154.5 -61l-33 3c-20.667 -26.667 -31 -47 -31 -61s6.33301 -23.5 19 -28.5
s41.334 -10.333 86.001 -16s79 -17.334 103 -35.001s36 -45.167 36 -82.5c0 -51.333 -22.833 -95 -68.5 -131s-106.167 -54 -181.5 -54zM118.998 -26.999c-20 -20 -30 -41.334 -30 -64.001s9.33301 -41.667 28 -57s49.167 -23 91.5 -23s80.5 10.333 114.5 31
s51 48.667 51 84c0 20 -7.16699 34.333 -21.5 43s-40.833 15.334 -79.5 20.001s-66.667 10 -84 16c-26.667 -13.333 -50 -30 -70 -50zM273.998 232c42 0 74.667 14.167 98 42.5s35 57.166 35 86.499s-7 51 -21 65s-38.5 21 -73.5 21s-64 -14.167 -87 -42.5
s-34.5 -59.166 -34.5 -92.499c0 -53.333 27.667 -80 83 -80zM210.998 587l155 151h40l87 -151h-69l-48 86l-89 -86h-76z" />
    <glyph glyph-name="Gbreve" unicode="&#x11e;" horiz-adv-x="572" 
d="M447 923c-0.666992 -4.66699 -1.00098 -13.334 -1.00098 -26.001s5.33301 -24 16 -34s27.334 -15 50.001 -15s42.5 6.83301 59.5 20.5s28.5 31.834 34.5 54.501h72c-12.667 -43.333 -35.667 -78.333 -69 -105s-71 -40 -113 -40s-72.833 10 -92.5 30s-30.167 46 -31.5 78
c0 12 1 24.333 3 37h72zM321.999 -10c-139.333 0 -208.999 65.334 -208.999 196.001c0 131.333 28.333 248 85 350c28 50 65.5 90.167 112.5 120.5s99.833 45.5 158.5 45.5c56.667 0 113.667 -8 171 -24l28 -7l-19 -58c-66.667 14 -130 21 -190 21c-36 0 -69 -9.5 -99 -28.5
s-55 -44 -75 -75s-37 -66.5 -51 -106.5c-27.333 -74.667 -41 -154.334 -41 -239.001s45.667 -127 137 -127c29.333 0 63.666 4 102.999 12l18 3l52 220h-105l15 66h182l-80 -342c-58.667 -18 -123 -27 -193 -27z" />
    <glyph glyph-name="gbreve" unicode="&#x11f;" horiz-adv-x="468" 
d="M197 -235c-55.333 0 -99.002 11.501 -131.002 34.501s-48 55.167 -48 96.5c0 56.667 44 107.667 132 153c-10.667 10.667 -16 23.834 -16 39.501s4.66699 31.5 14 47.5s18.666 28.667 27.999 38l13 15c-46 21.333 -69 59.666 -69 114.999s18.333 103.5 55 144.5
s85.334 61.5 146.001 61.5c30.667 0 58.334 -4 83.001 -12l13 -4l148 6l-15 -64h-89c11.333 -18.667 17 -41.667 17 -69c0 -50 -18.833 -95.333 -56.5 -136s-89.167 -61 -154.5 -61l-33 3c-20.667 -26.667 -31 -47 -31 -61s6.33301 -23.5 19 -28.5
s41.334 -10.333 86.001 -16s79 -17.334 103 -35.001s36 -45.167 36 -82.5c0 -51.333 -22.833 -95 -68.5 -131s-106.167 -54 -181.5 -54zM118.998 -26.999c-20 -20 -30 -41.334 -30 -64.001s9.33301 -41.667 28 -57s49.167 -23 91.5 -23s80.5 10.333 114.5 31
s51 48.667 51 84c0 20 -7.16699 34.333 -21.5 43s-40.833 15.334 -79.5 20.001s-66.667 10 -84 16c-26.667 -13.333 -50 -30 -70 -50zM273.998 232c42 0 74.667 14.167 98 42.5s35 57.166 35 86.499s-7 51 -21 65s-38.5 21 -73.5 21s-64 -14.167 -87 -42.5
s-34.5 -59.166 -34.5 -92.499c0 -53.333 27.667 -80 83 -80zM330.998 731c-2 -8 -3.00098 -16.832 -3.00098 -26.499s4.33301 -20.334 13 -32.001s25.667 -17.5 51 -17.5c50.667 0 83.334 25.333 98.001 76h65c-26.667 -92 -87 -138 -181 -138c-43.333 0 -74 12.333 -92 37
c-13.333 17.333 -20 39 -20 65c0 11.333 1.33301 23.333 4 36h65z" />
    <glyph glyph-name="Gdotaccent" unicode="&#x120;" horiz-adv-x="572" 
d="M465 797l21 89h70l-21 -89h-70zM322 -10c-139.333 0 -208.999 65.334 -208.999 196.001c0 131.333 28.333 248 85 350c28 50 65.5 90.167 112.5 120.5s99.833 45.5 158.5 45.5c56.667 0 113.667 -8 171 -24l28 -7l-19 -58c-66.667 14 -130 21 -190 21
c-36 0 -69 -9.5 -99 -28.5s-55 -44 -75 -75s-37 -66.5 -51 -106.5c-27.333 -74.667 -41 -154.334 -41 -239.001s45.667 -127 137 -127c29.333 0 63.666 4 102.999 12l18 3l52 220h-105l15 66h182l-80 -342c-58.667 -18 -123 -27 -193 -27z" />
    <glyph glyph-name="gdotaccent" unicode="&#x121;" horiz-adv-x="468" 
d="M197 -235c-55.333 0 -99.002 11.501 -131.002 34.501s-48 55.167 -48 96.5c0 56.667 44 107.667 132 153c-10.667 10.667 -16 23.834 -16 39.501s4.66699 31.5 14 47.5s18.666 28.667 27.999 38l13 15c-46 21.333 -69 59.666 -69 114.999s18.333 103.5 55 144.5
s85.334 61.5 146.001 61.5c30.667 0 58.334 -4 83.001 -12l13 -4l148 6l-15 -64h-89c11.333 -18.667 17 -41.667 17 -69c0 -50 -18.833 -95.333 -56.5 -136s-89.167 -61 -154.5 -61l-33 3c-20.667 -26.667 -31 -47 -31 -61s6.33301 -23.5 19 -28.5
s41.334 -10.333 86.001 -16s79 -17.334 103 -35.001s36 -45.167 36 -82.5c0 -51.333 -22.833 -95 -68.5 -131s-106.167 -54 -181.5 -54zM118.998 -26.999c-20 -20 -30 -41.334 -30 -64.001s9.33301 -41.667 28 -57s49.167 -23 91.5 -23s80.5 10.333 114.5 31
s51 48.667 51 84c0 20 -7.16699 34.333 -21.5 43s-40.833 15.334 -79.5 20.001s-66.667 10 -84 16c-26.667 -13.333 -50 -30 -70 -50zM273.998 232c42 0 74.667 14.167 98 42.5s35 57.166 35 86.499s-7 51 -21 65s-38.5 21 -73.5 21s-64 -14.167 -87 -42.5
s-34.5 -59.166 -34.5 -92.499c0 -53.333 27.667 -80 83 -80zM323.998 605l21 89h64l-21 -89h-64z" />
    <glyph glyph-name="Gcommaaccent" unicode="&#x122;" horiz-adv-x="572" 
d="M322 -10c-139.333 0 -208.999 65.334 -208.999 196.001c0 131.333 28.333 248 85 350c28 50 65.5 90.167 112.5 120.5s99.833 45.5 158.5 45.5c56.667 0 113.667 -8 171 -24l28 -7l-19 -58c-66.667 14 -130 21 -190 21c-36 0 -69 -9.5 -99 -28.5s-55 -44 -75 -75
s-37 -66.5 -51 -106.5c-27.333 -74.667 -41 -154.334 -41 -239.001s45.667 -127 137 -127c29.333 0 63.666 4 102.999 12l18 3l52 220h-105l15 66h182l-80 -342c-58.667 -18 -123 -27 -193 -27zM257.001 -72.999h70l-96 -210h-61z" />
    <glyph glyph-name="gcommaaccent" unicode="&#x123;" horiz-adv-x="468" 
d="M409 794h61l-87 -210h-70zM197 -235c-55.333 0 -99.002 11.501 -131.002 34.501s-48 55.167 -48 96.5c0 56.667 44 107.667 132 153c-10.667 10.667 -16 23.834 -16 39.501s4.66699 31.5 14 47.5s18.666 28.667 27.999 38l13 15c-46 21.333 -69 59.666 -69 114.999
s18.333 103.5 55 144.5s85.334 61.5 146.001 61.5c30.667 0 58.334 -4 83.001 -12l13 -4l148 6l-15 -64h-89c11.333 -18.667 17 -41.667 17 -69c0 -50 -18.833 -95.333 -56.5 -136s-89.167 -61 -154.5 -61l-33 3c-20.667 -26.667 -31 -47 -31 -61s6.33301 -23.5 19 -28.5
s41.334 -10.333 86.001 -16s79 -17.334 103 -35.001s36 -45.167 36 -82.5c0 -51.333 -22.833 -95 -68.5 -131s-106.167 -54 -181.5 -54zM118.998 -26.999c-20 -20 -30 -41.334 -30 -64.001s9.33301 -41.667 28 -57s49.167 -23 91.5 -23s80.5 10.333 114.5 31
s51 48.667 51 84c0 20 -7.16699 34.333 -21.5 43s-40.833 15.334 -79.5 20.001s-66.667 10 -84 16c-26.667 -13.333 -50 -30 -70 -50zM273.998 232c42 0 74.667 14.167 98 42.5s35 57.166 35 86.499s-7 51 -21 65s-38.5 21 -73.5 21s-64 -14.167 -87 -42.5
s-34.5 -59.166 -34.5 -92.499c0 -53.333 27.667 -80 83 -80z" />
    <glyph glyph-name="Hcircumflex" unicode="&#x124;" horiz-adv-x="624" 
d="M469 0l73 316h-315l-73 -316h-76l160 692h76l-71 -309h315l71 309h77l-160 -692h-77zM335 793l164 138h41l96 -138h-69l-54 81l-96 -81h-82z" />
    <glyph glyph-name="hcircumflex" unicode="&#x125;" horiz-adv-x="499" 
d="M398 510c38.667 0 68.002 -11.332 88.002 -33.999s30 -51.334 30 -86.001s-7 -80.667 -21 -138l-58 -252h-74l58 249c12 54.667 18 94.667 18 120c0 50 -22.333 75 -67 75c-32.667 0 -72.667 -24.333 -120 -73c-10.667 -11.333 -19.334 -21 -26.001 -29l-9 -11l-76 -331
h-75l166 718h75l-71 -306c6 7.33301 14 16.5 24 27.5s29.167 25.5 57.5 43.5s55.166 27 80.499 27zM290.002 763.001l164 138h41l96 -138h-69l-54 81l-96 -81h-82z" />
    <glyph glyph-name="Hbar" unicode="&#x126;" horiz-adv-x="638" 
d="M122 503v1l15 68h80l28 120h73l-28 -120h322l28 120h73l-28 -120h79l-18 -69h-77l-115 -503h-74l72 312h-322l-72 -312h-73l116 503h-79zM247 385h322l27 118h-322z" />
    <glyph glyph-name="hbar" unicode="&#x127;" horiz-adv-x="499" 
d="M398 510c38.667 0 68.002 -11.332 88.002 -33.999s30 -51.334 30 -86.001s-7 -80.667 -21 -138l-58 -252h-74l58 249c12 54.667 18 94.667 18 120c0 50 -22.333 75 -67 75c-32.667 0 -72.667 -24.333 -120 -73c-10.667 -11.333 -19.334 -21 -26.001 -29l-9 -11l-76 -331
h-75l134 579h-55l15 65h55l17 74h75l-18 -74h146l-16 -65h-145l-38 -167c6 7.33301 14 16.5 24 27.5s29.167 25.5 57.5 43.5s55.166 27 80.499 27z" />
    <glyph glyph-name="Itilde" unicode="&#x128;" horiz-adv-x="232" 
d="M374 798c-16 0 -41.001 9.33301 -75.001 28s-55 28 -63 28c-15.333 0 -39.666 -12 -72.999 -36l-17 -13l-2 54c44.667 40 79.667 60 105 60c18 0 43.833 -9.16699 77.5 -27.5s54.167 -27.5 61.5 -27.5c12.667 0 35 11.333 67 34l16 12l3 -53
c-42 -39.333 -75.333 -59 -100 -59zM77.999 0l160 692h76l-160 -692h-76z" />
    <glyph glyph-name="itilde" unicode="&#x129;" horiz-adv-x="206" 
d="M66 0l115 500h75l-116 -500h-74zM304 614c-14 0 -36.668 8 -68.001 24s-50.666 24 -57.999 24c-14 0 -36.333 -10.667 -67 -32l-15 -11l-3 56c41.333 35.333 74.333 53 99 53c16 0 39.167 -8 69.5 -24s48.833 -24 55.5 -24c12.667 0 33 10 61 30l15 11l5 -56
c-38 -34 -69.333 -51 -94 -51z" />
    <glyph glyph-name="Imacron" unicode="&#x12a;" horiz-adv-x="232" 
d="M153 833l13 60h294l-14 -60h-293zM78 0l160 692h76l-160 -692h-76z" />
    <glyph glyph-name="imacron" unicode="&#x12b;" horiz-adv-x="206" 
d="M66 0l115 500h75l-116 -500h-74zM105 639l14 59h275l-15 -59h-274z" />
    <glyph glyph-name="Ibreve" unicode="&#x12c;" horiz-adv-x="232" 
d="M298 795c-76.667 0 -114.999 32.333 -114.999 97c0 9.33301 1 19.333 3 30h66c-1.33301 -6.66699 -2 -15.167 -2 -25.5s4.5 -19.833 13.5 -28.5s24.333 -13 46 -13s41 6.16699 58 18.5s28.5 28.5 34.5 48.5h66c-24.667 -84.667 -81.334 -127 -170.001 -127zM78.001 0
l160 692h76l-160 -692h-76z" />
    <glyph glyph-name="ibreve" unicode="&#x12d;" horiz-adv-x="206" 
d="M66 0l115 500h75l-116 -500h-74zM187 731c-2 -8 -3.00098 -16.832 -3.00098 -26.499s4.33301 -20.334 13 -32.001s25.667 -17.5 51 -17.5c50.667 0 83.334 25.333 98.001 76h65c-26.667 -92 -87 -138 -181 -138c-43.333 0 -74 12.333 -92 37
c-13.333 17.333 -20 39 -20 65c0 11.333 1.33301 23.333 4 36h65z" />
    <glyph glyph-name="Iogonek" unicode="&#x12e;" horiz-adv-x="232" 
d="M48 -204c-47.333 0 -71.001 20.999 -71.001 62.999c0 39.333 33.667 87.333 101 144l160 689h76l-160 -692c-20.667 -13.333 -41.667 -32.166 -63 -56.499s-32 -44.5 -32 -60.5c0 -13.333 8 -20 24 -20l49 5l-8 -63c-29.333 -6 -54.666 -9 -75.999 -9z" />
    <glyph glyph-name="iogonek" unicode="&#x12f;" horiz-adv-x="207" 
d="M35 -204c-47.333 0 -71.001 20.999 -71.001 62.999c0 22.667 10.833 47.667 32.5 75s45.167 51.333 70.5 72l115 494h75l-116 -500c-21.333 -15.333 -42.5 -34.666 -63.5 -57.999s-31.5 -43 -31.5 -59c0 -13.333 8 -20 24 -20l49 5l-8 -63
c-29.333 -6 -54.666 -9 -75.999 -9zM204.999 603.999l21 90h76l-21 -90h-76z" />
    <glyph glyph-name="Idotaccent" unicode="&#x130;" horiz-adv-x="232" 
d="M270 830l20 90h64l-21 -90h-63zM78 0l160 692h76l-160 -692h-76z" />
    <glyph glyph-name="dotlessi" unicode="&#x131;" horiz-adv-x="207" 
d="M66 0l115 500h75l-116 -500h-74z" />
    <glyph glyph-name="Jcircumflex" unicode="&#x134;" horiz-adv-x="265" 
d="M350 692l-131.998 -573.999c-13.333 -57.333 -26.333 -98 -39 -122s-31.334 -41 -56.001 -51s-63.334 -15 -116.001 -15l12 68c41.333 0 69 7.16699 83 21.5s27.333 49.166 40 104.499l132 568h76zM174.002 793.001l164 138h41l96 -138h-69l-54 81l-96 -81h-82z" />
    <glyph glyph-name="jcircumflex" unicode="&#x135;" horiz-adv-x="206" 
d="M66 0l115.002 500.001h75l-116 -500c-16.667 -74 -35.334 -122.833 -56.001 -146.5s-69.667 -53.167 -147 -88.5l-24 60c59.333 30.667 96.666 54.667 111.999 72s29 51.666 41 102.999zM89.002 587.001l155 151h40l87 -151h-69l-48 86l-89 -86h-76z" />
    <glyph glyph-name="Kcommaaccent" unicode="&#x136;" horiz-adv-x="521" 
d="M229 -73h70l-96 -210h-61zM422 0l-98 307l-100 -3l-70 -304h-76l160 692h76l-74 -320l91 3l245 317h86l-269 -349l110 -343h-81z" />
    <glyph glyph-name="kcommaaccent" unicode="&#x137;" horiz-adv-x="445" 
d="M91 -283l87 210h70l-96 -210h-61zM141 0h-75l166 718h75l-97 -418l64 3l181 197h87l-212 -232l95 -268h-79l-84 239l-67 -2z" />
    <glyph glyph-name="Lacute" unicode="&#x139;" horiz-adv-x="433" 
d="M316 785l-9 57l228 94l9 -65zM427 0h-349l160 692h76l-144 -624h272z" />
    <glyph glyph-name="lacute" unicode="&#x13a;" horiz-adv-x="215" 
d="M70 0l166 718h74l-165 -718h-75zM249 785l-9 57l228 94l9 -65z" />
    <glyph glyph-name="Lcommaaccent" unicode="&#x13b;" horiz-adv-x="433" 
d="M207 -73h70l-96 -210h-61zM427 0h-349l160 692h76l-144 -624h272z" />
    <glyph glyph-name="lcommaaccent" unicode="&#x13c;" horiz-adv-x="215" 
d="M57 -73h70l-96 -210h-61zM70 0l166 718h74l-165 -718h-75z" />
    <glyph glyph-name="Lcaron" unicode="&#x13d;" horiz-adv-x="453" 
d="M554 692l-55 -232h-68l55 232h68zM427 0h-349l160 692h76l-144 -624h272z" />
    <glyph glyph-name="lcaron" unicode="&#x13e;" horiz-adv-x="262" 
d="M432 692l-55 -232h-68l55 232h68zM70 0l166 718h74l-165 -718h-75z" />
    <glyph glyph-name="Lslash" unicode="&#x141;" horiz-adv-x="434" 
d="M429 0h-349l62 268l-54 -34v1l-25 54l98 61l79 342h76l-66 -287l148 93l23 -55l-190 -119l-59 -256h272z" />
    <glyph glyph-name="lslash" unicode="&#x142;" horiz-adv-x="270" 
d="M95 0l64 278l-65 -40l-26 53l110 68l83 359h74l-70 -305l69 43l24 -54l-112 -70l-76 -332h-75z" />
    <glyph glyph-name="Nacute" unicode="&#x143;" horiz-adv-x="631" 
d="M402 785l-9 57l228 94l9 -65zM78 0l160 692h136l104 -613h19l141 613h75l-160 -692h-131l-108 617h-20l-143 -617h-73z" />
    <glyph glyph-name="nacute" unicode="&#x144;" horiz-adv-x="498" 
d="M371 444c-12.667 0 -26.667 -4.00098 -42 -12.001c-36.667 -19.333 -70.667 -48.666 -102 -87.999l-10 -12l-77 -332h-74l115 500h73l-18 -87l22 25c14 16 34.333 32 61 48s52.667 24 78 24c38.667 0 68 -11.333 88 -34s30 -52 30 -88s-6.66699 -80.667 -20 -134
l-59 -254h-74l58 249c12.667 50.667 19 90.667 19 120c0 50 -22.667 75 -68 75zM300 595.999l-7 58l228 94l7 -66z" />
    <glyph glyph-name="Ncommaaccent" unicode="&#x145;" horiz-adv-x="631" 
d="M280 -73h70l-96 -210h-61zM78 0l160 692h136l104 -613h19l141 613h75l-160 -692h-131l-108 617h-20l-143 -617h-73z" />
    <glyph glyph-name="ncommaaccent" unicode="&#x146;" horiz-adv-x="498" 
d="M397 510c38.667 0 68.001 -11.332 88.001 -33.999s30 -52 30 -88s-6.66699 -80.667 -20 -134l-59 -254h-74l58 249c12.667 50.667 19 90.667 19 120c0 50 -22.667 75 -68 75c-20 0 -42.833 -9.33301 -68.5 -28s-46.5 -37.334 -62.5 -56.001l-23 -28l-77 -332h-74l115 500
h73l-18 -87c6 7.33301 13.833 16.333 23.5 27s28.667 25 57 43s55.166 27 80.499 27zM125.001 -282.999l87 210h70l-96 -210h-61z" />
    <glyph glyph-name="Ncaron" unicode="&#x147;" horiz-adv-x="631" 
d="M669 926l-157 -137h-47l-98 137h74l58 -82l93 82h77zM78 0l160 692h136l104 -613h19l141 613h75l-160 -692h-131l-108 617h-20l-143 -617h-73z" />
    <glyph glyph-name="ncaron" unicode="&#x148;" horiz-adv-x="498" 
d="M397 510c38.667 0 68.001 -11.332 88.001 -33.999s30 -52 30 -88s-6.66699 -80.667 -20 -134l-59 -254h-74l58 249c12.667 50.667 19 90.667 19 120c0 50 -22.667 75 -68 75c-20 0 -42.833 -9.33301 -68.5 -28s-46.5 -37.334 -62.5 -56.001l-23 -28l-77 -332h-74l115 500
h73l-18 -87c6 7.33301 13.833 16.333 23.5 27s28.667 25 57 43s55.166 27 80.499 27zM403.001 587.001h-42l-85 151h69l51 -89l90 89h75z" />
    <glyph glyph-name="Eng" unicode="&#x14a;" horiz-adv-x="631" 
d="M78 0l160 691.999h137l104 -613h18l142 613h74l-159 -690c-10 -44 -18.833 -76.667 -26.5 -98s-19.334 -39.833 -35.001 -55.5s-34.167 -25.5 -55.5 -29.5s-51.666 -6 -90.999 -6l12 68c40.667 0.666992 68 7.83398 82 21.501s27 46.167 39 97.5h-58l-107 617h-20
l-143 -617h-73z" />
    <glyph glyph-name="eng" unicode="&#x14b;" horiz-adv-x="492" 
d="M236 435c57.333 50 107.668 74.998 151.001 74.998s74.166 -8.16699 92.499 -24.5s28.5 -43.166 30.5 -80.499c0.666992 -4 1 -8.66699 1 -14c0 -29.333 -6.66699 -73.333 -20 -132l-61 -259c-14.667 -61.333 -35.667 -107.5 -63 -138.5s-75.333 -63.167 -144 -96.5
l-16 66c54.667 29.333 91.334 54.833 110.001 76.5s34 56.834 46 105.501l58 246c11.333 49.333 17 86.333 17 111s-5.83301 42.167 -17.5 52.5s-28.334 15.5 -50.001 15.5s-44.667 -5.83301 -69 -17.5s-43.833 -23.167 -58.5 -34.5l-22 -18l-86 -368h-70l117 500h71z" />
    <glyph glyph-name="Omacron" unicode="&#x14c;" horiz-adv-x="628" 
d="M225 90.5c21.333 -21.667 56.1689 -32.5 104.502 -32.5s88.833 13.333 121.5 40c45.333 37.333 80.166 93.333 104.499 168s36.5 149.334 36.5 224.001c0 50 -11.167 86.5 -33.5 109.5s-56.333 34.5 -102 34.5s-83.834 -12.333 -114.501 -37
c-46 -38 -82.333 -95.667 -109 -173s-40 -146.833 -40 -208.5s10.667 -103.334 32 -125.001zM629.503 239c-28.333 -80.667 -68.5 -142.332 -120.5 -184.999s-113.833 -64 -185.5 -64s-124.5 16.167 -158.5 48.5s-51 88.166 -51 167.499s13.833 158.333 41.5 237
s67.167 141.5 118.5 188.5s112.333 70.5 183 70.5c143.333 0 215 -69 215 -207c0 -90 -14.167 -175.333 -42.5 -256zM351.003 823.002l13 60h294l-14 -60h-293z" />
    <glyph glyph-name="omacron" unicode="&#x14d;" horiz-adv-x="494" 
d="M343 510c115.333 0 172.998 -56.667 172.998 -170c0 -62 -9.83301 -119.333 -29.5 -172s-49.167 -95.5 -88.5 -128.5s-84.666 -49.5 -135.999 -49.5c-114 0 -171 54.667 -171 164c0 96 23.833 179.333 71.5 250s107.834 106 180.501 106zM261.998 55
c53.333 0 96.5 28.167 129.5 84.5s49.5 123.5 49.5 201.5c0 32 -8.16699 57.333 -24.5 76s-40.833 28 -73.5 28c-52 0 -94.5 -29.167 -127.5 -87.5s-49.5 -126.5 -49.5 -204.5c0 -65.333 32 -98 96 -98zM244.998 639l14 59h275l-15 -59h-274z" />
    <glyph glyph-name="Obreve" unicode="&#x14e;" horiz-adv-x="628" 
d="M489 796c-76.667 0 -114.999 32.333 -114.999 97c0 9.33301 1 19.333 3 30h66c-1.33301 -6.66699 -2 -15.167 -2 -25.5s4.5 -19.833 13.5 -28.5s24.333 -13 46 -13s41 6.16699 58 18.5s28.5 28.5 34.5 48.5h66c-24.667 -84.667 -81.334 -127 -170.001 -127zM225.001 90.5
c21.333 -21.667 56.1689 -32.5 104.502 -32.5s88.833 13.333 121.5 40c45.333 37.333 80.166 93.333 104.499 168s36.5 149.334 36.5 224.001c0 50 -11.167 86.5 -33.5 109.5s-56.333 34.5 -102 34.5s-83.834 -12.333 -114.501 -37c-46 -38 -82.333 -95.667 -109 -173
s-40 -146.833 -40 -208.5s10.667 -103.334 32 -125.001zM629.504 239c-28.333 -80.667 -68.5 -142.332 -120.5 -184.999s-113.833 -64 -185.5 -64s-124.5 16.167 -158.5 48.5s-51 88.166 -51 167.499s13.833 158.333 41.5 237s67.167 141.5 118.5 188.5
s112.333 70.5 183 70.5c143.333 0 215 -69 215 -207c0 -90 -14.167 -175.333 -42.5 -256z" />
    <glyph glyph-name="obreve" unicode="&#x14f;" horiz-adv-x="494" 
d="M343 510c115.333 0 172.998 -56.667 172.998 -170c0 -62 -9.83301 -119.333 -29.5 -172s-49.167 -95.5 -88.5 -128.5s-84.666 -49.5 -135.999 -49.5c-114 0 -171 54.667 -171 164c0 96 23.833 179.333 71.5 250s107.834 106 180.501 106zM261.998 55
c53.333 0 96.5 28.167 129.5 84.5s49.5 123.5 49.5 201.5c0 32 -8.16699 57.333 -24.5 76s-40.833 28 -73.5 28c-52 0 -94.5 -29.167 -127.5 -87.5s-49.5 -126.5 -49.5 -204.5c0 -65.333 32 -98 96 -98zM328.998 731c-2 -8 -3.00098 -16.832 -3.00098 -26.499
s4.33301 -20.334 13 -32.001s25.667 -17.5 51 -17.5c50.667 0 83.334 25.333 98.001 76h65c-26.667 -92 -87 -138 -181 -138c-43.333 0 -74 12.333 -92 37c-13.333 17.333 -20 39 -20 65c0 11.333 1.33301 23.333 4 36h65z" />
    <glyph glyph-name="Ohungarumlaut" unicode="&#x150;" horiz-adv-x="628" 
d="M577 771l-42 30l164 131l49 -32zM388 772l-43 29l166 132l46 -32zM225 90.5c21.333 -21.667 56.1689 -32.5 104.502 -32.5s88.833 13.333 121.5 40c45.333 37.333 80.166 93.333 104.499 168s36.5 149.334 36.5 224.001c0 50 -11.167 86.5 -33.5 109.5
s-56.333 34.5 -102 34.5s-83.834 -12.333 -114.501 -37c-46 -38 -82.333 -95.667 -109 -173s-40 -146.833 -40 -208.5s10.667 -103.334 32 -125.001zM629.503 239c-28.333 -80.667 -68.5 -142.332 -120.5 -184.999s-113.833 -64 -185.5 -64s-124.5 16.167 -158.5 48.5
s-51 88.166 -51 167.499s13.833 158.333 41.5 237s67.167 141.5 118.5 188.5s112.333 70.5 183 70.5c143.333 0 215 -69 215 -207c0 -90 -14.167 -175.333 -42.5 -256z" />
    <glyph glyph-name="ohungarumlaut" unicode="&#x151;" horiz-adv-x="494" 
d="M343 510c115.333 0 172.998 -56.667 172.998 -170c0 -62 -9.83301 -119.333 -29.5 -172s-49.167 -95.5 -88.5 -128.5s-84.666 -49.5 -135.999 -49.5c-114 0 -171 54.667 -171 164c0 96 23.833 179.333 71.5 250s107.834 106 180.501 106zM261.998 55
c53.333 0 96.5 28.167 129.5 84.5s49.5 123.5 49.5 201.5c0 32 -8.16699 57.333 -24.5 76s-40.833 28 -73.5 28c-52 0 -94.5 -29.167 -127.5 -87.5s-49.5 -126.5 -49.5 -204.5c0 -65.333 32 -98 96 -98zM445.998 582l-39 41l169 139l43 -43zM263.998 582l-39 41l168 138
l43 -42z" />
    <glyph glyph-name="OE" unicode="&#x152;" horiz-adv-x="858" 
d="M295 -10c-64 0 -111 14.334 -141 43.001c-31.333 30 -47 72.167 -47 126.5s8 116.166 24 185.499c28.667 122 69.167 212.667 121.5 272s122.5 89 210.5 89c46 0 89.667 -3.33301 131 -10h385l-16 -75h-314l-57 -233h257l-16 -73l-256 2l-57 -242h313l-18 -76h-383
c-67.333 -6 -113 -9 -137 -9zM319 65.001c17.333 0 59.667 2.66602 127 7.99902l131 551c-34 4.66699 -75.333 7 -124 7c-66.667 0 -118.5 -22.5 -155.5 -67.5s-67.167 -117.5 -90.5 -217.5c-15.333 -63.333 -23 -115.666 -23 -156.999s10.5 -72.333 31.5 -93
s55.5 -31 103.5 -31z" />
    <glyph glyph-name="oe" unicode="&#x153;" horiz-adv-x="799" 
d="M487 143c0 -55.333 31.332 -83 93.999 -83c46.667 0 95 2 145 6l28 3l-12 -63c-67.333 -10.667 -128 -16 -182 -16c-74.667 0 -119.334 28 -134.001 84c-40 -56 -100.333 -84 -181 -84c-51.333 0 -89.666 10 -114.999 30c-28 21.333 -42 58.666 -42 111.999
c0 38 5.66699 79.667 17 125c20.667 86.667 50.5 150.5 89.5 191.5s97.333 61.5 175 61.5s123.834 -31.333 138.501 -94c40.667 62.667 101 94 181 94c95.333 0 144.333 -43.667 147 -131v-31.5c0 -17 -4.33301 -41.5 -13 -73.5l-17 -57l-308 2
c-7.33301 -33.333 -11 -58.666 -11 -75.999zM444.999 344c0 64.667 -31.333 97 -94 97c-47.333 0 -84 -14.333 -110 -43s-45.667 -72.167 -59 -130.5s-20 -99.833 -20 -124.5v-11c1.33301 -25.333 9.5 -43.833 24.5 -55.5s38 -17.5 69 -17.5s56.333 4.66699 76 14
s36 24.333 49 45s22.833 40.667 29.5 60c23.333 68.667 35 124 35 166zM750.999 278c8 31.333 12 53.166 12 65.499v21.5c-0.666992 49.333 -30 74 -88 74c-42 0 -76.333 -12.667 -103 -38s-46.667 -65.666 -60 -120.999z" />
    <glyph glyph-name="Racute" unicode="&#x154;" horiz-adv-x="564" 
d="M575.5 353c-35.667 -42.667 -77.168 -70.666 -124.501 -83.999l76 -269h-77l-71 259h-164l-61 -259h-76l160 692h211c60.667 0 105.834 -13 135.501 -39s44.5 -71.833 44.5 -137.5s-17.833 -119.834 -53.5 -162.501zM548.999 523.001
c0 37.333 -8.33203 63.667 -24.999 79s-44.334 23 -83.001 23h-142l-69 -299h147c52 0 93.667 18.333 125 55s47 84 47 142zM357 785.002l-9 57l228 94l9 -65z" />
    <glyph glyph-name="racute" unicode="&#x155;" horiz-adv-x="316" 
d="M66 0l116 500h74l-18 -74c62 44.667 122.333 73 181 85l-20 -77c-36 -9.33301 -84.333 -29.333 -145 -60l-30 -15l-83 -359h-75zM202 596l-7 58l228 94l7 -66z" />
    <glyph glyph-name="Rcommaaccent" unicode="&#x156;" horiz-adv-x="564" 
d="M164 -283l87 210h70l-96 -210h-61zM449 692c60.667 0 105.833 -12.999 135.5 -38.999s44.5 -71.833 44.5 -137.5s-17.833 -119.834 -53.5 -162.501s-77.167 -70.667 -124.5 -84l76 -269h-77l-71 259h-164l-61 -259h-76l160 692h211zM548.999 523.001
c0 37.333 -8.33203 63.667 -24.999 79s-44.334 23 -83.001 23h-142l-69 -299h147c52 0 93.667 18.333 125 55s47 84 47 142z" />
    <glyph glyph-name="rcommaaccent" unicode="&#x157;" horiz-adv-x="316" 
d="M66 0l116 500h74l-18 -74c62 44.667 122.333 73 181 85l-20 -77c-36 -9.33301 -84.333 -29.333 -145 -60l-30 -15l-83 -359h-75zM58 -73h70l-96 -210h-61z" />
    <glyph glyph-name="Rcaron" unicode="&#x158;" horiz-adv-x="564" 
d="M614 926l-157 -137h-47l-98 137h74l58 -82l93 82h77zM575.5 353c-35.667 -42.667 -77.168 -70.666 -124.501 -83.999l76 -269h-77l-71 259h-164l-61 -259h-76l160 692h211c60.667 0 105.834 -13 135.501 -39s44.5 -71.833 44.5 -137.5s-17.833 -119.834 -53.5 -162.501z
M548.999 523.001c0 37.333 -8.33203 63.667 -24.999 79s-44.334 23 -83.001 23h-142l-69 -299h147c52 0 93.667 18.333 125 55s47 84 47 142z" />
    <glyph glyph-name="rcaron" unicode="&#x159;" horiz-adv-x="316" 
d="M66 0l116 500h74l-18 -74c62 44.667 122.333 73 181 85l-20 -77c-36 -9.33301 -84.333 -29.333 -145 -60l-30 -15l-83 -359h-75zM316 587h-42l-85 151h69l51 -89l90 89h75z" />
    <glyph glyph-name="Sacute" unicode="&#x15a;" horiz-adv-x="499" 
d="M577 617c-70.667 12 -130.332 18 -178.999 18s-87.167 -12.5 -115.5 -37.5s-42.5 -61.167 -42.5 -108.5c0 -26.667 8.16699 -46 24.5 -58s50.333 -27.167 102 -45.5s87.667 -38.166 108 -59.499s30.5 -53.666 30.5 -96.999c0 -74.667 -22.333 -133.167 -67 -175.5
s-105 -63.5 -181 -63.5c-56.667 0 -114 6.66699 -172 20l-29 6l13 60c77.333 -12 141.666 -18 192.999 -18s91.5 14.167 120.5 42.5s43.5 68.833 43.5 121.5c0 27.333 -7.33301 47.5 -22 60.5s-47 28.167 -97 45.5s-86.667 36.666 -110 57.999s-35 53.666 -35 96.999
c0 68 21.833 121.5 65.5 160.5s102.5 58.5 176.5 58.5c54.667 0 108 -7 160 -21l26 -7zM352.002 785l-9 57l228 94l9 -65z" />
    <glyph glyph-name="sacute" unicode="&#x15b;" horiz-adv-x="429" 
d="M470 431c-63.333 9.33301 -114.167 14 -152.5 14s-67.833 -9.5 -88.5 -28.5s-31 -41.833 -31 -68.5c0 -16 6 -28 18 -36s39.833 -17.667 83.5 -29s75.834 -24.166 96.501 -38.499s31 -38.5 31 -72.5c0 -58.667 -20.333 -103.667 -61 -135s-93 -47 -157 -47
c-42.667 0 -87.667 6 -135 18l-23 5l14 58c61.333 -10.667 112.166 -16 152.499 -16s72.5 8.66699 96.5 26s36 42.666 36 75.999c0 18.667 -6.33301 31.834 -19 39.501s-40.167 16.667 -82.5 27s-73.833 22.833 -94.5 37.5s-31 37.667 -31 69
c0 53.333 18.667 96.666 56 129.999s84.333 50 141 50c50 0 97.333 -5.33301 142 -16l23 -5zM276.999 596l-7 58l228 94l7 -66z" />
    <glyph glyph-name="Scircumflex" unicode="&#x15c;" horiz-adv-x="499" 
d="M577 617c-70.667 12 -130.332 18 -178.999 18s-87.167 -12.5 -115.5 -37.5s-42.5 -61.167 -42.5 -108.5c0 -26.667 8.16699 -46 24.5 -58s50.333 -27.167 102 -45.5s87.667 -38.166 108 -59.499s30.5 -53.666 30.5 -96.999c0 -74.667 -22.333 -133.167 -67 -175.5
s-105 -63.5 -181 -63.5c-56.667 0 -114 6.66699 -172 20l-29 6l13 60c77.333 -12 141.666 -18 192.999 -18s91.5 14.167 120.5 42.5s43.5 68.833 43.5 121.5c0 27.333 -7.33301 47.5 -22 60.5s-47 28.167 -97 45.5s-86.667 36.666 -110 57.999s-35 53.666 -35 96.999
c0 68 21.833 121.5 65.5 160.5s102.5 58.5 176.5 58.5c54.667 0 108 -7 160 -21l26 -7zM279.002 793l164 138h41l96 -138h-69l-54 81l-96 -81h-82z" />
    <glyph glyph-name="scircumflex" unicode="&#x15d;" horiz-adv-x="429" 
d="M470 431c-63.333 9.33301 -114.167 14 -152.5 14s-67.833 -9.5 -88.5 -28.5s-31 -41.833 -31 -68.5c0 -16 6 -28 18 -36s39.833 -17.667 83.5 -29s75.834 -24.166 96.501 -38.499s31 -38.5 31 -72.5c0 -58.667 -20.333 -103.667 -61 -135s-93 -47 -157 -47
c-42.667 0 -87.667 6 -135 18l-23 5l14 58c61.333 -10.667 112.166 -16 152.499 -16s72.5 8.66699 96.5 26s36 42.666 36 75.999c0 18.667 -6.33301 31.834 -19 39.501s-40.167 16.667 -82.5 27s-73.833 22.833 -94.5 37.5s-31 37.667 -31 69
c0 53.333 18.667 96.666 56 129.999s84.333 50 141 50c50 0 97.333 -5.33301 142 -16l23 -5zM212.999 587l155 151h40l87 -151h-69l-48 86l-89 -86h-76z" />
    <glyph glyph-name="Scedilla" unicode="&#x15e;" horiz-adv-x="499" 
d="M261 -45c56.667 0 84.998 -18.3359 84.998 -55.0029c0 -7.33301 -1 -15.333 -3 -24c-12.667 -58 -48.667 -87 -108 -87c-28.667 0 -51.667 1.66699 -69 5l-11 2l13 51c24.667 -2 45.334 -3 62.001 -3c27.333 0 44.333 12 51 36
c3.33301 12.667 1.83301 21.334 -4.5 26.001s-16.166 7 -29.499 7h-39l17 78c-53.333 2.66699 -101.666 9 -144.999 19l-24 6l13 60c77.333 -12 141.666 -18 192.999 -18s91.5 14.167 120.5 42.5s43.5 68.833 43.5 121.5c0 27.333 -7.33301 47.5 -22 60.5
s-47 28.167 -97 45.5s-86.667 36.666 -110 57.999s-35 53.666 -35 96.999c0 68 21.833 121.5 65.5 160.5s102.5 58.5 176.5 58.5c54.667 0 108 -7 160 -21l26 -7l-13 -57c-70.667 12 -130.334 18 -179.001 18s-87.167 -12.5 -115.5 -37.5s-42.5 -61.167 -42.5 -108.5
c0 -26.667 8.16699 -46 24.5 -58s50.333 -27.167 102 -45.5s87.667 -38.166 108 -59.499s30.5 -53.666 30.5 -96.999c0 -73.333 -21.667 -131.166 -65 -173.499s-101.666 -64.166 -174.999 -65.499l-9 -35h5z" />
    <glyph glyph-name="scedilla" unicode="&#x15f;" horiz-adv-x="429" 
d="M216 -45c56.667 0 84.9961 -18.335 84.9961 -55.002c0 -7.33301 -1 -15.333 -3 -24c-12.667 -58 -48.667 -87 -108 -87c-28.667 0 -52 1.66699 -70 5l-10 2l13 51c24.667 -2 45.334 -3 62.001 -3c27.333 0 44.333 12 51 36c3.33301 12.667 1.83301 21.334 -4.5 26.001
s-16.166 7 -29.499 7h-39l18 78c-40 2.66699 -77.667 8.33398 -113 17.001l-17 5l14 58c61.333 -10.667 112.166 -16 152.499 -16s72.5 8.66699 96.5 26s36 42.666 36 75.999c0 18.667 -6.33301 31.834 -19 39.501s-40.167 16.667 -82.5 27s-73.833 22.833 -94.5 37.5
s-31 37.667 -31 69c0 53.333 18.667 96.666 56 129.999s84.333 50 141 50c50 0 97.333 -5.33301 142 -16l23 -5l-15 -58c-63.333 9.33301 -114.166 14 -152.499 14s-67.833 -9.5 -88.5 -28.5s-31 -41.833 -31 -68.5c0 -16 6 -28 18 -36s39.833 -17.667 83.5 -29
s75.834 -24.166 96.501 -38.499s31 -38.5 31 -72.5c0 -57.333 -19.167 -101.5 -57.5 -132.5s-88.166 -47.5 -149.499 -49.5l-9 -35h5z" />
    <glyph glyph-name="Scaron" unicode="&#x160;" horiz-adv-x="499" 
d="M621 929l-157 -137h-47l-98 137h74l58 -82l93 82h77zM577 617c-70.667 12 -130.332 18 -178.999 18s-87.167 -12.5 -115.5 -37.5s-42.5 -61.167 -42.5 -108.5c0 -26.667 8.16699 -46 24.5 -58s50.333 -27.167 102 -45.5s87.667 -38.166 108 -59.499
s30.5 -53.666 30.5 -96.999c0 -74.667 -22.333 -133.167 -67 -175.5s-105 -63.5 -181 -63.5c-56.667 0 -114 6.66699 -172 20l-29 6l13 60c77.333 -12 141.666 -18 192.999 -18s91.5 14.167 120.5 42.5s43.5 68.833 43.5 121.5c0 27.333 -7.33301 47.5 -22 60.5
s-47 28.167 -97 45.5s-86.667 36.666 -110 57.999s-35 53.666 -35 96.999c0 68 21.833 121.5 65.5 160.5s102.5 58.5 176.5 58.5c54.667 0 108 -7 160 -21l26 -7z" />
    <glyph glyph-name="scaron" unicode="&#x161;" horiz-adv-x="429" 
d="M470 431c-63.333 9.33301 -114.167 14 -152.5 14s-67.833 -9.5 -88.5 -28.5s-31 -41.833 -31 -68.5c0 -16 6 -28 18 -36s39.833 -17.667 83.5 -29s75.834 -24.166 96.501 -38.499s31 -38.5 31 -72.5c0 -58.667 -20.333 -103.667 -61 -135s-93 -47 -157 -47
c-42.667 0 -87.667 6 -135 18l-23 5l14 58c61.333 -10.667 112.166 -16 152.499 -16s72.5 8.66699 96.5 26s36 42.666 36 75.999c0 18.667 -6.33301 31.834 -19 39.501s-40.167 16.667 -82.5 27s-73.833 22.833 -94.5 37.5s-31 37.667 -31 69
c0 53.333 18.667 96.666 56 129.999s84.333 50 141 50c50 0 97.333 -5.33301 142 -16l23 -5zM372.999 587h-42l-85 151h69l51 -89l90 89h75z" />
    <glyph glyph-name="Tcedilla" unicode="&#x162;" horiz-adv-x="469" 
d="M247 -45c56.667 0 84.998 -18.334 84.998 -55.001c0 -7.33301 -1 -15.333 -3 -24c-12.667 -58 -48.667 -87 -108 -87c-28.667 0 -51.667 1.66699 -69 5l-11 2l13 51c24.667 -2 45.334 -3 62.001 -3c27.333 0 44.333 12 51 36c3.33301 12.667 1.83301 21.334 -4.5 26.001
s-16.166 7 -29.499 7h-39l20 87h-19l144 624h-185l16 68h447l-16 -68h-186l-144 -624h-18l-11 -45h5z" />
    <glyph glyph-name="tcedilla" unicode="&#x163;" horiz-adv-x="318" 
d="M210 -45c56.667 0 84.998 -18.334 84.998 -55.001c0 -7.33301 -1 -15.333 -3 -24c-12.667 -58 -48.667 -87 -108 -87c-28.667 0 -52 1.66699 -70 5l-10 2l13 51c24.667 -2 45.334 -3 62.001 -3c27.333 0 44.333 12 51 36c3.33301 12.667 1.83301 21.334 -4.5 26.001
s-16.166 7 -29.499 7h-39l19 83c-42 11.333 -63 41 -63 89c0 26 5.33301 60.333 16 103l58 247h-66l17 65h65l35 148h75l-36 -148h140l-16 -65h-140l-58 -251c-8 -32 -12 -59.667 -12 -83c0 -30.667 16.667 -46 50 -46l77 6l-5 -57c-34.667 -9.33301 -67 -14 -97 -14h-2
l-9 -35h5z" />
    <glyph glyph-name="Tcaron" unicode="&#x164;" horiz-adv-x="469" 
d="M584 926l-157 -137h-47l-98 137h74l58 -82l93 82h77zM154 624l16 68h447l-16 -68h-186l-144 -624h-76l144 624h-185z" />
    <glyph glyph-name="tcaron" unicode="&#x165;" horiz-adv-x="403" 
d="M569 692l-55 -232h-68l55 232h68zM191 101c0 -30.667 16.667 -46 50 -46l77 6l-5 -57c-34.667 -9.33301 -67.667 -14 -99 -14s-56 8.33301 -74 25s-27 39 -27 67s5.33301 63.333 16 106l58 247h-66l17 65h65l35 148h75l-36 -148h140l-16 -65h-140l-58 -251
c-8 -32 -12 -59.667 -12 -83z" />
    <glyph glyph-name="Tbar" unicode="&#x166;" horiz-adv-x="474" 
d="M156 624l16 68h447l-16 -68h-186l-60 -259h156l-18 -70h-154l-68 -295h-76l68 295h-151l16 70h151l60 259h-185z" />
    <glyph glyph-name="tbar" unicode="&#x167;" horiz-adv-x="322" 
d="M194 101c0 -30.667 16.667 -46 50 -46l77 6l-5 -57c-34.667 -9.33301 -67.667 -14 -99 -14s-56 8.33301 -74 25s-27 39 -27 67s5.33301 63.333 16 106l15 67h-54l15 65h55l27 115h-66l17 65h65l35 148h75l-36 -148h140l-16 -65h-140l-27 -115h134l-16 -65h-133l-16 -71
c-8 -32 -12 -59.667 -12 -83z" />
    <glyph glyph-name="Utilde" unicode="&#x168;" horiz-adv-x="594" 
d="M550 802c-16 0 -41.001 9.33301 -75.001 28s-55 28 -63 28c-15.333 0 -39.666 -12 -72.999 -36l-17 -13l-2 54c44.667 40 79.667 60 105 60c18 0 43.833 -9.16699 77.5 -27.5s54.167 -27.5 61.5 -27.5c12.667 0 35 11.333 67 34l16 12l3 -53
c-42 -39.333 -75.333 -59 -100 -59zM188.999 144c0 -57.333 42.666 -86.001 127.999 -86.001c52.667 0 92.167 12.333 118.5 37s45.5 63.334 57.5 116.001l111 481h77l-111 -481c-17.333 -76 -46.166 -131.833 -86.499 -167.5s-94.833 -53.5 -163.5 -53.5
c-138 0 -207 48 -207 144c0 32.667 3.66699 63 11 91l108 467h77l-110 -475c-6.66699 -26.667 -10 -51 -10 -73z" />
    <glyph glyph-name="utilde" unicode="&#x169;" horiz-adv-x="498" 
d="M453 614c-14 0 -36.668 8 -68.001 24s-51 24 -59 24c-13.333 0 -35.333 -10.667 -66 -32l-15 -11l-3 56c41.333 35.333 74.333 53 99 53c16 0 39.167 -8 69.5 -24s48.833 -24 55.5 -24c12.667 0 33.334 10 62.001 30l14 11l5 -56c-38 -34 -69.333 -51 -94 -51z
M215.999 -10c-38.667 0 -68.001 11.332 -88.001 33.999s-30 52 -30 88s6.66699 80.667 20 134l59 254h74l-58 -249c-12.667 -50.667 -19 -90.667 -19 -120c0 -50 22.667 -75 68 -75c20 0 42.833 9.33301 68.5 28s46.167 37.334 61.5 56.001l24 28l77 332h74l-115 -500h-73
l18 87c-6 -7.33301 -13.833 -16.333 -23.5 -27s-28.667 -25 -57 -43s-55.166 -27 -80.499 -27z" />
    <glyph glyph-name="Umacron" unicode="&#x16a;" horiz-adv-x="594" 
d="M189 144c0 -57.333 42.666 -86.001 127.999 -86.001c52.667 0 92.167 12.333 118.5 37s45.5 63.334 57.5 116.001l111 481h77l-111 -481c-17.333 -76 -46.166 -131.833 -86.499 -167.5s-94.833 -53.5 -163.5 -53.5c-138 0 -207 48 -207 144c0 32.667 3.66699 63 11 91
l108 467h77l-110 -475c-6.66699 -26.667 -10 -51 -10 -73zM330.999 822.999l13 60h294l-14 -60h-293z" />
    <glyph glyph-name="umacron" unicode="&#x16b;" horiz-adv-x="498" 
d="M216 -10c-38.667 0 -68.001 11.332 -88.001 33.999s-30 52 -30 88s6.66699 80.667 20 134l59 254h74l-58 -249c-12.667 -50.667 -19 -90.667 -19 -120c0 -50 22.667 -75 68 -75c20 0 42.833 9.33301 68.5 28s46.167 37.334 61.5 56.001l24 28l77 332h74l-115 -500h-73
l18 87c-6 -7.33301 -13.833 -16.333 -23.5 -27s-28.667 -25 -57 -43s-55.166 -27 -80.499 -27zM243.999 638.999l14 59h275l-15 -59h-274z" />
    <glyph glyph-name="Ubreve" unicode="&#x16c;" horiz-adv-x="594" 
d="M466 796c-76.667 0 -114.999 32.333 -114.999 97c0 9.33301 1 19.333 3 30h66c-1.33301 -6.66699 -2 -15.167 -2 -25.5s4.5 -19.833 13.5 -28.5s24.333 -13 46 -13s41 6.16699 58 18.5s28.5 28.5 34.5 48.5h66c-24.667 -84.667 -81.334 -127 -170.001 -127zM189.001 144
c0 -57.333 42.666 -86.001 127.999 -86.001c52.667 0 92.167 12.333 118.5 37s45.5 63.334 57.5 116.001l111 481h77l-111 -481c-17.333 -76 -46.166 -131.833 -86.499 -167.5s-94.833 -53.5 -163.5 -53.5c-138 0 -207 48 -207 144c0 32.667 3.66699 63 11 91l108 467h77
l-110 -475c-6.66699 -26.667 -10 -51 -10 -73z" />
    <glyph glyph-name="ubreve" unicode="&#x16d;" horiz-adv-x="498" 
d="M216 -10c-38.667 0 -68.001 11.332 -88.001 33.999s-30 52 -30 88s6.66699 80.667 20 134l59 254h74l-58 -249c-12.667 -50.667 -19 -90.667 -19 -120c0 -50 22.667 -75 68 -75c20 0 42.833 9.33301 68.5 28s46.167 37.334 61.5 56.001l24 28l77 332h74l-115 -500h-73
l18 87c-6 -7.33301 -13.833 -16.333 -23.5 -27s-28.667 -25 -57 -43s-55.166 -27 -80.499 -27zM327.999 730.999c-2 -8 -3.00098 -16.832 -3.00098 -26.499s4.33301 -20.334 13 -32.001s25.667 -17.5 51 -17.5c50.667 0 83.334 25.333 98.001 76h65
c-26.667 -92 -87 -138 -181 -138c-43.333 0 -74.333 12.333 -93 37c-12.667 17.333 -19 39 -19 65c0 11.333 1.33301 23.333 4 36h65z" />
    <glyph glyph-name="Uring" unicode="&#x16e;" horiz-adv-x="594" 
d="M552 768c-22.667 -18 -50.1709 -27 -82.5039 -27s-56.166 9 -71.499 27c-10 11.333 -15 23.5 -15 36.5s1.66699 25.167 5 36.5c8.66699 33.333 24.334 58.333 47.001 75s49.834 25 81.501 25s54.834 -8.33301 69.501 -25c10 -10.667 15 -23 15 -37
c0 -48 -16.333 -85 -49 -111zM437.996 841c-1.33301 -4.66699 -2 -10.001 -2 -16.001s3.16699 -12.833 9.5 -20.5s17.833 -11.5 34.5 -11.5c36.667 0 58.667 16 66 48c0.666992 4.66699 1 10.334 1 17.001s-3.33301 13.5 -10 20.5s-17.667 10.5 -33 10.5
c-36 0 -58 -16 -66 -48zM188.996 143.999c0 -57.333 42.666 -86.001 127.999 -86.001c52.667 0 92.167 12.333 118.5 37s45.5 63.334 57.5 116.001l111 481h77l-111 -481c-17.333 -76 -46.166 -131.833 -86.499 -167.5s-94.833 -53.5 -163.5 -53.5c-138 0 -207 48 -207 144
c0 32.667 3.66699 63 11 91l108 467h77l-110 -475c-6.66699 -26.667 -10 -51 -10 -73z" />
    <glyph glyph-name="uring" unicode="&#x16f;" horiz-adv-x="498" 
d="M338 712c20.667 18.667 44.5 28.001 71.5 28.001s45.833 -6.83301 56.5 -20.5s16 -29.834 16 -48.501c0 -5.33301 -0.333008 -10.666 -1 -15.999c-2.66699 -32.667 -15.167 -59.334 -37.5 -80.001s-48.333 -31 -78 -31s-50.167 9.33301 -61.5 28
c-6.66699 11.333 -10 23.333 -10 36c0 43.333 14.667 78 44 104zM363.5 676.001c-11 -8.66699 -17.666 -17.333 -19.999 -26s-3.5 -16 -3.5 -22s2.83301 -13.333 8.5 -22s15.167 -13 28.5 -13s25.666 4.66699 36.999 14c15.333 13.333 23 29 23 47
c0 7.33301 -2.83301 15 -8.5 23s-15.167 12 -28.5 12s-25.5 -4.33301 -36.5 -13zM216.001 -9.99805c-38.667 0 -68.001 11.332 -88.001 33.999s-30 52 -30 88s6.66699 80.667 20 134l59 254h74l-58 -249c-12.667 -50.667 -19 -90.667 -19 -120c0 -50 22.667 -75 68 -75
c20 0 42.833 9.33301 68.5 28s46.167 37.334 61.5 56.001l24 28l77 332h74l-115 -500h-73l18 87c-6 -7.33301 -13.833 -16.333 -23.5 -27s-28.667 -25 -57 -43s-55.166 -27 -80.499 -27z" />
    <glyph glyph-name="Uhungarumlaut" unicode="&#x170;" horiz-adv-x="594" 
d="M546 755l-42 30l164 131l49 -32zM357 756l-43 29l166 132l46 -32zM189 144c0 -57.333 42.666 -86.001 127.999 -86.001c52.667 0 92.167 12.333 118.5 37s45.5 63.334 57.5 116.001l111 481h77l-111 -481c-17.333 -76 -46.166 -131.833 -86.499 -167.5
s-94.833 -53.5 -163.5 -53.5c-138 0 -207 48 -207 144c0 32.667 3.66699 63 11 91l108 467h77l-110 -475c-6.66699 -26.667 -10 -51 -10 -73z" />
    <glyph glyph-name="uhungarumlaut" unicode="&#x171;" horiz-adv-x="498" 
d="M468 582l-39 41l169 139l43 -43zM286 582l-39 41l168 138l43 -42zM216 -10c-38.667 0 -68.001 11.332 -88.001 33.999s-30 52 -30 88s6.66699 80.667 20 134l59 254h74l-58 -249c-12.667 -50.667 -19 -90.667 -19 -120c0 -50 22.667 -75 68 -75
c20 0 42.833 9.33301 68.5 28s46.167 37.334 61.5 56.001l24 28l77 332h74l-115 -500h-73l18 87c-6 -7.33301 -13.833 -16.333 -23.5 -27s-28.667 -25 -57 -43s-55.166 -27 -80.499 -27z" />
    <glyph glyph-name="Uogonek" unicode="&#x172;" horiz-adv-x="595" 
d="M293 -9c14.667 12 23.332 18.999 25.999 20.999l63 -8c-19.333 -15.333 -39.5 -35.333 -60.5 -60s-31.5 -45 -31.5 -61c0 -13.333 8 -20 24 -20l48 5l-7 -63c-30 -6 -55.667 -9 -77 -9c-46.667 0 -70 21 -70 63c0 36 28.333 80 85 132c-56 2 -99.833 14.833 -131.5 38.5
s-47.5 58.5 -47.5 104.5c0 32.667 3.66699 63 11 91l108 467h77l-110 -475c-6.66699 -26.667 -10 -51 -10 -73c0 -57.333 42.667 -86 128 -86c52.667 0 92.167 12.333 118.5 37s45.5 63.334 57.5 116.001l111 481h77l-111 -481c-17.333 -76 -46.166 -131.833 -86.499 -167.5
s-97.833 -53.5 -172.5 -53.5c-2.66699 0 -6 0.166992 -10 0.5s-7 0.5 -9 0.5z" />
    <glyph glyph-name="uogonek" unicode="&#x173;" horiz-adv-x="498" 
d="M339 -117c0 -13.333 7.99902 -20.001 23.999 -20.001l48 5l-7 -63c-30 -6 -55.667 -9 -77 -9c-46.667 0 -70 21 -70 63c0 22.667 10.833 47.5 32.5 74.5s45.167 50.833 70.5 71.5l17 82c-6 -7.33301 -13.833 -16.333 -23.5 -27s-28.667 -25 -57 -43
s-55.166 -27 -80.499 -27c-38.667 0 -68 11.333 -88 34s-30 52 -30 88s6.66699 80.667 20 134l59 254h74l-58 -249c-12.667 -50.667 -19 -90.667 -19 -120c0 -50 22.667 -75 68 -75c20 0 42.833 9.33301 68.5 28s46.167 37.334 61.5 56.001l24 28l77 332h74l-115 -500
c-20 -14 -40.5 -33 -61.5 -57s-31.5 -44 -31.5 -60z" />
    <glyph glyph-name="Wcircumflex" unicode="&#x174;" horiz-adv-x="829" 
d="M436 790l164 138h41l96 -138h-69l-54 81l-96 -81h-82zM187 692h76l-31 -621h26l269 611h84l-19 -611h26l262 621h77l-298 -692h-133l19 570l-248 -570h-137z" />
    <glyph glyph-name="wcircumflex" unicode="&#x175;" horiz-adv-x="731" 
d="M144 500h75l-9 -435h19l205 425h88l4 -425h19l196 435h76l-227 -500h-133l-3 393l-187 -393h-130zM346 587l155 151h40l87 -151h-69l-48 86l-89 -86h-76z" />
    <glyph glyph-name="Ycircumflex" unicode="&#x176;" horiz-adv-x="493" 
d="M272 790l164 138h41l96 -138h-69l-54 81l-96 -81h-82zM641 692l-293 -396l-69 -296h-73l70 302l-106 390h78l81 -323l229 323h83z" />
    <glyph glyph-name="ycircumflex" unicode="&#x177;" horiz-adv-x="454" 
d="M139 500h74l8 -436h30l218 436h77l-365 -721h-76l115 221h-68zM216 587l155 151h40l87 -151h-69l-48 86l-89 -86h-76z" />
    <glyph glyph-name="Ydieresis" unicode="&#x178;" horiz-adv-x="493" 
d="M298 813l21 93h62l-23 -93h-60zM485 813l22 93h62l-23 -93h-61zM641 692l-293 -396l-69 -296h-73l70 302l-106 390h78l81 -323l229 323h83z" />
    <glyph glyph-name="Zacute" unicode="&#x179;" horiz-adv-x="495" 
d="M336 785l-9 57l228 94l9 -65zM184 624l16 68h416l-24 -102l-448 -498l-6 -24h332l-16 -68h-416l22 99l448 498l6 27h-330z" />
    <glyph glyph-name="zacute" unicode="&#x17a;" horiz-adv-x="418" 
d="M154 500h341l-14 -64l-341 -371h255l-15 -65h-342l12 64l340 371h-252zM258 596l-7 58l228 94l7 -66z" />
    <glyph glyph-name="Zdotaccent" unicode="&#x17b;" horiz-adv-x="495" 
d="M394 830l20 90h64l-21 -90h-63zM184 624l16 68h416l-24 -102l-448 -498l-6 -24h332l-16 -68h-416l22 99l448 498l6 27h-330z" />
    <glyph glyph-name="zdotaccent" unicode="&#x17c;" horiz-adv-x="418" 
d="M154 500h341l-14 -64l-341 -371h255l-15 -65h-342l12 64l340 371h-252zM306 605l21 89h64l-21 -89h-64z" />
    <glyph glyph-name="Zcaron" unicode="&#x17d;" horiz-adv-x="495" 
d="M606 925l-157 -137h-47l-98 137h74l58 -82l93 82h77zM184 624l16 68h416l-24 -102l-448 -498l-6 -24h332l-16 -68h-416l22 99l448 498l6 27h-330z" />
    <glyph glyph-name="zcaron" unicode="&#x17e;" horiz-adv-x="418" 
d="M355 587h-42l-85 151h69l51 -89l90 89h75zM138 435l16 65h341l-14 -64l-341 -371h255l-15 -65h-342l12 64l340 371h-252z" />
    <glyph glyph-name="florin" unicode="&#x192;" 
d="M97 -243c-19.333 0 -39.667 2.00098 -61 6.00098l-10 2l15 64c25.333 -2 48 -3 68 -3c41.333 0 71.333 37 90 111l101 422h-103l16 72h104l12 51c20 77.333 43.167 130.666 69.5 159.999s63 44 110 44s83.5 -3 109.5 -9l-16 -66c-46 2.66699 -78.333 4 -97 4
c-28.667 0 -50.5 -11.333 -65.5 -34s-28.5 -60.667 -40.5 -114l-9 -36h157l-17 -72h-156l-102 -426c-15.333 -64.667 -36.833 -110.167 -64.5 -136.5s-64.5 -39.5 -110.5 -39.5z" />
    <glyph glyph-name="Aringacute" unicode="&#x1fa;" horiz-adv-x="554" 
d="M358 669c-8 10.667 -12.002 22.333 -12.002 35s1.33301 24.667 4 36c8.66699 33.333 24.334 58.333 47.001 75s49.834 25 81.501 25s54.834 -8.33301 69.501 -25c10 -10.667 15 -23 15 -37s-1.33301 -26.667 -4 -38c-8.66699 -30.667 -22.334 -54 -41.001 -70l14 -670
h-76l-6 177h-259l-89 -177h-78zM413.998 623.999l-191 -380h228l-7 380h-30zM386.998 875.999l-7 58l228 94l7 -66zM399.998 739.999c-1.33301 -4.66699 -1.99902 -10.001 -1.99902 -16.001s3.16699 -12.833 9.5 -20.5s17.833 -11.5 34.5 -11.5h5
c33.333 1.33301 53.666 17.333 60.999 48c0.666992 4.66699 1 10.334 1 17.001s-3.33301 13.5 -10 20.5s-17.667 10.5 -33 10.5c-36 0 -58 -16 -66 -48z" />
    <glyph glyph-name="aringacute" unicode="&#x1fb;" horiz-adv-x="500" 
d="M345 768l-8 65l228 93l8 -73zM217 -10c-85.333 0 -128.002 49.666 -128.002 148.999c0 55.333 8.83301 110.5 26.5 165.5s46.5 103 86.5 144s86.333 61.5 139 61.5c40.667 0 96.334 -6 167.001 -18l38 -7l-76 -325c-9.33301 -37.333 -17.333 -81.333 -24 -132l-4 -26
l-73 -3c9.33301 57.333 15.333 93 18 107c-3.33301 -6 -13.166 -17.5 -29.499 -34.5s-30.833 -30.667 -43.5 -41s-28 -19.666 -46 -27.999s-35 -12.5 -51 -12.5zM458.998 430.999c-46.667 9.33301 -86.833 14 -120.5 14s-64.5 -17.167 -92.5 -51.5s-48.333 -74.333 -61 -120
s-19 -86.5 -19 -122.5s5.66699 -61 17 -75s28.333 -21 51 -21s47.5 10.833 74.5 32.5s49.5 43.5 67.5 65.5l26 33zM351.999 711.999c20.667 18.667 44.5 28.001 71.5 28.001s45.833 -6.83301 56.5 -20.5s16 -29.834 16 -48.501c0 -5.33301 -0.333008 -10.666 -1 -15.999
c-2.66699 -32.667 -15.167 -59.334 -37.5 -80.001s-48.333 -31 -78 -31s-50.167 9.33301 -61.5 28c-6.66699 11.333 -10 23.333 -10 36c0 43.333 14.667 78 44 104zM377.499 676c-11 -8.66699 -17.666 -17.333 -19.999 -26s-3.5 -16 -3.5 -22s2.83301 -13.333 8.5 -22
s15.167 -13 28.5 -13s25.666 4.66699 36.999 14c15.333 13.333 23 29 23 47c0 7.33301 -2.83301 15 -8.5 23s-15.167 12 -28.5 12s-25.5 -4.33301 -36.5 -13z" />
    <glyph glyph-name="AEacute" unicode="&#x1fc;" horiz-adv-x="780" 
d="M348 0l41 177h-201l-90 -177h-73l345 696h530l-15 -72l-317 2l-57 -240h260l-15 -69h-261l-58 -245h315l-15 -72h-389zM408 624l-187 -377h185l90 377h-88zM547 785l-9 57l228 94l9 -65z" />
    <glyph glyph-name="aeacute" unicode="&#x1fd;" horiz-adv-x="749" 
d="M441 145c0 -56.667 30.001 -84.998 90.001 -84.998c48 0 96.333 2 145 6l28 3l-13 -63c-67.333 -10.667 -130 -16 -188 -16s-98.333 18 -121 54c-29.333 -12.667 -65.833 -24.834 -109.5 -36.501s-79.167 -17.5 -106.5 -17.5c-42 0 -71.333 15.333 -88 46
c-10.667 19.333 -16 38.333 -16 57s1.66699 35.667 5 51c8.66699 46 27.667 80 57 102s67.5 36.833 114.5 44.5s98.167 12.5 153.5 14.5c10 29.333 15 53.666 15 72.999c0 39.333 -20 59 -60 59c-48 0 -98.333 -2.66699 -151 -8l-29 -3l12 69c76 10 133.333 15 172 15
c73.333 0 114.666 -24.667 123.999 -74c40.667 49.333 96 74 166 74c94 0 142 -45 144 -135c0 -35.333 -4.66699 -69.666 -14 -102.999l-15 -55l-305 2c-6.66699 -28.667 -10 -53.334 -10 -74.001zM139.001 118.002c0 -40.667 17 -60.998 51 -60.998
c41.333 0 100 12.667 176 38c-2 9.33301 -3 24.666 -3 45.999s5.66699 55.666 17 102.999c-48 -4 -94 -8.66699 -138 -14c-54.667 -8.66699 -88 -36.667 -100 -84c-2 -10 -3 -19.333 -3 -28zM701.001 278.004c7.33301 28 11 48.5 11 61.5v24.5c-2 52 -31.333 78 -88 78
c-41.333 0 -75 -13 -101 -39s-45.667 -67 -59 -123zM431.001 596.004l-7 58l228 94l7 -66z" />
    <glyph glyph-name="Oslashacute" unicode="&#x1fe;" horiz-adv-x="630" 
d="M160 44c-30 32 -44.999 86.833 -44.999 164.5s13.833 155.834 41.5 234.501s67.167 141.5 118.5 188.5s112.333 70.5 183 70.5c53.333 0 96.666 -9.33301 129.999 -28l84 123l47 -21l-91 -134c30 -35.333 45 -84.333 45 -147c0 -90 -14.167 -175.333 -42.5 -256
s-68.5 -142.334 -120.5 -185.001s-113 -64 -183 -64c-52.667 0 -95 8 -127 24l-88 -128l-42 25zM545.001 611c-21.333 15.333 -52.667 23 -94 23s-77.333 -12.333 -108 -37c-46 -38 -82.333 -95.667 -109 -173s-40 -151.333 -40 -222c0 -38 4.66699 -66.667 14 -86zM243 77
c21.333 -12.667 53.333 -19.001 96 -19.001s80.334 13.333 113.001 40c45.333 37.333 80.166 93.333 104.499 168s36.5 149.334 36.5 224.001c0 34 -4.66699 60.667 -14 80l-163 -241zM420 777.999l-9 64l228 94l10 -72z" />
    <glyph glyph-name="oslashacute" unicode="&#x1ff;" horiz-adv-x="494" 
d="M343 510c34.667 0 63.9971 -5.33105 87.9971 -15.998l68 111l45 -20l-74 -116c30.667 -28.667 46 -72.834 46 -132.501s-9.83301 -115.834 -29.5 -168.501s-49.167 -95.5 -88.5 -128.5s-84.666 -49.5 -135.999 -49.5c-33.333 0 -61.666 4.33301 -84.999 13l-70 -114
l-44 19l75 118c-31.333 26 -47 68.667 -47 128c0 96 23.833 179.333 71.5 250s107.834 106 180.501 106zM342.997 445.002c-52 0 -94.5 -29.167 -127.5 -87.5s-49.5 -126.5 -49.5 -204.5c0 -24.667 4.66699 -44.667 14 -60l106 166l108 175
c-14.667 7.33301 -31.667 11 -51 11zM261.997 55.002c53.333 0 96.5 28.167 129.5 84.5s49.5 123.5 49.5 201.5c0 23.333 -4.66699 43.333 -14 60l-103 -162l-109 -176c14 -5.33301 29.667 -8 47 -8zM293.997 596.002l-7 58l228 94l7 -66z" />
    <glyph glyph-name="Scommaaccent" unicode="&#x218;" horiz-adv-x="499" 
d="M211 -73h70l-96 -210h-61zM577 617c-70.667 12 -130.332 18 -178.999 18s-87.167 -12.5 -115.5 -37.5s-42.5 -61.167 -42.5 -108.5c0 -26.667 8.16699 -46 24.5 -58s50.333 -27.167 102 -45.5s87.667 -38.166 108 -59.499s30.5 -53.666 30.5 -96.999
c0 -74.667 -22.333 -133.167 -67 -175.5s-105 -63.5 -181 -63.5c-56.667 0 -114 6.66699 -172 20l-29 6l13 60c77.333 -12 141.666 -18 192.999 -18s91.5 14.167 120.5 42.5s43.5 68.833 43.5 121.5c0 27.333 -7.33301 47.5 -22 60.5s-47 28.167 -97 45.5
s-86.667 36.666 -110 57.999s-35 53.666 -35 96.999c0 68 21.833 121.5 65.5 160.5s102.5 58.5 176.5 58.5c54.667 0 108 -7 160 -21l26 -7z" />
    <glyph glyph-name="scommaaccent" unicode="&#x219;" horiz-adv-x="428" 
d="M469 431c-63.333 9.33301 -114.167 14 -152.5 14s-67.833 -9.5 -88.5 -28.5s-31 -41.833 -31 -68.5c0 -16 6 -28 18 -36s39.833 -17.667 83.5 -29s75.834 -24.166 96.501 -38.499s31 -38.5 31 -72.5c0 -58.667 -20.333 -103.667 -61 -135s-93 -47 -157 -47
c-42.667 0 -88 6 -136 18l-22 5l14 58c61.333 -10.667 112.166 -16 152.499 -16s72.5 8.66699 96.5 26s36 42.666 36 75.999c0 18.667 -6.33301 31.834 -19 39.501s-40.167 16.667 -82.5 27s-73.833 22.833 -94.5 37.5s-31 37.667 -31 69c0 53.333 18.667 96.666 56 129.999
s84.333 50 141 50c50 0 97 -5.33301 141 -16l24 -5zM171.999 -73h70l-96 -210h-61z" />
    <glyph glyph-name="Tcommaaccent" unicode="&#x21a;" horiz-adv-x="469" 
d="M186 -73h70l-96 -210h-61zM154 624l16 68h447l-16 -68h-186l-144 -624h-76l144 624h-185z" />
    <glyph glyph-name="tcommaaccent" unicode="&#x21b;" horiz-adv-x="318" 
d="M191 101c0 -30.667 16.667 -46 50 -46l77 6l-5 -57c-34.667 -9.33301 -67.667 -14 -99 -14s-56 8.33301 -74 25s-27 39 -27 67s5.33301 63.333 16 106l58 247h-66l17 65h65l35 148h75l-36 -148h140l-16 -65h-140l-58 -251c-8 -32 -12 -59.667 -12 -83zM141 -73h70
l-96 -210h-61z" />
    <glyph glyph-name="circumflex" unicode="&#x2c6;" horiz-adv-x="791" 
d="M384 587l155 151h40l87 -151h-69l-48 86l-89 -86h-76z" />
    <glyph glyph-name="caron" unicode="&#x2c7;" horiz-adv-x="791" 
d="M545 587h-42l-85 151h69l51 -89l90 89h75z" />
    <glyph glyph-name="breve" unicode="&#x2d8;" horiz-adv-x="439" 
d="M302 731c-2 -8 -3.00098 -16.832 -3.00098 -26.499s4.33301 -20.334 13 -32.001s25.667 -17.5 51 -17.5c50.667 0 83.334 25.333 98.001 76h65c-26.667 -92 -87 -138 -181 -138c-43.333 0 -74.333 12.333 -93 37c-12.667 17.333 -19 39 -19 65
c0 11.333 1.33301 23.333 4 36h65z" />
    <glyph glyph-name="dotaccent" unicode="&#x2d9;" horiz-adv-x="224" 
d="M222 605l21 89h64l-21 -89h-64z" />
    <glyph glyph-name="ring" unicode="&#x2da;" horiz-adv-x="791" 
d="M354 712c20.667 18.667 44.5 28.001 71.5 28.001s45.833 -6.83301 56.5 -20.5s16 -29.834 16 -48.501c0 -5.33301 -0.333008 -10.666 -1 -15.999c-2.66699 -32.667 -15.167 -59.334 -37.5 -80.001s-48.333 -31 -78 -31s-50.167 9.33301 -61.5 28
c-6.66699 11.333 -10 23.333 -10 36c0 43.333 14.667 78 44 104zM379.5 676.001c-11 -8.66699 -17.666 -17.333 -19.999 -26s-3.5 -16 -3.5 -22s2.83301 -13.333 8.5 -22s15.167 -13 28.5 -13s25.666 4.66699 36.999 14c15.333 13.333 23 29 23 47
c0 7.33301 -2.83301 15 -8.5 23s-15.167 12 -28.5 12s-25.5 -4.33301 -36.5 -13z" />
    <glyph glyph-name="ogonek" unicode="&#x2db;" horiz-adv-x="427" 
d="M215 -204c-46.667 0 -70.001 20.999 -70.001 62.999c0 24 12.333 50.833 37 80.5s49.334 53.834 74.001 72.501l63 -8c-19.333 -15.333 -39.5 -35.333 -60.5 -60s-31.5 -45 -31.5 -61c0 -13.333 8 -20 24 -20l48 5l-7 -63c-30 -6 -55.667 -9 -77 -9z" />
    <glyph glyph-name="tilde" unicode="&#x2dc;" horiz-adv-x="427" 
d="M430 614c-14 0 -36.668 8 -68.001 24s-50.666 24 -57.999 24c-14 0 -36.333 -10.667 -67 -32l-15 -11l-3 56c41.333 35.333 74.333 53 99 53c16 0 39.167 -8 69.5 -24s48.833 -24 55.5 -24c12.667 0 33 10 61 30l15 11l5 -56c-38 -34 -69.333 -51 -94 -51z" />
    <glyph glyph-name="hungarumlaut" unicode="&#x2dd;" horiz-adv-x="666" 
d="M502 582l-39 41l169 139l43 -43zM320 582l-39 41l168 138l43 -42z" />
    <glyph glyph-name="pi" unicode="&#x3c0;" 
d="M423 154l0.00292969 280.999h-156l-28 -435h-76l31 435c-36 0 -68 -3.33301 -96 -10l-12 -3v63c39.333 10 86.666 15 141.999 15h235c43.333 0 81.666 3.33301 114.999 10l16 4v-63c-18.667 -8 -50.667 -12.667 -96 -14v-283c0 -37.333 5.66699 -62.166 17 -74.499
s34.666 -18.5 69.999 -18.5v-65c-66 0 -109.5 10.333 -130.5 31s-31.5 63 -31.5 127z" />
    <glyph glyph-name="Wgrave" unicode="&#x1e80;" horiz-adv-x="829" 
d="M508 930l185 -94l-34 -56l-188 86zM187 692h76l-31 -621h26l269 611h84l-19 -611h26l262 621h77l-298 -692h-133l19 570l-248 -570h-137z" />
    <glyph glyph-name="wgrave" unicode="&#x1e81;" horiz-adv-x="731" 
d="M386 741l185 -93l-33 -52l-188 86zM144 500h75l-9 -435h19l205 425h88l4 -425h19l196 435h76l-227 -500h-133l-3 393l-187 -393h-130z" />
    <glyph glyph-name="Wacute" unicode="&#x1e82;" horiz-adv-x="829" 
d="M505 785l-9 57l228 94l9 -65zM187 692h76l-31 -621h26l269 611h84l-19 -611h26l262 621h77l-298 -692h-133l19 570l-248 -570h-137z" />
    <glyph glyph-name="wacute" unicode="&#x1e83;" horiz-adv-x="731" 
d="M144 500h75l-9 -435h19l205 425h88l4 -425h19l196 435h76l-227 -500h-133l-3 393l-187 -393h-130zM406 596l-7 58l228 94l7 -66z" />
    <glyph glyph-name="Wdieresis" unicode="&#x1e84;" horiz-adv-x="829" 
d="M468 814l21 93h62l-23 -93h-60zM655 814l22 93h62l-23 -93h-61zM187 692h76l-31 -621h26l269 611h84l-19 -611h26l262 621h77l-298 -692h-133l19 570l-248 -570h-137z" />
    <glyph glyph-name="wdieresis" unicode="&#x1e85;" horiz-adv-x="731" 
d="M144 500h75l-9 -435h19l205 425h88l4 -425h19l196 435h76l-227 -500h-133l-3 393l-187 -393h-130zM373 620l21 93h62l-22 -93h-61zM556 620l20 93h62l-22 -93h-60z" />
    <glyph glyph-name="uni1EAB" unicode="&#x1eab;" horiz-adv-x="500" 
d="M217 -10c-85.333 0 -128.002 49.666 -128.002 148.999c0 55.333 8.83301 110.5 26.5 165.5s46.5 103 86.5 144s86.333 61.5 139 61.5c40.667 0 96.334 -6 167.001 -18l38 -7l-76 -325c-9.33301 -37.333 -17.333 -81.333 -24 -132l-4 -26l-73 -3
c9.33301 57.333 15.333 93 18 107c-3.33301 -6 -13.166 -17.5 -29.499 -34.5s-30.833 -30.667 -43.5 -41s-28 -19.666 -46 -27.999s-35 -12.5 -51 -12.5zM458.998 430.999c-46.667 9.33301 -86.833 14 -120.5 14s-64.5 -17.167 -92.5 -51.5s-48.333 -74.333 -61 -120
s-19 -86.5 -19 -122.5s5.66699 -61 17 -75s28.333 -21 51 -21s47.5 10.833 74.5 32.5s49.5 43.5 67.5 65.5l26 33zM504.999 737.999c-14 0 -36.668 8 -68.001 24s-51 24 -59 24c-13.333 0 -35.333 -10.667 -66 -32l-15 -11l-3 56c41.333 35.333 74.333 53 99 53
c16 0 39.167 -8 69.5 -24s48.833 -24 55.5 -24c12.667 0 33.334 10 62.001 30l14 11l5 -56c-38 -34 -69.333 -51 -94 -51zM251.998 556.999l155 151h40l87 -151h-69l-48 86l-89 -86h-76z" />
    <glyph glyph-name="uni1EB0" unicode="&#x1eb0;" horiz-adv-x="554" 
d="M441 1083l185 -93l-33 -52l-188 86zM24 0l345 692h149l14 -692h-76l-6 177h-259l-89 -177h-78zM414 624l-191 -380h228l-7 380h-30zM457 756c-76.667 0 -114.999 32.333 -114.999 97c0 9.33301 1 19.333 3 30h66c-1.33301 -6.66699 -2 -15.167 -2 -25.5
s4.5 -19.833 13.5 -28.5s24.333 -13 46 -13s41 6.16699 58 18.5s28.5 28.5 34.5 48.5h66c-24.667 -84.667 -81.334 -127 -170.001 -127z" />
    <glyph glyph-name="uni1EC5" unicode="&#x1ec5;" horiz-adv-x="462" 
d="M486 738c-14 0 -36.668 8 -68.001 24s-50.666 24 -57.999 24c-14 0 -36.333 -10.667 -67 -32l-15 -11l-3 56c41.333 35.333 74.333 53 99 53c16 0 39.167 -8 69.5 -24s48.833 -24 55.5 -24c12.667 0 33 10 61 30l15 11l5 -56c-38 -34 -69.333 -51 -94 -51zM191.999 79.5
c17.333 -15.667 38.666 -23.5 63.999 -23.5c47.333 0 96 5.33301 146 16l25 6l-6 -59c-59.333 -19.333 -116.333 -29 -171 -29c-106 0 -159 50.667 -159 152c0 92.667 21 175.334 63 248.001c21.333 36 49.833 65 85.5 87s75.834 33 120.501 33
c98.667 0 148 -40.667 148 -122c0 -59.333 -22.333 -100.833 -67 -124.5s-115.667 -35.5 -213 -35.5h-51c-7.33301 -26 -11 -53.333 -11 -82s8.66699 -50.834 26 -66.501zM241.999 287c68 0 117 7.16699 147 21.5s45 40.5 45 78.5c0 40 -25.667 60 -77 60
c-82 0 -138.667 -53.333 -170 -160h55zM232.999 557l155 151h40l87 -151h-69l-48 86l-89 -86h-76z" />
    <glyph glyph-name="uni1ED7" unicode="&#x1ed7;" horiz-adv-x="494" 
d="M343 510c115.333 0 172.998 -56.667 172.998 -170c0 -62 -9.83301 -119.333 -29.5 -172s-49.167 -95.5 -88.5 -128.5s-84.666 -49.5 -135.999 -49.5c-114 0 -171 54.667 -171 164c0 96 23.833 179.333 71.5 250s107.834 106 180.501 106zM261.998 55
c53.333 0 96.5 28.167 129.5 84.5s49.5 123.5 49.5 201.5c0 32 -8.16699 57.333 -24.5 76s-40.833 28 -73.5 28c-52 0 -94.5 -29.167 -127.5 -87.5s-49.5 -126.5 -49.5 -204.5c0 -65.333 32 -98 96 -98zM490.998 738c-14 0 -36.668 8 -68.001 24s-51 24 -59 24
c-13.333 0 -35.333 -10.667 -66 -32l-15 -11l-3 56c41.333 35.333 74.333 53 99 53c16 0 39.167 -8 69.5 -24s48.833 -24 55.5 -24c12.667 0 33.334 10 62.001 30l14 11l5 -56c-38 -34 -69.333 -51 -94 -51zM231.997 557l155 151h40l87 -151h-69l-48 86l-89 -86h-76z" />
    <glyph glyph-name="Ygrave" unicode="&#x1ef2;" horiz-adv-x="493" 
d="M341 930l185 -94l-34 -56l-188 86zM641 692l-293 -396l-69 -296h-73l70 302l-106 390h78l81 -323l229 323h83z" />
    <glyph glyph-name="ygrave" unicode="&#x1ef3;" horiz-adv-x="454" 
d="M252 741l185 -93l-33 -52l-188 86zM139 500h74l8 -436h30l218 436h77l-365 -721h-76l115 221h-68z" />
    <glyph glyph-name="uni1EF8" unicode="&#x1ef8;" horiz-adv-x="493" 
d="M501 810c-14 0 -36.668 8 -68.001 24s-51 24 -59 24c-13.333 0 -35.333 -10.667 -66 -32l-15 -11l-3 56c41.333 35.333 74.333 53 99 53c16 0 39.167 -8 69.5 -24s48.833 -24 55.5 -24c12.667 0 33.334 10 62.001 30l14 11l5 -56c-38 -34 -69.333 -51 -94 -51z
M640.999 692l-293 -396l-69 -296h-73l70 302l-106 390h78l81 -323l229 323h83z" />
    <glyph glyph-name="uni1EF9" unicode="&#x1ef9;" horiz-adv-x="454" 
d="M440 614c-14 0 -36.668 8 -68.001 24s-50.666 24 -57.999 24c-14 0 -36.333 -10.667 -67 -32l-15 -11l-3 56c41.333 35.333 74.333 53 99 53c16 0 39.167 -8 69.5 -24s48.833 -24 55.5 -24c12.667 0 33 10 61 30l15 11l5 -56c-38 -34 -69.333 -51 -94 -51zM138.999 500
h74l8 -436h30l218 436h77l-365 -721h-76l115 221h-68z" />
    <glyph glyph-name="endash" unicode="&#x2013;" horiz-adv-x="594" 
d="M109 301h500v-66h-500v66z" />
    <glyph glyph-name="emdash" unicode="&#x2014;" horiz-adv-x="1094" 
d="M109 301h1000v-66h-1000v66z" />
    <glyph glyph-name="quoteleft" unicode="&#x2018;" horiz-adv-x="181" 
d="M252 691h56l-91 -223h-76z" />
    <glyph glyph-name="quoteright" unicode="&#x2019;" horiz-adv-x="181" 
d="M199 469h-56l91 223h76z" />
    <glyph glyph-name="quotesinglbase" unicode="&#x201a;" horiz-adv-x="172" 
d="M42 -134h-56l91 223h76z" />
    <glyph glyph-name="quotedblleft" unicode="&#x201c;" horiz-adv-x="338" 
d="M251 692h56l-91 -223h-76zM409 692h56l-91 -223h-76z" />
    <glyph glyph-name="quotedblright" unicode="&#x201d;" horiz-adv-x="339" 
d="M199 469h-56l91 223h76zM357 469h-56l91 223h76z" />
    <glyph glyph-name="quotedblbase" unicode="&#x201e;" horiz-adv-x="325" 
d="M248 88h56l-91 -223h-76zM82 88h56l-91 -223h-76z" />
    <glyph glyph-name="dagger" unicode="&#x2020;" horiz-adv-x="444" 
d="M126 421l17 77l158 -2l45 190h70l-44 -188h158l-17 -77l-159 1l-118 -497h-69l116 496h-157z" />
    <glyph glyph-name="daggerdbl" unicode="&#x2021;" horiz-adv-x="481" 
d="M187 -75l44 188h-159l17 76l159 -1l55 233h-157l17 77l158 -2l45 190h70l-44 -188h158l-18 -77l-158 1l-55 -233h158l-18 -76l-158 1l-45 -189h-69z" />
    <glyph glyph-name="bullet" unicode="&#x2022;" horiz-adv-x="485" 
d="M175 106v286h250v-286h-250z" />
    <glyph glyph-name="ellipsis" unicode="&#x2026;" horiz-adv-x="640" 
d="M47 0l26 111h76l-26 -111h-76zM283 0l26 111h76l-26 -111h-76zM518 0l26 111h76l-26 -111h-76z" />
    <glyph glyph-name="perthousand" unicode="&#x2030;" horiz-adv-x="816" 
d="M249 473c18.667 0 33.5 7.16797 44.5 21.501s19.833 34.166 26.5 59.499s10 44.333 10 57c0 26 -12.333 39 -37 39c-32 0 -55 -26.333 -69 -79c-6 -24 -9 -42.667 -9 -56c0 -28 11.333 -42 34 -42zM156 4.00098l363 705l51 -14l-363 -704zM162 563.001
c22.667 92 70.667 138 144 138c56 0 84 -27 84 -81c0 -16 -2.66699 -35 -8 -57c-11.333 -47.333 -29.833 -82.833 -55.5 -106.5s-55.667 -35.5 -90 -35.5s-58.5 11.667 -72.5 35c-6.66699 12.667 -10 28.167 -10 46.5s2.66699 38.5 8 60.5zM485 280.001
c56 0 84 -26.999 84 -80.999c0 -16.667 -2.66699 -36 -8 -58c-12 -46.667 -30.5 -81.834 -55.5 -105.501s-54.833 -35.5 -89.5 -35.5s-58.667 12 -72 36c-7.33301 12 -11 27.167 -11 45.5s2.66699 38.5 8 60.5c23.333 92 71.333 138 144 138zM508 189.002
c0 26 -11.666 39.001 -34.999 39.001c-18 0 -32.5 -6.83301 -43.5 -20.5s-19.5 -32.834 -25.5 -57.501s-9 -43.667 -9 -57c0 -28 11 -42 33 -42c33.333 0 57.666 30 72.999 90c4.66699 18.667 7 34.667 7 48zM743.001 280.003c56 0 84 -26.999 84 -80.999
c0 -16.667 -2.66699 -36 -8 -58c-12 -46.667 -30.5 -81.834 -55.5 -105.501s-54.833 -35.5 -89.5 -35.5s-58.667 12 -72 36c-7.33301 12 -11 27.167 -11 45.5s2.66699 38.5 8 60.5c23.333 92 71.333 138 144 138zM766.001 189.004c0 26 -12 39.002 -36 39.002
c-17.333 0 -31.5 -6.83301 -42.5 -20.5s-19.667 -32.834 -26 -57.501s-9.5 -43.334 -9.5 -56.001c0 -28.667 11.333 -43 34 -43c18 0 32.5 7.33301 43.5 22s19.833 34.5 26.5 59.5s10 43.833 10 56.5z" />
    <glyph glyph-name="guilsinglleft" unicode="&#x2039;" horiz-adv-x="256" 
d="M307 409l-22 -77l-131 -87l88 -96l-20 -69l-142 149l14 38z" />
    <glyph glyph-name="guilsinglright" unicode="&#x203a;" horiz-adv-x="257" 
d="M63 80l22 77l131 87l-88 96l20 69l142 -149l-14 -38z" />
    <glyph glyph-name="fraction" unicode="&#x2044;" horiz-adv-x="21" 
d="M-84 -25l-70 25l427 692l70 -26z" />
    <glyph glyph-name="zerosuperior" unicode="&#x2070;" horiz-adv-x="280" 
d="M327 800c59.333 0 89.001 -29.332 89.001 -87.999c0 -21.333 -3.66699 -47.333 -11 -78c-17.333 -70 -42.333 -117.333 -75 -142c-20 -16 -49.167 -24 -87.5 -24s-63.833 12 -76.5 36c-6 12 -9 28.667 -9 50s3.33301 48 10 80c17.333 69.333 42.333 116.666 75 141.999
c21.333 16 49.666 24 84.999 24zM349.001 700.001c0 27.333 -12.333 41 -37 41c-18.667 0 -34 -8 -46 -24s-22.167 -41.167 -30.5 -75.5s-12.5 -59.5 -12.5 -75.5c0 -26 12 -39 36 -39c18.667 0 34 7.5 46 22.5s22.333 39.833 31 74.5s13 60 13 76z" />
    <glyph glyph-name="foursuperior" unicode="&#x2074;" horiz-adv-x="280" 
d="M275 478l11 48h-141l13 55l122 209h72l-124 -205h73l28 88h58l-23 -88h27l-14 -59h-27l-12 -48h-63z" />
    <glyph glyph-name="fivesuperior" unicode="&#x2075;" horiz-adv-x="280" 
d="M319 594c0 18 -9.66602 26.999 -28.999 26.999s-39 -5 -59 -15l-48 6l54 178h187l-14 -57h-133l-24 -71c19.333 10 41.5 15 66.5 15s44.167 -8 57.5 -24c8 -10 12 -21.667 12 -35s-1.66699 -26.666 -5 -39.999c-18.667 -72 -63.667 -108 -135 -108
c-30.667 0 -60.334 3.33301 -89.001 10l-15 3l19 55c34.667 -7.33301 66.667 -11 96 -11s48 16.333 56 49c2 6.66699 3 12.667 3 18z" />
    <glyph glyph-name="sixsuperior" unicode="&#x2076;" horiz-adv-x="280" 
d="M411 736c-32.667 4 -59.833 6 -81.5 6s-38.834 -5.66699 -51.501 -17s-22.334 -30 -29.001 -56c26.667 9.33301 47.667 14 63 14c54.667 0 82 -22 82 -66c0 -10.667 -1.66699 -23 -5 -37c-19.333 -74.667 -65.666 -112 -138.999 -112c-58 0 -87 30 -87 90
c0 20.667 3.33301 44.667 10 72c14.667 60 35.334 103.333 62.001 130s62 40 106 40c22 0 46.333 -2.66699 73 -8l14 -2zM326.001 601c0 18 -10 27 -30 27s-40.667 -5.33301 -62 -16c-3.33301 -16.667 -5 -30.667 -5 -42c0 -30 11.333 -45 34 -45c30.667 0 50.667 18 60 54
c2 8.66699 3 16 3 22z" />
    <glyph glyph-name="sevensuperior" unicode="&#x2077;" horiz-adv-x="280" 
d="M199 728l15 62h208l-19 -77l-166 -244l-72 15l161 223l5 21h-132z" />
    <glyph glyph-name="eightsuperior" unicode="&#x2078;" horiz-adv-x="280" 
d="M245 468c-66.667 0 -100 22.001 -100 66.001c0 8.66699 1.33301 18.334 4 29.001c10.667 40 34 66.333 70 79c-20.667 8 -31 23.667 -31 47c0 7.33301 1.33301 16 4 26c14.667 56.667 60 85 136 85c64 0 96 -20.667 96 -62c0 -6.66699 -1 -14.334 -3 -23.001
c-10.667 -41.333 -31.667 -66 -63 -74c23.333 -8 35 -24 35 -48c0 -8 -1.33301 -16.667 -4 -26c-9.33301 -36.667 -25.833 -62.334 -49.5 -77.001s-55.167 -22 -94.5 -22zM215 551.001c0 -18.667 15.832 -28 47.499 -28s51.834 14.667 60.501 44c0.666992 4 1 8 1 12
c0 16 -9.66699 27.333 -29 34h-27c-28 -8 -45 -24.333 -51 -49c-1.33301 -4.66699 -2 -9 -2 -13zM355.999 720.001c0 16.667 -15.166 25.001 -45.499 25.001s-48.5 -12 -54.5 -36c-1.33301 -4 -2 -8 -2 -12c0 -14.667 8.66699 -25.334 26 -32.001h28
c25.333 8 40.666 22.333 45.999 43c1.33301 4.66699 2 8.66699 2 12z" />
    <glyph glyph-name="ninesuperior" unicode="&#x2079;" horiz-adv-x="280" 
d="M243 527c41.333 0 68.334 23.667 81.001 71l-14 -4c-4.66699 -1.33301 -9.66699 -2.66602 -15 -3.99902c-10.667 -2.66699 -22.667 -4 -36 -4c-32 0 -54.333 9.33301 -67 28c-8 10.667 -12 22.667 -12 36s1.66699 26.666 5 39.999c8.66699 35.333 25.167 62.5 49.5 81.5
s54.166 28.5 89.499 28.5c58 0 87 -30.667 87 -92c0 -21.333 -3.66699 -46.333 -11 -75c-15.333 -60 -35.5 -102.5 -60.5 -127.5s-60.167 -37.5 -105.5 -37.5c-24.667 0 -50 3 -76 9l-13 3l17 53c29.333 -4 56.333 -6 81 -6zM248.001 675c0 -24 11.332 -36 33.999 -36
c14.667 0 30.667 3.66699 48 11l10 4c4 17.333 6 32 6 44c0 29.333 -11.667 44 -35 44c-31.333 0 -51.666 -17 -60.999 -51c-1.33301 -6 -2 -11.333 -2 -16z" />
    <glyph glyph-name="zeroinferior" unicode="&#x2080;" horiz-adv-x="280" 
d="M218 322c59.333 0 89.001 -29.332 89.001 -87.999c0 -21.333 -3.66699 -47.333 -11 -78c-17.333 -70 -42.333 -117.333 -75 -142c-20 -16 -49.167 -24 -87.5 -24s-63.833 12 -76.5 36c-6 12 -9 28.667 -9 50s3.33301 48 10 80c17.333 69.333 42.333 116.666 75 141.999
c21.333 16 49.666 24 84.999 24zM240.001 222.001c0 27.333 -12.333 41 -37 41c-18.667 0 -34 -8 -46 -24s-22.167 -41.167 -30.5 -75.5s-12.5 -59.5 -12.5 -75.5c0 -26 12 -39 36 -39c18.667 0 34 7.5 46 22.5s22.333 39.833 31 74.5s13 60 13 76z" />
    <glyph glyph-name="oneinferior" unicode="&#x2081;" horiz-adv-x="280" 
d="M82 142l119 70h60l-77 -312h-64l60 242l-80 -47z" />
    <glyph glyph-name="twoinferior" unicode="&#x2082;" horiz-adv-x="280" 
d="M195 222c54.667 0 81.999 -19.335 81.999 -58.002c0 -51.333 -31.667 -100 -95 -146l-76 -60h127l-14 -58h-210l14 56l110 86c41.333 32.667 65 60.334 71 83.001c3.33301 12.667 1.33301 21.834 -6 27.501s-18.666 8.5 -33.999 8.5l-87 -10l12 59c42 8 77.333 12 106 12
z" />
    <glyph glyph-name="threeinferior" unicode="&#x2083;" horiz-adv-x="280" 
d="M277 164c0 -41.333 -20.667 -75.001 -62 -101.001c15.333 -5.33301 24.666 -11.5 27.999 -18.5s5 -14.833 5 -23.5s-1.33301 -20 -4 -34c-16.667 -64.667 -60.667 -97 -132 -97c-29.333 0 -60.666 2.66699 -93.999 8l-16 2l18 56c37.333 -4.66699 71.333 -7 102 -7
s49.334 13.667 56.001 41c1.33301 6 2 11 2 15c0 18 -12.333 27 -37 27h-66l13 54h65c9.33301 0 19.166 4.33301 29.499 13s17 18.834 20 30.501s1.5 20.167 -4.5 25.5s-17 8 -33 8l-93 -7l10 56c41.333 6.66699 76.333 10 105 10c58.667 0 88 -19.333 88 -58z" />
    <glyph glyph-name="fourinferior" unicode="&#x2084;" horiz-adv-x="280" 
d="M148 -100l11 48h-141l13 55l122 209h72l-124 -205h73l28 88h58l-23 -88h27l-14 -59h-27l-12 -48h-63z" />
    <glyph glyph-name="fiveinferior" unicode="&#x2085;" horiz-adv-x="280" 
d="M179 16c0 18 -9.66602 26.999 -28.999 26.999s-39 -5 -59 -15l-48 6l54 178h187l-14 -57h-133l-24 -71c19.333 10 41.5 15 66.5 15s44.167 -8 57.5 -24c8 -10 12 -21.667 12 -35s-1.66699 -26.666 -5 -39.999c-18.667 -72 -63.667 -108 -135 -108
c-30.667 0 -60.334 3.33301 -89.001 10l-15 3l19 55c34.667 -7.33301 66.667 -11 96 -11s48 16.333 56 49c2 6.66699 3 12.667 3 18z" />
    <glyph glyph-name="sixinferior" unicode="&#x2086;" horiz-adv-x="280" 
d="M276 158c-32.667 4 -59.833 6 -81.5 6s-38.834 -5.66699 -51.501 -17s-22.334 -30 -29.001 -56c26.667 9.33301 47.667 14 63 14c54.667 0 82 -22 82 -66c0 -10.667 -1.66699 -23 -5 -37c-19.333 -74.667 -65.666 -112 -138.999 -112c-58 0 -87 30 -87 90
c0 20.667 3.33301 44.667 10 72c14.667 60 35.334 103.333 62.001 130s62 40 106 40c22 0 46.667 -2.66699 74 -8l13 -2zM191.001 23c0 18 -9.66699 27 -29 27c-20.667 0 -41.667 -5.33301 -63 -16c-3.33301 -16.667 -5 -30.667 -5 -42c0 -30 11.333 -45 34 -45
c30.667 0 50.667 18 60 54c2 8.66699 3 16 3 22z" />
    <glyph glyph-name="seveninferior" unicode="&#x2087;" horiz-adv-x="280" 
d="M70 150l15 62h208l-19 -77l-166 -244l-72 15l161 223l5 21h-132z" />
    <glyph glyph-name="eightinferior" unicode="&#x2088;" horiz-adv-x="280" 
d="M112 -110c-66.667 0 -100 22.001 -100 66.001c0 8.66699 1.33301 18.334 4 29.001c10.667 40 34 66.333 70 79c-20.667 8 -31 23.667 -31 47c0 7.33301 1.33301 16 4 26c14.667 56.667 60 85 136 85c64 0 96 -20.667 96 -62c0 -6.66699 -1 -14.334 -3 -23.001
c-10.667 -41.333 -31.667 -66 -63 -74c23.333 -8 35 -24 35 -48c0 -8 -1.33301 -16.667 -4 -26c-9.33301 -36.667 -25.833 -62.334 -49.5 -77.001s-55.167 -22 -94.5 -22zM82 -26.999c0 -18.667 15.832 -28 47.499 -28s51.834 14.667 60.501 44c0.666992 4 1 8 1 12
c0 16 -9.66699 27.333 -29 34h-27c-28 -8 -45 -24.333 -51 -49c-1.33301 -4.66699 -2 -9 -2 -13zM222.999 142.001c0 16.667 -15.166 25.001 -45.499 25.001s-48.5 -12 -54.5 -36c-1.33301 -4 -2 -8 -2 -12c0 -14.667 8.66699 -25.334 26 -32.001h28
c25.333 8 40.666 22.333 45.999 43c1.33301 4.66699 2 8.66699 2 12z" />
    <glyph glyph-name="nineinferior" unicode="&#x2089;" horiz-adv-x="280" 
d="M109 -51c41.333 0 68.334 23.667 81.001 71l-14 -4c-4.66699 -1.33301 -9.66699 -2.66602 -15 -3.99902c-10.667 -2.66699 -22.667 -4 -36 -4c-32 0 -54.333 9.33301 -67 28c-8 10.667 -12 22.667 -12 36s1.66699 26.666 5 39.999c8.66699 35.333 25.167 62.5 49.5 81.5
s54.166 28.5 89.499 28.5c58 0 87 -30.667 87 -92c0 -21.333 -3.66699 -46.333 -11 -75c-15.333 -60 -35.5 -102.5 -60.5 -127.5s-60.167 -37.5 -105.5 -37.5c-24.667 0 -50 3 -76 9l-13 3l17 53c29.333 -4 56.333 -6 81 -6zM114.001 97c0 -24 11.332 -36 33.999 -36
c14.667 0 30.667 3.66699 48 11l10 4c4 17.333 6 32 6 44c0 29.333 -11.667 44 -35 44c-31.333 0 -51.666 -17 -60.999 -51c-1.33301 -6 -2 -11.333 -2 -16z" />
    <glyph glyph-name="Euro" unicode="&#x20ac;" 
d="M336 -10c-122.667 0 -184 63.333 -184 190v29h-52l14 62h44c4 32 11.333 67 22 105h-42l15 61h47c28 70 65.833 126.5 113.5 169.5s104.834 64.5 171.501 64.5c44.667 0 90 -5.66699 136 -17l23 -5l-16 -58c-49.333 10 -97 15 -143 15s-86.167 -15.333 -120.5 -46
s-62.833 -71.667 -85.5 -123h268l-14 -61h-276c-9.33301 -29.333 -17 -64.333 -23 -105h275l-14 -62h-267v-26c0 -85.333 39.333 -128 118 -128c42 0 86.667 4.33301 134 13l22 4l-5 -61c-56.667 -14 -110.334 -21 -161.001 -21z" />
    <glyph glyph-name="trademark" unicode="&#x2122;" horiz-adv-x="699" 
d="M219 580v50h200v-50h-66v-248h-55v248h-79zM450 331v299h71l67 -208l70 208h71v-299h-52v224l-67 -209h-43l-65 209v-224h-52z" />
    <glyph glyph-name="Omega" unicode="&#x2126;" 
d="M99 57h121.001c-8 13.333 -18 31.166 -30 53.499s-28 61.666 -48 117.999s-30 105.5 -30 147.5c0 102.667 16 177.5 48 224.5s89.667 70.5 173 70.5s141.166 -23.5 173.499 -70.5s48.5 -121.833 48.5 -224.5c0 -42 -9.16699 -89.5 -27.5 -142.5s-36.5 -95.5 -54.5 -127.5
l-27 -49h122v-66h-197v57c24 44.667 47.333 99 70 163s34 112.333 34 145c0 90 -9 153.5 -27 190.5s-56.333 55.5 -115 55.5c-47.333 0 -81.666 -12.667 -102.999 -38c-25.333 -29.333 -38 -98.666 -38 -207.999c0 -32.667 8.66699 -74.667 26 -126
s34.666 -94.666 51.999 -129.999l25 -52v-57h-196v66z" />
    <glyph glyph-name="partialdiff" unicode="&#x2202;" 
d="M348 728c81.333 0 140.832 -29.001 178.499 -87.001s56.5 -150.667 56.5 -278s-18.333 -221.166 -55 -281.499s-95.334 -90.5 -176.001 -90.5c-148.667 0 -223 74.667 -223 224c0 66.667 18.667 119.167 56 157.5s88.666 57.5 153.999 57.5c48 0 95 -7.33301 141 -22
l23 -8c-2.66699 94 -16.5 161.167 -41.5 201.5s-66.833 60.5 -125.5 60.5c-21.333 0 -45.166 -3.66699 -71.499 -11s-47.166 -15 -62.499 -23l-24 -11l-4 61c20 12 47.333 23.333 82 34s65.334 16 92.001 16zM503.999 333.999c-53.333 20 -104 30 -152 30
s-84 -13.667 -108 -41s-36 -65 -36 -113s12.167 -85.5 36.5 -112.5s61.333 -40.5 111 -40.5s86.5 22.5 110.5 67.5s36.667 114.833 38 209.5z" />
    <glyph glyph-name="Delta" unicode="&#x2206;" 
d="M538 0h-453v57l159 603h135l159 -604v-56zM324 595h-26l-136 -529h298z" />
    <glyph glyph-name="product" unicode="&#x220f;" 
d="M484 -163v849h-206v-849h-77v849h-69v68h500v-68h-71v-849h-77z" />
    <glyph glyph-name="summation" unicode="&#x2211;" 
d="M112 753h470v-68h-389v-22l256 -329v-55l-256 -348v-25h389v-69h-470v101l267 370l-267 346v99z" />
    <glyph glyph-name="minus" unicode="&#x2212;" 
d="M124 217v68h427v-68h-427z" />
    <glyph glyph-name="radical" unicode="&#x221a;" 
d="M114 378v68h122l128 -517h10l227 848h77l-249 -913h-122l-134 514h-59z" />
    <glyph glyph-name="infinity" unicode="&#x221e;" 
d="M222 121c-83.333 0 -125.003 57 -125.003 171c0 55.333 10.333 97.666 31 126.999s51.334 44 92.001 44c30 0 54.833 -8.66699 74.5 -26s37.167 -44 52.5 -80c15.333 36 32.666 62.667 51.999 80s44.333 26 75 26c40.667 0 71.334 -14.667 92.001 -44
s31 -71.666 31 -126.999c0 -114 -41.667 -171 -125 -171c-29.333 0 -53.666 8.5 -72.999 25.5s-36.666 43.167 -51.999 78.5c-15.333 -39.333 -32 -66.5 -50 -81.5s-43 -22.5 -75 -22.5zM228.997 396c-40 0 -60.001 -34.666 -60.001 -103.999s20 -104 60 -104
c22 0 38 6 48 18s18.833 27.167 26.5 45.5s11.667 28 12 29s0.833008 2.16699 1.5 3.5s1.16699 2.66602 1.5 3.99902s0.833008 2.66602 1.5 3.99902c-16.667 40.667 -30.334 67.334 -41.001 80.001c-11.333 12 -20.666 19 -27.999 21s-14.666 3 -21.999 3zM464.996 188.001
c40 0 59.999 34.668 59.999 104.001s-20 104 -60 104c-15.333 0 -26.666 -3.16699 -33.999 -9.5s-12.666 -11.333 -15.999 -15s-7.33301 -9.66699 -12 -18s-8 -14.5 -10 -18.5c-6 -12 -12.333 -26.333 -19 -43c16.667 -40.667 30.334 -67.334 41.001 -80.001
c11.333 -12 20.666 -19 27.999 -21s14.666 -3 21.999 -3z" />
    <glyph glyph-name="integral" unicode="&#x222b;" 
d="M385 -6c0 -66.667 -11.168 -113.5 -33.501 -140.5s-56.166 -40.5 -101.499 -40.5l-88 8l2 64c26 -2.66699 51.167 -4 75.5 -4s42 8.33301 53 25s16.5 46.334 16.5 89.001v581c0 75.333 10.833 128.166 32.5 158.499s56.167 45.5 103.5 45.5c28.667 0 55 -2 79 -6l13 -3
l-3 -64c-24.667 3.33301 -49.667 5 -75 5s-44 -10.167 -56 -30.5s-18 -55.833 -18 -106.5v-581z" />
    <glyph glyph-name="approxequal" unicode="&#x2248;" 
d="M435 270c-18 0 -52.3301 10.333 -102.997 31s-82.334 31 -95.001 31s-27.834 -4 -45.501 -12s-32.167 -16 -43.5 -24l-17 -11l-10 62c41.333 35.333 80.333 53 117 53c19.333 0 54 -10.167 104 -30.5s81.333 -30.5 94 -30.5c23.333 0 52.666 11.667 87.999 35l17 11
l10 -61c-42 -36 -80.667 -54 -116 -54zM435.003 85c-18 0 -52.3301 10.333 -102.997 31s-82.334 31 -95.001 31s-27.834 -3.83301 -45.501 -11.5s-32.167 -15.5 -43.5 -23.5l-17 -12l-10 62c41.333 35.333 80.333 53 117 53c19.333 0 54 -10.167 104 -30.5
s81.333 -30.5 94 -30.5c23.333 0 52.666 11.333 87.999 34l17 12l10 -61c-42 -36 -80.667 -54 -116 -54z" />
    <glyph glyph-name="notequal" unicode="&#x2260;" 
d="M121 309v69h228l68 155l61 -24l-58 -131h133v-69h-163l-51 -116h214v-69h-244l-66 -152l-60 24l56 128h-118v69h148l50 116h-198z" />
    <glyph glyph-name="lessequal" unicode="&#x2264;" 
d="M535 422l-335 -102l335 -110v-76l-422 150v68l422 145v-75zM113 22v68h422v-68h-422z" />
    <glyph glyph-name="greaterequal" unicode="&#x2265;" 
d="M462 320l-335 102v75l422 -145v-68l-422 -150v76zM549 90v-68h-422v68h422z" />
    <glyph glyph-name="lozenge" unicode="&#x25ca;" 
d="M503 329l-100 67h10l168 -67l-168 -65h-9zM129 329l168 67h9l-99 -67l98 -65h-8zM366 239h-23l-38 25h99zM306 396l37 25h23l37 -25h-97z" />
    <glyph glyph-name="dotlessj" unicode="&#xf6be;" horiz-adv-x="207" 
d="M66 0l115.002 500.001h75l-116 -500c-16.667 -74 -35.334 -122.833 -56.001 -146.5s-69.667 -53.167 -147 -88.5l-24 60c59.333 30.667 96.666 54.667 111.999 72s29 51.666 41 102.999z" />
    <glyph glyph-name="commaaccent" unicode="&#xf6c3;" horiz-adv-x="161" 
d="M-45 -283l87 210h70l-96 -210h-61z" />
    <glyph glyph-name=".null" horiz-adv-x="0" 
 />
    <glyph glyph-name="nonmarkingreturn" horiz-adv-x="333" 
 />
    <glyph glyph-name="CR" horiz-adv-x="223" 
 />
    <glyph glyph-name="DLE" horiz-adv-x="0" 
 />
    <glyph glyph-name="zero.pnum" horiz-adv-x="515" 
d="M119 333c25.333 56.667 60.168 100.167 104.501 130.5s96.166 45.5 155.499 45.5s102.5 -13.833 129.5 -41.5s40.5 -68.334 40.5 -122.001s-10.333 -107.5 -31 -161.5s-53 -99.667 -97 -137s-102 -56 -174 -56c-110.667 0 -166 54.333 -166 163
c0 62.667 12.667 122.334 38 179.001zM361.002 439c-58.667 0 -106.332 -27.333 -142.999 -82s-55 -118 -55 -190c0 -36 8.16699 -62.667 24.5 -80s40 -26 71 -26s57.5 5.33301 79.5 16s40 24.667 54 42s26.167 36 36.5 56s18.166 40.333 23.499 61
c10 38.667 15 68.667 15 90c0 39.333 -8.16699 68 -24.5 86s-43.5 27 -81.5 27z" />
    <glyph glyph-name="one.pnum" horiz-adv-x="324" 
d="M105 383l211 117h76l-124 -500h-80l101 408l-163 -89z" />
    <glyph glyph-name="two.pnum" horiz-adv-x="439" 
d="M398 381c0 18.667 -6.66602 32.6689 -19.999 42.002s-33.833 14 -61.5 14s-55.167 -1.66699 -82.5 -5c-61.333 -6.66699 -93 -11 -95 -13l12 67c71.333 15.333 132.833 23 184.5 23s89.5 -9.83301 113.5 -29.5s36 -45.5 36 -77.5c0 -44.667 -12.333 -82.834 -37 -114.501
s-59.334 -62.834 -104.001 -93.501l-176 -123h256l-13 -71h-380l16 68l189 134c108 74 162 133.667 162 179z" />
    <glyph glyph-name="three.pnum" horiz-adv-x="452" 
d="M345 509c102.667 0 154.002 -30.999 154.002 -92.999c0 -26.667 -4.5 -50.167 -13.5 -70.5s-20.167 -35.833 -33.5 -46.5c-26.667 -20.667 -51.667 -32.334 -75 -35.001c23.333 -4.66699 42 -14.5 56 -29.5s21 -32.833 21 -53.5c0 -52.667 -18.5 -97.5 -55.5 -134.5
s-93.833 -55.5 -170.5 -55.5c-52 0 -107 5 -165 15l-29 5l25 66c68 -10 126.167 -15 174.5 -15s84.5 10.167 108.5 30.5s36 45.833 36 76.5c0 38 -32.333 57 -97 57h-122l17 67h124c31.333 0 59.166 8.66699 83.499 26s36.5 41 36.5 71c0 18.667 -6.83301 31.5 -20.5 38.5
s-34.834 10.5 -63.501 10.5c-50.667 0 -103 -4 -157 -12l-27 -4l9 66c70.667 13.333 132 20 184 20z" />
    <glyph glyph-name="four.pnum" horiz-adv-x="460" 
d="M297 0l24 100h-273l15 60l248 340h89l-244 -332h183l31 126h76l-31 -126h61l-17 -68h-61l-25 -100h-76z" />
    <glyph glyph-name="five.pnum" horiz-adv-x="460" 
d="M315 316c102 0 153 -39.667 153 -119c0 -61.333 -20.5 -111 -61.5 -149s-98.5 -57 -172.5 -57c-44 0 -98 6 -162 18l-32 6l24 68c76 -16 135.833 -24 179.5 -24s78.667 12 105 36s39.5 54 39.5 90c0 22 -7 38.5 -21 49.5s-33.667 16.5 -59 16.5
c-41.333 0 -85 -8.33301 -131 -25l-23 -9l-54 13l86 271h335l-18 -72h-266l-49 -141c48.667 18.667 91 28 127 28z" />
    <glyph glyph-name="six.pnum" horiz-adv-x="473" 
d="M366 442c-96.667 0 -159.001 -54.332 -187.001 -162.999c16 8 39.333 16 70 24s58 12 82 12c56.667 0 96 -9.33301 118 -28s33 -44.167 33 -76.5s-4.33301 -60.5 -13 -84.5s-22 -46.5 -40 -67.5s-43.5 -37.667 -76.5 -50s-73.833 -18.5 -122.5 -18.5
s-85.5 13.5 -110.5 40.5s-37.5 63.833 -37.5 110.5c0 103.333 25.833 190.666 77.5 261.999s123.834 107 216.501 107c42.667 0 86.667 -5.33301 132 -16l24 -5l-22 -61c-48.667 9.33301 -96.667 14 -144 14zM406.999 192.001c0 40 -27.999 60 -83.999 60
c-48.667 0 -94.334 -9 -137.001 -27l-22 -9c-5.33301 -28.667 -8 -51 -8 -67c0 -64.667 32.333 -97 97 -97c26 0 48.833 3.83301 68.5 11.5s34.667 17 45 28s18.833 23.5 25.5 37.5c10 20.667 15 41.667 15 63z" />
    <glyph glyph-name="seven.pnum" horiz-adv-x="398" 
d="M121 432l18 69h351l-24 -99l-316 -418l-62 35l297 389l7 24h-271z" />
    <glyph glyph-name="eight.pnum" horiz-adv-x="489" 
d="M366 509c56 0 98.667 -9.33105 128 -27.998s44 -43.334 44 -74.001c0 -72.667 -41.333 -120.334 -124 -143.001c49.333 -21.333 74 -52.333 74 -93c0 -54 -19.833 -97.667 -59.5 -131s-103.5 -50 -191.5 -50c-56 0 -99.333 9.5 -130 28.5s-46 44.5 -46 76.5
c0 78 44.667 134.333 134 169c-42 21.333 -63 50 -63 86c0 44 20 81.5 60 112.5s98 46.5 174 46.5zM254 60.002c102.667 0 153.999 37.667 153.999 113c0 24.667 -23 43 -69 55h-89c-31.333 -6.66699 -56.666 -19.667 -75.999 -39s-29 -44.333 -29 -75
c0 -36 36.333 -54 109 -54zM345.999 443.002c-58 0 -95.667 -12.332 -113 -36.999c-14 -20 -21 -37.833 -21 -53.5s3.66699 -27.5 11 -35.5s22 -15.667 44 -23h88c33.333 9.33301 58.5 21.166 75.5 35.499s25.5 34.833 25.5 61.5c0 34.667 -36.667 52 -110 52z" />
    <glyph glyph-name="nine.pnum" horiz-adv-x="472" 
d="M77 72c48.667 -9.33301 96.667 -14 144 -14s87.833 14.5 121.5 43.5s56.5 70.5 68.5 124.5c-58.667 -24 -113 -36 -163 -36c-94.667 0 -142 37.667 -142 113c0 50 17.667 95.667 53 137c18 20.667 43.5 37.5 76.5 50.5s73.5 19.5 121.5 19.5s84.5 -13.667 109.5 -41
s37.5 -64.333 37.5 -111c0 -104.667 -25.5 -192.167 -76.5 -262.5s-123.167 -105.5 -216.5 -105.5c-42.667 0 -86.667 5.33301 -132 16l-24 5zM278 253c19.333 0 41.332 2.83203 65.999 8.49902s44.334 11.5 59.001 17.5l22 9c4 16.667 6 37.667 6 63
c0 64.667 -32.667 97 -98 97c-26 0 -48.833 -3.66699 -68.5 -11s-34.5 -16.166 -44.5 -26.499s-18 -22.5 -24 -36.5c-10 -20.667 -15 -41 -15 -61c0 -40 32.333 -60 97 -60z" />
    <glyph glyph-name="questiondown.cap" horiz-adv-x="392" 
d="M60 129c0 47.333 10.667 85.5 32 114.5s65.333 69.167 132 120.5c46 35.333 72 69 78 101l8 39h71c-0.666992 -22 -3 -42.667 -7 -62c-7.33301 -40.667 -41 -84 -101 -130c-53.333 -42 -88.833 -74.167 -106.5 -96.5s-26.5 -49.5 -26.5 -81.5
c0 -45.333 33.667 -68 101 -68c36 0 76.333 4.66699 121 14l23 4l-6 -61c-58.667 -16.667 -110 -25 -154 -25c-110 0 -165 43.667 -165 131zM423 699l-25 -116h-77l26 116h76z" />
    <glyph glyph-name="endash.cap" horiz-adv-x="594" 
d="M115 331h500v-66h-500v66z" />
    <glyph glyph-name="emdash.cap" horiz-adv-x="1094" 
d="M115 331h1000v-66h-1000v66z" />
    <glyph glyph-name="periodcentered.cap" horiz-adv-x="170" 
d="M111 279l26 117h77l-26 -117h-77z" />
    <glyph glyph-name="exclamdown.cap" horiz-adv-x="189" 
d="M237 462l-106 -470h-77l116 470h67zM290 692l-25 -111h-76l25 111h76z" />
    <glyph glyph-name="parenleft.cap" horiz-adv-x="226" 
d="M189 326c-16 -65.333 -23.999 -122.668 -23.999 -172.001c0 -95.333 3.66699 -168.666 11 -219.999l4 -28h-71c-14 58 -21 127.167 -21 207.5s7.83301 153.5 23.5 219.5s34.5 124.333 56.5 175c46 105.333 86.667 184 122 236l24 34h71
c-52.667 -82 -100.334 -176 -143.001 -282c-19.333 -48 -37 -104.667 -53 -170z" />
    <glyph glyph-name="parenright.cap" horiz-adv-x="228" 
d="M198 364c16 65.333 23.999 122.668 23.999 172.001c0 85.333 -4 158.666 -12 219.999l-3 28h71c14 -58 21 -127.167 21 -207.5s-7.83301 -153.5 -23.5 -219.5s-34.5 -124.333 -56.5 -175c-46 -105.333 -87 -184 -123 -236l-23 -34h-71c52.667 82 100.334 176 143.001 282
c19.333 48 37 104.667 53 170z" />
    <glyph glyph-name="bracketleft.cap" horiz-adv-x="276" 
d="M235 777h195l-15 -65h-119l-173 -739h119l-17 -65h-193z" />
    <glyph glyph-name="bracketright.cap" horiz-adv-x="275" 
d="M199 -91h-195l15 65h119l173 739h-119l17 65h193z" />
    <glyph glyph-name="braceleft.cap" horiz-adv-x="313" 
d="M237 252c0 -12 -8 -45.668 -24 -101.001s-24 -92.333 -24 -111c0 -46 29.667 -69 89 -69l-19 -68c-96 2 -144 40.333 -144 115c0 20.667 7.83301 59 23.5 115s23.5 91.667 23.5 107c0 32 -24 57 -72 75l14 59c43.333 11.333 72.5 25 87.5 41s26.167 40.667 33.5 74
c2 8.66699 5 23.667 9 45c10 55.333 16.667 87 20 95c16.667 53.333 41.167 91.666 73.5 114.999s78.833 36.333 139.5 39l-12 -68c-42.667 -2.66699 -74.167 -13.167 -94.5 -31.5s-34.833 -46.166 -43.5 -83.499c-0.666992 -4 -4.16699 -23.167 -10.5 -57.5l-11.5 -62.5
c-9.33301 -41.333 -22.833 -71.666 -40.5 -90.999s-44.5 -35 -80.5 -47c42 -19.333 63 -49.333 63 -90z" />
    <glyph glyph-name="braceright.cap" horiz-adv-x="313" 
d="M234 431c0 12.667 8 46.668 24 102.001s24 92 24 110c0 46 -29.667 69 -89 69l19 68c96 -2 144 -40.333 144 -115c0 -20.667 -7.83301 -59 -23.5 -115s-23.5 -92 -23.5 -108c0 -31.333 24 -56 72 -74l-14 -59c-43.333 -11.333 -72.5 -25 -87.5 -41
s-26.167 -40.667 -33.5 -74c-2 -8.66699 -5 -24 -9 -46c-10 -54.667 -16.667 -86 -20 -94c-16.667 -53.333 -41.167 -91.666 -73.5 -114.999s-78.833 -36.333 -139.5 -39l12 68c42.667 2.66699 74.167 13.167 94.5 31.5s34.833 46.166 43.5 83.499
c0.666992 4 4.16699 23.167 10.5 57.5l11.5 62.5c9.33301 41.333 22.833 71.666 40.5 90.999s44.5 35 80.5 47c-42 19.333 -63 49.333 -63 90z" />
    <glyph glyph-name="grave.cap" horiz-adv-x="490" 
d="M361 930l185 -94l-34 -56l-188 86z" />
    <glyph glyph-name="caron.cap" horiz-adv-x="439" 
d="M576 929l-157 -137h-47l-98 137h74l58 -82l93 82h77z" />
    <glyph glyph-name="tilde.cap" horiz-adv-x="433" 
d="M490 809c-16 0 -41 9.33301 -75 28s-55 28 -63 28c-14 0 -38.333 -12.333 -73 -37l-17 -12l-2 54c44.667 40 79.667 60 105 60c18 0 43.833 -9.16699 77.5 -27.5s54.167 -27.5 61.5 -27.5c12.667 0 35 11.667 67 35l16 11l3 -53c-42 -39.333 -75.333 -59 -100 -59z" />
    <glyph glyph-name="dieresis.cap" horiz-adv-x="387" 
d="M285 814l21 93h62l-23 -93h-60zM472 814l22 93h62l-23 -93h-61z" />
    <glyph glyph-name="macron.cap" horiz-adv-x="439" 
d="M263 823l13 60h294l-14 -60h-293z" />
    <glyph glyph-name="breve.cap" horiz-adv-x="439" 
d="M398 796c-76.667 0 -114.999 32.333 -114.999 97c0 9.33301 1 19.333 3 30h66c-1.33301 -6.66699 -2 -15.167 -2 -25.5s4.5 -19.833 13.5 -28.5s24.333 -13 46 -13s41 6.16699 58 18.5s28.5 28.5 34.5 48.5h66c-24.667 -84.667 -81.334 -127 -170.001 -127z" />
    <glyph glyph-name="ring.cap" horiz-adv-x="315" 
d="M392 704c-22 -18 -49.1699 -27 -81.5029 -27s-56.166 9 -71.499 27c-10 11.333 -15 23.5 -15 36.5s1.66699 25.167 5 36.5c8.66699 33.333 24.334 58.333 47.001 75s49.834 25 81.501 25s55.167 -8.33301 70.5 -25c9.33301 -10.667 14 -23 14 -37
c0 -48 -16.667 -85 -50 -111zM278.997 777c-1.33301 -4.66699 -2 -10.001 -2 -16.001s3.16699 -12.833 9.5 -20.5s17.833 -11.5 34.5 -11.5c36.667 0 58.667 16 66 48c0.666992 4.66699 1 10.334 1 17.001s-3.33301 13.5 -10 20.5s-17.667 10.5 -33 10.5
c-36 0 -58 -16 -66 -48z" />
    <glyph glyph-name="hungarumlaut.cap" horiz-adv-x="666" 
d="M546 755l-42 30l164 131l49 -32zM357 756l-43 29l166 132l46 -32z" />
    <glyph glyph-name="dotaccent.cap" horiz-adv-x="224" 
d="M263 793l20 90h64l-21 -90h-63z" />
    <glyph glyph-name="zero.numr" horiz-adv-x="280" 
d="M303 700c59.333 0 89.001 -29.332 89.001 -87.999c0 -21.333 -3.66699 -47.333 -11 -78c-17.333 -70 -42.333 -117.333 -75 -142c-20 -16 -49.167 -24 -87.5 -24s-63.833 12 -76.5 36c-6 12 -9 28.667 -9 50s3.33301 48 10 80c17.333 69.333 42.333 116.666 75 141.999
c21.333 16 49.666 24 84.999 24zM325.001 600.001c0 27.333 -12.333 41 -37 41c-18.667 0 -34 -8 -46 -24s-22.167 -41.167 -30.5 -75.5s-12.5 -59.5 -12.5 -75.5c0 -26 12 -39 36 -39c18.667 0 34 7.5 46 22.5s22.333 39.833 31 74.5s13 60 13 76z" />
    <glyph glyph-name="one.numr" horiz-adv-x="280" 
d="M182 620l119 70h60l-77 -312h-64l60 242l-80 -47z" />
    <glyph glyph-name="two.numr" horiz-adv-x="280" 
d="M304 700c54.667 0 81.999 -19.335 81.999 -58.002c0 -51.333 -31.667 -100 -95 -146l-76 -60h127l-14 -58h-210l14 56l110 86c41.333 32.667 65 60.334 71 83.001c3.33301 12.667 1.33301 21.834 -6 27.501s-18.666 8.5 -33.999 8.5l-87 -10l12 59c42 8 77.333 12 106 12
z" />
    <glyph glyph-name="three.numr" horiz-adv-x="280" 
d="M391 642c0 -41.333 -20.667 -75.001 -62 -101.001c15.333 -5.33301 24.666 -11.5 27.999 -18.5s5 -14.833 5 -23.5s-1.33301 -20 -4 -34c-16.667 -64.667 -60.667 -97 -132 -97c-29.333 0 -60.666 2.66699 -93.999 8l-16 2l18 56c37.333 -4.66699 71.333 -7 102 -7
s49.334 13.667 56.001 41c1.33301 6 2 11 2 15c0 18 -12.333 27 -37 27h-66l13 54h65c9.33301 0 19.166 4.33301 29.499 13s17 18.834 20 30.501s1.5 20.167 -4.5 25.5s-17 8 -33 8l-93 -7l10 56c41.333 6.66699 76.333 10 105 10c58.667 0 88 -19.333 88 -58z" />
    <glyph glyph-name="four.numr" horiz-adv-x="280" 
d="M252 378l11 48h-141l13 55l122 209h72l-124 -205h73l28 88h58l-23 -88h27l-14 -59h-27l-12 -48h-63z" />
    <glyph glyph-name="five.numr" horiz-adv-x="280" 
d="M295 494c0 18 -9.66602 26.999 -28.999 26.999s-39 -5 -59 -15l-48 6l54 178h187l-14 -57h-133l-24 -71c19.333 10 41.5 15 66.5 15s44.167 -8 57.5 -24c8 -10 12 -21.667 12 -35s-1.66699 -26.666 -5 -39.999c-18.667 -72 -63.667 -108 -135 -108
c-30.667 0 -60.334 3.33301 -89.001 10l-15 3l19 55c34.667 -7.33301 66.667 -11 96 -11s48 16.333 56 49c2 6.66699 3 12.667 3 18z" />
    <glyph glyph-name="six.numr" horiz-adv-x="280" 
d="M385 636c-32.667 4 -59.833 6 -81.5 6s-38.834 -5.66699 -51.501 -17s-22.334 -30 -29.001 -56c26.667 9.33301 47.667 14 63 14c54.667 0 82 -22 82 -66c0 -10.667 -1.66699 -23 -5 -37c-19.333 -74.667 -65.666 -112 -138.999 -112c-58 0 -87 30 -87 90
c0 20.667 3.33301 44.667 10 72c14.667 60 35.334 103.333 62.001 130s62 40 106 40c22 0 46.333 -2.66699 73 -8l14 -2zM300.001 501c0 18 -10 27 -30 27s-40.667 -5.33301 -62 -16c-3.33301 -16.667 -5 -30.667 -5 -42c0 -30 11.333 -45 34 -45c30.667 0 50.667 18 60 54
c2 8.66699 3 16 3 22z" />
    <glyph glyph-name="seven.numr" horiz-adv-x="280" 
d="M182 628l15 62h208l-19 -77l-166 -244l-72 15l161 223l5 21h-132z" />
    <glyph glyph-name="eight.numr" horiz-adv-x="280" 
d="M221 368c-66.667 0 -100 22.001 -100 66.001c0 8.66699 1.33301 18.334 4 29.001c10.667 40 34 66.333 70 79c-20.667 8 -31 23.667 -31 47c0 7.33301 1.33301 16 4 26c14.667 56.667 60 85 136 85c64 0 96 -20.667 96 -62c0 -6.66699 -1 -14.334 -3 -23.001
c-10.667 -41.333 -31.667 -66 -63 -74c23.333 -8 35 -24 35 -48c0 -8 -1.33301 -16.667 -4 -26c-9.33301 -36.667 -25.833 -62.334 -49.5 -77.001s-55.167 -22 -94.5 -22zM191 451.001c0 -18.667 15.832 -28 47.499 -28s51.834 14.667 60.501 44c0.666992 4 1 8 1 12
c0 16 -9.66699 27.333 -29 34h-27c-28 -8 -45 -24.333 -51 -49c-1.33301 -4.66699 -2 -9 -2 -13zM331.999 620.001c0 16.667 -15.166 25.001 -45.499 25.001s-48.5 -12 -54.5 -36c-1.33301 -4 -2 -8 -2 -12c0 -14.667 8.66699 -25.334 26 -32.001h28
c25.333 8 40.666 22.333 45.999 43c1.33301 4.66699 2 8.66699 2 12z" />
    <glyph glyph-name="nine.numr" horiz-adv-x="280" 
d="M222 427c41.333 0 68.334 23.667 81.001 71l-14 -4c-4.66699 -1.33301 -9.66699 -2.66602 -15 -3.99902c-10.667 -2.66699 -22.667 -4 -36 -4c-32 0 -54.667 9.33301 -68 28c-7.33301 10.667 -11 22.667 -11 36s1.66699 26.666 5 39.999
c8.66699 35.333 25.167 62.5 49.5 81.5s54.166 28.5 89.499 28.5c58 0 87 -30.667 87 -92c0 -21.333 -3.66699 -46.333 -11 -75c-15.333 -60 -35.5 -102.5 -60.5 -127.5s-60.167 -37.5 -105.5 -37.5c-24.667 0 -50 3 -76 9l-13 3l17 53c29.333 -4 56.333 -6 81 -6z
M227.001 575c0 -24 11.333 -36 34 -36c14.667 0 31 3.66699 49 11l9 4c4 17.333 6 32 6 44c0 29.333 -11.667 44 -35 44c-32 0 -52.333 -17 -61 -51c-1.33301 -6 -2 -11.333 -2 -16z" />
    <glyph glyph-name="zero.slash" 
d="M414 671c41.333 0 76.333 -7 105 -21l96 148l52 -20l-104 -159c34 -35.333 51 -84 51 -146s-6.5 -120.667 -19.5 -176s-32 -106.333 -57 -153s-58.5 -84 -100.5 -112s-88.5 -42 -139.5 -42s-91.833 11 -122.5 33l-92 -141l-50 18l104 160c-26 34 -39 77.667 -39 131
c0 82.667 12.167 160 36.5 232s61 131.333 110 178s105.5 70 169.5 70zM517.5 322.5c9.66699 45.667 14.501 88.498 14.501 128.498s-6 71 -18 93l-296 -454c21.333 -19.333 49.666 -29 84.999 -29s68.333 12.333 99 37s55.167 56.834 73.5 96.501s32.333 82.334 42 128.001
zM476.001 583.998c-19.333 10.667 -45.001 16 -77.001 16s-63.167 -12.5 -93.5 -37.5s-54.166 -57.833 -71.499 -98.5c-36 -81.333 -54 -170 -54 -266c0 -21.333 2.66699 -41 8 -59z" />
    <glyph glyph-name="at.cap" horiz-adv-x="910" 
d="M647 813c63.333 0 117.836 -7.49902 163.503 -22.499s81.5 -35.167 107.5 -60.5c48 -46.667 72 -112 72 -196c0 -42.667 -8.16699 -98.334 -24.5 -167.001s-36.666 -125.834 -60.999 -171.501s-49.5 -76 -75.5 -91s-58.333 -22.5 -97 -22.5c-57.333 0 -90 18.667 -98 56
c-74.667 -37.333 -138.334 -56 -191.001 -56c-26.667 0 -48.834 5 -66.501 15s-30.5 22.333 -38.5 37c-13.333 22.667 -20 54.667 -20 96c0 21.333 3 47.333 9 78c36 196 120.667 294 254 294c34 0 99 -8.33301 195 -25c-54 -220 -81 -348.333 -81 -385
c0 -15.333 4.16699 -25.666 12.5 -30.999s21.833 -8 40.5 -8c33.333 0 61.666 16.667 84.999 50s46.333 98.666 69 195.999c12.667 51.333 19 92.166 19 122.499s-3.83301 59.333 -11.5 87s-21.834 51.5 -42.501 71.5c-46 44.667 -123.667 67 -233 67
c-124.667 0 -222.167 -30.667 -292.5 -92s-122.166 -160.666 -155.499 -297.999c-12.667 -54 -19 -102.333 -19 -145c0 -170 100 -255 300 -255l136 9l-13 -66c-64 -6 -117.333 -9 -160 -9s-85.5 6.33301 -128.5 19s-77.5 30.334 -103.5 53.001
c-55.333 47.333 -88 105.666 -98 174.999c-3.33301 26 -5 47.833 -5 65.5s0.666992 38 2 61s6.66602 53.833 15.999 92.5c38.667 164.667 100 281.834 184 351.501s200.667 104.5 350 104.5zM461.003 149.001c44 0 97.333 17.333 160 52c4 42.667 27 150 69 322
c-40.667 9.33301 -78 14 -112 14c-47.333 0 -84.5 -19.5 -111.5 -58.5s-48.5 -96.167 -64.5 -171.5c-5.33301 -31.333 -8 -57.833 -8 -79.5s5.5 -40.167 16.5 -55.5s27.833 -23 50.5 -23z" />
    <glyph glyph-name="zero.dnom" horiz-adv-x="280" 
d="M196 222c59.333 0 89.001 -29.332 89.001 -87.999c0 -21.333 -3.66699 -47.333 -11 -78c-17.333 -70 -42.333 -117.333 -75 -142c-20 -16 -49.167 -24 -87.5 -24s-63.833 12 -76.5 36c-6 12 -9 28.667 -9 50s3.33301 48 10 80c17.333 69.333 42.333 116.666 75 141.999
c21.333 16 49.666 24 84.999 24zM218.001 122.001c0 27.333 -12.333 41 -37 41c-18.667 0 -34 -8 -46 -24s-22.167 -41.167 -30.5 -75.5s-12.5 -59.5 -12.5 -75.5c0 -26 12 -39 36 -39c18.667 0 34 7.5 46 22.5s22.333 39.833 31 74.5s13 60 13 76z" />
    <glyph glyph-name="one.dnom" horiz-adv-x="280" 
d="M79 142l119 70h60l-77 -312h-64l60 242l-80 -47z" />
    <glyph glyph-name="two.dnom" horiz-adv-x="280" 
d="M197 222c54.667 0 81.999 -19.335 81.999 -58.002c0 -51.333 -31.667 -100 -95 -146l-76 -60h127l-14 -58h-210l14 56l110 86c41.333 32.667 65 60.334 71 83.001c3.33301 12.667 1.33301 21.834 -6 27.501s-18.666 8.5 -33.999 8.5l-87 -10l12 59c42 8 77.333 12 106 12
z" />
    <glyph glyph-name="three.dnom" horiz-adv-x="280" 
d="M278 164c0 -41.333 -20.666 -75.001 -61.999 -101.001c15.333 -5.33301 24.666 -11.5 27.999 -18.5s5 -14.833 5 -23.5s-1.33301 -20 -4 -34c-16.667 -64.667 -60.667 -97 -132 -97c-29.333 0 -60.333 2.66699 -93 8l-17 2l18 56c37.333 -4.66699 71.333 -7 102 -7
s49.334 13.667 56.001 41c1.33301 6 2 11 2 15c0 18 -12.333 27 -37 27h-66l13 54h65c9.33301 0 19.166 4.33301 29.499 13s17 18.834 20 30.501s1.5 20.167 -4.5 25.5s-17 8 -33 8l-93 -7l10 56c41.333 6.66699 76.333 10 105 10c58.667 0 88 -19.333 88 -58z" />
    <glyph glyph-name="four.dnom" horiz-adv-x="280" 
d="M149 -100l11 48h-141l13 55l122 209h72l-124 -205h73l28 88h58l-23 -88h27l-14 -59h-27l-12 -48h-63z" />
    <glyph glyph-name="five.dnom" horiz-adv-x="280" 
d="M179 16c0 18 -9.66602 26.999 -28.999 26.999s-39 -5 -59 -15l-48 6l54 178h187l-14 -57h-133l-24 -71c19.333 10 41.5 15 66.5 15s44.167 -8 57.5 -24c8 -10 12 -21.667 12 -35s-1.66699 -26.666 -5 -39.999c-18.667 -72 -63.667 -108 -135 -108
c-30.667 0 -60.334 3.33301 -89.001 10l-15 3l19 55c34.667 -7.33301 66.667 -11 96 -11s48 16.333 56 49c2 6.66699 3 12.667 3 18z" />
    <glyph glyph-name="six.dnom" horiz-adv-x="280" 
d="M275 158c-32.667 4 -59.833 6 -81.5 6s-38.834 -5.66699 -51.501 -17s-22.334 -30 -29.001 -56c26.667 9.33301 47.667 14 63 14c54.667 0 82 -22 82 -66c0 -10.667 -1.66699 -23 -5 -37c-19.333 -74.667 -65.666 -112 -138.999 -112c-58 0 -87 30 -87 90
c0 20.667 3.33301 44.667 10 72c14.667 60 35.334 103.333 62.001 130s62 40 106 40c22 0 46.333 -2.66699 73 -8l14 -2zM190.001 23c0 18 -10 27 -30 27s-40.667 -5.33301 -62 -16c-3.33301 -16.667 -5 -30.667 -5 -42c0 -30 11.333 -45 34 -45c30.667 0 50.667 18 60 54
c2 8.66699 3 16 3 22z" />
    <glyph glyph-name="seven.dnom" horiz-adv-x="280" 
d="M70 150l15 62h208l-19 -77l-166 -244l-72 15l161 223l5 21h-132z" />
    <glyph glyph-name="eight.dnom" horiz-adv-x="280" 
d="M113 -110c-66.667 0 -100 22.001 -100 66.001c0 8.66699 1.33301 18.334 4 29.001c10.667 40 34 66.333 70 79c-20.667 8 -31 23.667 -31 47c0 7.33301 1.33301 16 4 26c14.667 56.667 60 85 136 85c64 0 96 -20.667 96 -62c0 -6.66699 -1 -14.334 -3 -23.001
c-10.667 -41.333 -31.667 -66 -63 -74c23.333 -8 35 -24 35 -48c0 -8 -1.33301 -16.667 -4 -26c-9.33301 -36.667 -25.833 -62.334 -49.5 -77.001s-55.167 -22 -94.5 -22zM83 -26.999c0 -18.667 15.832 -28 47.499 -28s51.834 14.667 60.501 44c0.666992 4 1 8 1 12
c0 16 -9.66699 27.333 -29 34h-27c-28 -8 -45 -24.333 -51 -49c-1.33301 -4.66699 -2 -9 -2 -13zM223.999 142.001c0 16.667 -15.166 25.001 -45.499 25.001s-48.5 -12 -54.5 -36c-1.33301 -4 -2 -8 -2 -12c0 -14.667 8.66699 -25.334 26 -32.001h28
c25.333 8 40.666 22.333 45.999 43c1.33301 4.66699 2 8.66699 2 12z" />
    <glyph glyph-name="nine.dnom" horiz-adv-x="280" 
d="M110 -51c41.333 0 68.334 23.667 81.001 71l-14 -4c-4.66699 -1.33301 -9.66699 -2.66602 -15 -3.99902c-10.667 -2.66699 -22.667 -4 -36 -4c-32 0 -54.667 9.33301 -68 28c-7.33301 10.667 -11 22.667 -11 36s1.66699 26.666 5 39.999
c8.66699 35.333 25.167 62.5 49.5 81.5s54.166 28.5 89.499 28.5c58 0 87 -30.667 87 -92c0 -21.333 -3.66699 -46.333 -11 -75c-15.333 -60 -35.5 -102.5 -60.5 -127.5s-60.167 -37.5 -105.5 -37.5c-24.667 0 -50 3 -76 9l-13 3l17 53c29.333 -4 56.333 -6 81 -6z
M115.001 97c0 -24 11.333 -36 34 -36c14.667 0 31 3.66699 49 11l9 4c4 17.333 6 32 6 44c0 29.333 -11.667 44 -35 44c-32 0 -52.333 -17 -61 -51c-1.33301 -6 -2 -11.333 -2 -16z" />
    <glyph glyph-name="hyphen.cap" horiz-adv-x="336" 
d="M104 263l17 69h247l-17 -69h-247z" />
    <glyph glyph-name="acute.cap.001" horiz-adv-x="505" 
d="M325 785l-9 57l228 94l9 -65z" />
    <glyph glyph-name="circumflex.cap.001" horiz-adv-x="439" 
d="M244 793l164 138h41l96 -138h-69l-54 81l-96 -81h-82z" />
    </font>
</defs>
</svg>
